<?xml version="1.0" encoding="utf-8"?>
<!-- Generator: Adobe Illustrator 19.0.0, SVG Export Plug-In . SVG Version: 6.00 Build 0)  -->
<svg version="1.1" id="Layer_1" xmlns="http://www.w3.org/2000/svg" xmlns:xlink="http://www.w3.org/1999/xlink" x="0px" y="0px"
	 width="300px" height="300px" viewBox="-155 247 300 300" style="enable-background:new -155 247 300 300;" xml:space="preserve">
<style type="text/css">
	.st0{fill:none;stroke:#016ecf;stroke-width:8;stroke-linecap:round;stroke-linejoin:round;stroke-miterlimit:10;}
</style>
<path class="st0" d="M-72.8857803,273.7428589C-108.2950821,273.7428589-137,302.4477844-137,337.8570862v70.400116
	c0,35.4093018,28.7049179,64.1142273,64.1142197,64.1142273H2.5429213c35.4093056,0,64.1142197-28.7049255,64.1142197-64.1142273
	v-0.000061v0.000061c0,35.4093018-28.7049141,64.1142273-64.1142197,64.1142273h-75.4287033
	C-108.2950821,472.3714294-137,443.6665039-137,408.2572021v-70.400116
	C-137,302.4477844-108.2950821,273.7428589-72.8857803,273.7428589h139.542923H-72.8857803z M-76.6571426,520.2571411h139.542923
	C98.2950821,520.2571411,127,491.5522156,127,456.1429138v-70.400116c0-35.4093018-28.7049179-64.1142273-64.1142273-64.1142273
	H-12.542923c-35.4093094,0-64.1142197,28.7049255-64.1142197,64.1142273v0.000061v-0.000061
	c0-35.4093018,28.7049141-64.1142273,64.1142197-64.1142273h75.4286957C98.2950821,321.6285706,127,350.3334961,127,385.7427979
	v70.400116c0,35.4093018-28.7049179,64.1142273-64.1142273,64.1142273H-76.6571426z"/>
</svg>
