<?xml version="1.0" encoding="utf-8"?>
<!-- Generator: Adobe Illustrator 19.0.0, SVG Export Plug-In . SVG Version: 6.00 Build 0)  -->
<svg version="1.1" id="Layer_1" xmlns="http://www.w3.org/2000/svg" xmlns:xlink="http://www.w3.org/1999/xlink" x="0px" y="0px"
	 width="300px" height="300px" viewBox="-155 247 300 300" style="enable-background:new -155 247 300 300;" xml:space="preserve">
<style type="text/css">
	.st0{fill:none;stroke:#016ecf;stroke-width:8;stroke-linecap:round;stroke-linejoin:round;stroke-miterlimit:10;}
</style>
<g>
	<polygon class="st0" points="-52.3616371,271.2999268 -26.2069454,324.2951355 32.2767258,332.7933044 -10.0424557,374.0443115 
		-0.0522523,432.2916565 -52.3616371,404.7909851 -104.6710205,432.2916565 -94.6808167,374.0443115 -137,332.7933044 
		-78.5163269,324.2951355 	"/>
	<polygon class="st0" points="83,378.0071106 96.5967484,405.5571289 127,409.9749756 105,431.4196777 110.1934967,461.7000732 
		83,447.403595 55.8065033,461.7000732 61,431.4196777 39,409.9749756 69.4032516,405.5571289 	"/>
	<polygon class="st0" points="-39.3806305,453.5 -28.1383991,476.2792664 -3,479.9320679 -21.1903152,497.6632385 
		-16.8961658,522.7000732 -39.3806305,510.879303 -61.8651009,522.7000732 -57.5709496,497.6632385 -75.761261,479.9320679 
		-50.6228676,476.2792664 	"/>
</g>
</svg>
