<?xml version="1.0" encoding="utf-8"?>
<!-- Generator: Adobe Illustrator 19.0.0, SVG Export Plug-In . SVG Version: 6.00 Build 0)  -->
<svg version="1.1" id="Layer_1" xmlns="http://www.w3.org/2000/svg" xmlns:xlink="http://www.w3.org/1999/xlink" x="0px" y="0px"
	 width="300px" height="300px" viewBox="-155 247 300 300" style="enable-background:new -155 247 300 300;" xml:space="preserve">
<style type="text/css">
	.st0{fill:#016ECF;}
</style>
<path class="st0" d="M115.5463257,417.9737549l-21.2698364-15.1928101L43.0979004,293.6555176
	c-7.3167114-15.6009521-22.9942627-25.5644531-40.225708-25.5644531h-110.7293701
	c-4.8413696,0-8.7660522,3.9246826-8.7660522,8.7660522v24.2993164h70.7196655c4.3413696,0,8.132019,3.2762451,8.4123535,7.6085815
	c0.3071899,4.7471313-3.4519653,8.6928711-8.1331177,8.6928711h-76.3998413c-4.1604004,0-7.7885132,3.2059937-7.9130859,7.364502
	c-0.1289063,4.3028564,3.3207397,7.8314819,7.5945435,7.8314819h70.0281372c4.3413696,0,8.132019,3.2762451,8.4123535,7.6085815
	c0.3071899,4.7471313-3.4519653,8.6928711-8.1331177,8.6928711h-46.555481c-4.1602783,0-7.788269,3.2058105-7.9130859,7.3642578
	c-0.1291504,4.3029175,3.3205566,7.8317261,7.5944824,7.8317261h40.1838379c4.3413696,0,8.132019,3.2762451,8.4123535,7.6085815
	c0.3071289,4.7471313-3.4520264,8.6928711-8.1331177,8.6928711h-70.6370239c-4.1602783,0-7.788208,3.2058105-7.9130859,7.3641968
	c-0.1292114,4.3029175,3.3205566,7.8318481,7.5944824,7.8318481h64.2648926c4.3409424,0,8.1315308,3.2753906,8.4126587,7.6072388
	c0.3080444,4.7470703-3.451355,8.6941528-8.1329346,8.6941528H-116.62323v63.5717773
	c0,4.8414307,3.9246826,8.7661133,8.7660522,8.7661133H12.9139404c-1.0064087,4.9237671-1.0819702,9.9434204-0.1331177,14.7678833
	c1.7889404,9.0969238,6.9846191,16.776001,14.6299438,21.6234741c5.5916748,3.5440674,11.9892578,5.2305298,18.5032349,5.2294922
	c12.8260498-0.0009766,26.0878906-6.5418701,34.4395752-18.3022461c5.00354-7.0485229,7.6948242-15.2463379,7.7941895-23.3186035
	h16.1621094c8.3838501,0,15.6022339-5.9176636,17.24646-14.1387329l4.911499-24.5574341
	C128.5784302,435.0388794,124.3037109,424.2290649,115.5463257,417.9737549z M67.0618896,498.168457
	c-7.6532593,10.7784424-21.5219727,14.7005615-30.9223633,8.7427368c-4.9101563-3.1122437-6.7139893-7.7009888-7.3637085-11.0012817
	c-0.7363281-3.7456055-0.3683472-7.7607422,0.9974365-11.6218262c0.8045044-2.274353,1.9539795-4.4954834,3.4311523-6.5759888
	c5.227478-7.3637085,13.3563232-11.5266113,20.9797363-11.5266113c3.5350952,0,6.9636841,0.8964233,9.9406128,2.7849121
	c0.0009766,0,0.0009766,0,0.0009766,0c4.9101563,3.1121826,6.7139893,7.7009888,7.3637085,11.0012207
	c0.2767944,1.40802,0.3924561,2.8547363,0.3631592,4.3164673C71.7580566,489.0053711,70.1032715,493.8843994,67.0618896,498.168457z
	 M39.3418579,402.7809448c-14.1691284,0-24.7800903-12.9881592-21.9540405-26.8726807l13.3486328-65.5823975l44.1820679,92.4550781
	H39.3418579z"/>
</svg>
