<?xml version="1.0" encoding="utf-8"?>
<!-- Generator: Adobe Illustrator 19.0.0, SVG Export Plug-In . SVG Version: 6.00 Build 0)  -->
<svg version="1.1" id="Layer_1" xmlns="http://www.w3.org/2000/svg" xmlns:xlink="http://www.w3.org/1999/xlink" x="0px" y="0px"
	 width="300px" height="300px" viewBox="-155 247 300 300" style="enable-background:new -155 247 300 300;" xml:space="preserve">
<style type="text/css">
	.st0{fill:#016ECF;}
</style>
<g>
	<path class="st0" d="M1.374879,323c11.459527,0,20.7493038,9.2897644,20.7493038,20.7492981
		s-9.2897778,20.7492676-20.7493038,20.7492676s-20.7493057-9.2897339-20.7493057-20.7492676S-10.0846472,323,1.374879,323z
		 M23.6043739,436.0372314C18.8339005,446.2197266,12.9128437,452.9487,8.9253817,456.8417664
		c-9.0406504,8.8265686-19.565136,14.2122803-27.0741882,14.1578369c-2.3099537-0.0167542-4.2240868-0.581665-4.4374313-0.6467285
		c-3.7713451-1.1504211-7.0736256-3.8354797-9.9072094-8.0529785c-3.8973236-5.7989197-5.8439445-13.0826416-5.8439445-21.8484802
		c0-17.2298889,3.3208389-32.5186768,13.9620399-61.8684998c1.9057617-5.2562866,6.4216137-9.1440735,11.904891-10.2366333
		h0.0000525c11.9366474-2.3783875,22.0415592,8.9329834,18.337492,20.5270081c0,0-11.2654171,37.1898193-11.2654171,44.5387878
		c0,2.921936,0.6413927,5.291687,1.9254851,7.1054688c1.2826803,1.8156738,2.899868,2.7225647,4.8478489,2.7225647
		c3.4535265,0,6.9267759-1.2615967,10.425765-3.784729c3.4971581-2.5240784,9.0093651-7.9903564,16.536623-16.4033813
		C26.7597008,427.3804016,25.1820107,431.7088318,23.6043739,436.0372314z"/>
	<path class="st0" d="M-5,265c-72.7849731,0-132,59.2150269-132,132S-77.7849731,529-5,529s132-59.2150269,132-132
		S67.7849731,265-5,265z M-5,499c-56.242981,0-102-45.757019-102-102S-61.242981,295-5,295S97,340.757019,97,397
		S51.242981,499-5,499z"/>
</g>
</svg>
