<?xml version="1.0" encoding="utf-8"?>
<!-- Generator: Adobe Illustrator 19.0.0, SVG Export Plug-In . SVG Version: 6.00 Build 0)  -->
<svg version="1.1" id="Layer_1" xmlns="http://www.w3.org/2000/svg" xmlns:xlink="http://www.w3.org/1999/xlink" x="0px" y="0px"
	 width="300px" height="300px" viewBox="-155 247 300 300" style="enable-background:new -155 247 300 300;" xml:space="preserve">
<style type="text/css">
	.st0{fill:none;stroke:#016ecf;stroke-width:8;stroke-linecap:round;stroke-linejoin:round;stroke-miterlimit:10;}
</style>
<g id="XMLID_4_">
	<path id="XMLID_7_" class="st0" d="M-137,380.0087891c0.0000153,24.3227844,19.7235718,44.0326843,44.0463562,44.0056152
		c0.4956665-0.0005493,0.9940643-0.0011292,1.4953613-0.0016785c25.2199554-0.8102112,59.9059105,0.7011719,99.6462479,10.6221924
		c37.4047241,9.3379517,67.2200623,23.1135254,88.5182724,34.9550171V292.4998779
		c-20.2814102,9.8186951-45.0013161,19.8541565-73.8495178,27.8200378
		c-42.8906822,11.8434143-81.1339188,15.3087463-110.7742767,15.6803589h-5.0740128
		C-117.2967529,336.0002747-137,355.7035217-137,380.0086975V380.0087891z"/>
	<path id="XMLID_6_" class="st0" d="M-70.8004761,335.4082336c0,29.8233643,0,58.6713562,0,88.4947205
		c-0.1174774,7.7512207,0.6351624,26.63974,12.5836182,46.2364197
		c11.2809601,18.5018921,26.4992886,27.7247009,33.3840256,31.3607483"/>
	<path id="XMLID_8_" class="st0" d="M-87.9175644,335.9585266h-5.0740128C-117.2967529,335.9585266-137,355.6617432-137,379.9669189
		v0.0002747c0.0000153,24.3226624,19.7234955,44.0325012,44.0461578,44.0053711
		c0.4957275-0.0005493,0.9941788-0.0010986,1.4955444-0.0016479c6.3152542-0.2028809,13.2247086-0.2598877,20.6578064-0.0760193
		v-88.4866638C-76.7760086,335.7157898-82.4939117,335.8904724-87.9175644,335.9585266z"/>
	<path id="XMLID_5_" class="st0" d="M96.7062378,348.7511597c17.83535,0,32.2937622,14.4584045,32.2937622,32.2937622
		c0,17.8353271-14.4584122,32.2937317-32.2937622,32.2937317"/>
</g>
</svg>
