<?xml version="1.0" encoding="utf-8"?>
<!-- Generator: Adobe Illustrator 19.0.0, SVG Export Plug-In . SVG Version: 6.00 Build 0)  -->
<svg version="1.1" id="Layer_1" xmlns="http://www.w3.org/2000/svg" xmlns:xlink="http://www.w3.org/1999/xlink" x="0px" y="0px"
	 width="1348.1696777px" height="679.6140137px" viewBox="368 54.3860474 1348.1696777 679.6140137"
	 style="enable-background:new 368 54.3860474 1348.1696777 679.6140137;" xml:space="preserve">
<style type="text/css">
	.st0{opacity:0.2;enable-background:new    ;}
	.st1{fill:url(#SVGID_1_);}
</style>
<g>
	<path class="st0" d="M670.0777588,618.5734863c6.8647461,3.4226074,30.5834961,15.7126465,42.2718506,42.9321289
		c1.5330811,3.5700684,6.9384766,16.8969727,6.4162598,35.065918c-0.4806519,16.725647-5.6436768,25.6734009-11.9032593,37.4284668
		h2.3831177h1001.9239502V59.3860474H370.6190796c-5.1408081,143.3591309-2.3722534,248.4802246,5.3245239,277.7277832
		c4.5605469,17.329834,12.7776489,30.5664063,12.7776489,30.5664063
		c10.1906738,16.5134277,22.6241455,26.3088379,34.7945557,35.7248535c15.1454468,11.7175293,16.1329346,9.3999023,34,22.25
		c16.8291626,12.1035156,28.6564331,20.6096191,39.3338623,35.2907715
		c7.1377563,9.8139648,13.4326782,19.3208008,19.930603,40.5305176
		c3.6917725,12.0504761,7.5739746,23.9425659,13.5098877,35.1325073
		c12.9019775,24.3220215,31.0098877,38.9377441,36.2858887,42.8652344
		c17.5916748,13.0947266,37.2910156,18.8735352,76.6898193,30.4309082
		C659.5725098,614.6884766,662.3496094,614.720459,670.0777588,618.5734863z"/>
	
		<linearGradient id="SVGID_1_" gradientUnits="userSpaceOnUse" x1="723.067749" y1="-158.5731201" x2="1360.6040039" y2="945.6720581" gradientTransform="matrix(1 0 0 -1 0 794.7720947)">
		<stop  offset="0" style="stop-color:#7F44E4"/>
		<stop  offset="0.71" style="stop-color:#137FDC"/>
		<stop  offset="1" style="stop-color:#137FDC"/>
	</linearGradient>
	<path class="st1" d="M717.3496094,656.5056152c1.5330811,3.5700684,6.9384766,16.8969727,6.4162598,35.065918
		C723.2195435,710.5819092,716.625,719.5424805,709.2457275,734h1006.9239502V54.3860474H375.6191101
		c-5.1408691,143.3591309-2.3722534,248.4802246,5.3245239,277.7277832
		c4.5605469,17.329834,12.7776489,30.5664063,12.7776489,30.5664063
		c10.1906738,16.5134277,22.6241455,26.3088379,34.7945557,35.7248535c15.1454468,11.7175293,16.1329346,9.3999023,34,22.25
		c16.8291626,12.1035156,28.6564331,20.6096191,39.3338623,35.2907715
		c7.1377563,9.8139648,13.4326477,19.3208008,19.9305725,40.5305176
		c3.6917725,12.0505371,7.5739746,23.9425659,13.5098877,35.1325073
		c12.9019775,24.3220215,31.0098877,38.9377441,36.2858887,42.8652344
		c17.5916748,13.0947266,37.2910156,18.8735352,76.6898193,30.4309082
		c16.3066406,4.7834473,19.0837402,4.8154297,26.8118896,8.668457
		C681.9425049,616.9960938,705.6612549,629.2861328,717.3496094,656.5056152z"/>
</g>
</svg>
