<?xml version="1.0" encoding="utf-8"?>
<!-- Generator: Adobe Illustrator 19.0.0, SVG Export Plug-In . SVG Version: 6.00 Build 0)  -->
<svg version="1.1" id="Layer_1" xmlns="http://www.w3.org/2000/svg" xmlns:xlink="http://www.w3.org/1999/xlink" x="0px" y="0px"
	 width="362.666687px" height="233.666687px" viewBox="0 0 362.666687 233.666687"
	 style="enable-background:new 0 0 362.666687 233.666687;" xml:space="preserve">
<style type="text/css">
	.st0{fill:#3C91CE;}
	.st1{fill:#F8C414;}
	.st2{fill:#F9A65B;}
	.st3{fill:#FFFFFF;}
	.st4{fill:#2581BB;}
	.st5{fill:#499FD7;}
</style>
<g id="XMLID_113_">
	<g id="XMLID_4_">
		<path id="XMLID_112_" class="st0" d="M348.5,0H14.166687C6.3426514,0,0,6.3426514,0,14.166687V219.5
			c0,7.8240356,6.3426514,14.166687,14.166687,14.166687H348.5c7.8240356,0,14.166687-6.3426514,14.166687-14.166687V14.166687
			C362.666687,6.3426514,356.3240356,0,348.5,0z"/>
	</g>
	<g id="XMLID_6_">
		<g id="XMLID_5_">
			<g id="XMLID_23_">
				<g id="XMLID_16_">
					<path class="st1" d="M79.8333511,84.3889084H35.166687c-2.4852829,0-4.5-2.0147171-4.5-4.5V35.2222443
						c0-2.4852829,2.0147171-4.5000019,4.5-4.5000019h44.6666641c2.4852829,0,4.5,2.014719,4.5,4.5000019v44.6666641
						C84.3333511,82.3741913,82.318634,84.3889084,79.8333511,84.3889084z"/>
				</g>
			</g>
			<g id="XMLID_19_">
				<g id="XMLID_37_">
					<path class="st2" d="M79.8331909,86.388855H35.166687c-3.5839844,0-6.5-2.9160156-6.5-6.5V35.2223511
						c0-3.5839844,2.9160156-6.5,6.5-6.5h44.6665039c3.5839844,0,6.5,2.9160156,6.5,6.5V79.888855
						C86.3331909,83.4728394,83.4171753,86.388855,79.8331909,86.388855z M35.166687,32.7223511c-1.378418,0-2.5,1.121582-2.5,2.5
						V79.888855c0,1.378418,1.121582,2.5,2.5,2.5h44.6665039c1.378418,0,2.5-1.121582,2.5-2.5V35.2223511
						c0-1.378418-1.121582-2.5-2.5-2.5H35.166687z"/>
				</g>
			</g>
		</g>
		<g id="XMLID_1_">
			<g id="XMLID_32_">
				<path class="st2" d="M64.944519,74.5553589H50.0553589c-3.1552734,0-5.722168-2.5668945-5.722168-5.722168V46.2780151
					c0-3.1552734,2.5668945-5.7226563,5.722168-5.7226563H64.944519c3.1552734,0,5.722168,2.5673828,5.722168,5.7226563v22.5551758
					C70.666687,71.9884644,68.0997925,74.5553589,64.944519,74.5553589z M50.0553589,44.5553589
					c-0.949707,0-1.722168,0.7729492-1.722168,1.7226563v22.5551758c0,0.949707,0.7724609,1.722168,1.722168,1.722168H64.944519
					c0.949707,0,1.722168-0.7724609,1.722168-1.722168V46.2780151c0-0.949707-0.7724609-1.7226563-1.722168-1.7226563H50.0553589z"
					/>
			</g>
		</g>
		<g id="XMLID_3_">
			<g id="XMLID_29_">
				<rect x="30.666687" y="47.0553589" class="st2" width="15.6665039" height="4"/>
			</g>
		</g>
		<g id="XMLID_7_">
			<g id="XMLID_27_">
				<rect x="30.666687" y="55.5553589" class="st2" width="15.6665039" height="4"/>
			</g>
		</g>
		<g id="XMLID_8_">
			<g id="XMLID_25_">
				<rect x="30.666687" y="64.0553589" class="st2" width="15.6665039" height="4"/>
			</g>
		</g>
		<g id="XMLID_13_">
			<g id="XMLID_24_">
				<rect x="68.666687" y="47.0553589" class="st2" width="15.6665039" height="4"/>
			</g>
		</g>
		<g id="XMLID_12_">
			<g id="XMLID_22_">
				<rect x="68.666687" y="55.5553589" class="st2" width="15.6665039" height="4"/>
			</g>
		</g>
		<g id="XMLID_11_">
			<g id="XMLID_21_">
				<rect x="68.666687" y="64.0553589" class="st2" width="15.6665039" height="4"/>
			</g>
		</g>
	</g>
	<g id="XMLID_9_">
		<rect id="XMLID_105_" x="30.666687" y="186.5783234" class="st3" width="168.6666718" height="10.333333"/>
	</g>
	<g id="XMLID_10_">
		<path id="XMLID_109_" class="st3" d="M299.9655151,206.3776245c-8.0683594,0-14.6318359-6.5644531-14.6318359-14.6328125
			s6.5634766-14.6328125,14.6318359-14.6328125s14.6328125,6.5644531,14.6328125,14.6328125
			S308.0338745,206.3776245,299.9655151,206.3776245z M299.9655151,179.1119995
			c-6.9648438,0-12.6318359,5.6669922-12.6318359,12.6328125s5.6669922,12.6328125,12.6318359,12.6328125
			c6.9658203,0,12.6328125-5.6669922,12.6328125-12.6328125S306.9313354,179.1119995,299.9655151,179.1119995z"/>
	</g>
	<g id="XMLID_15_">
		<path id="XMLID_106_" class="st3" d="M318.2623901,206.3776245c-8.0683594,0-14.6328125-6.5644531-14.6328125-14.6328125
			s6.5644531-14.6328125,14.6328125-14.6328125s14.6328125,6.5644531,14.6328125,14.6328125
			S326.3307495,206.3776245,318.2623901,206.3776245z M318.2623901,179.1119995
			c-6.9658203,0-12.6328125,5.6669922-12.6328125,12.6328125s5.6669922,12.6328125,12.6328125,12.6328125
			s12.6328125-5.6669922,12.6328125-12.6328125S325.2282104,179.1119995,318.2623901,179.1119995z"/>
	</g>
	<g id="XMLID_26_">
		<path id="XMLID_104_" class="st4" d="M341.166687,217.166687c-10.8416138-3.5854492-34.8386841-10.78302-75.5-14
			c-26.7070923-2.1129761-63.2791138-5.0064697-109,3.5c-19.9648438,3.7144775-47.6398315,10.7125854-88.5,14.5
			c-10.3257446,0.9570923-24.1409302,1.9545288-39.5-4.5C15.2962646,211.0478516,6.0200806,201.9943848,0,194.3938599V219.5
			c0,7.8240356,6.3426514,14.166687,14.166687,14.166687H348.5c5.9366455,0,11.0129395-3.6553345,13.1202393-8.835022
			C355.5136108,222.2686768,348.6804199,219.6515503,341.166687,217.166687z"/>
	</g>
	<g id="XMLID_20_">
		<path id="XMLID_28_" class="st5" d="M348.5,0H81.1864014C82.3345947,17.0933838,85.9949951,37.4936523,95,59
			c7.8458252,18.7377319,21.7175293,51.8668823,56.666687,72c11.262207,6.487793,35.3389893,20.3577271,66,14
			c34.6569824-7.1862793,52.5149536-34.9885254,56-40.666687c-0.8793335,8.0766602-1.2331543,22.5241699,6,37.333374
			c10.6993408,21.9057007,31.2427368,30.7696533,48,38c12.208374,5.2675781,24.0845337,8.296936,35,9.9163208V14.166687
			C362.666687,6.3426514,356.3240356,0,348.5,0z"/>
	</g>
	<g id="XMLID_14_">
		<path id="XMLID_68_" class="st3" d="M33.9625854,107.7614136h2.6621094c0.0732422,0,0.1352539,0.0258789,0.1870117,0.0766602
			c0.0512695,0.0517578,0.0771484,0.1142578,0.0771484,0.1870117v14.8720703c0,0.0737305-0.0258789,0.1357422-0.0771484,0.1870117
			c-0.0517578,0.0517578-0.1137695,0.0771484-0.1870117,0.0771484h-2.5742188c-0.0732422,0-0.1357422-0.0253906-0.1870117-0.0771484
			c-0.0512695-0.0512695-0.0766602-0.1132813-0.0766602-0.1870117v-12.0556641c0-0.0292969-0.0146484-0.0585938-0.0439453-0.0883789
			c-0.0297852-0.0288086-0.059082-0.0361328-0.0883789-0.0219727l-2.1777344,0.5942383l-0.0878906,0.0219727
			c-0.1323242,0-0.1982422-0.0805664-0.1982422-0.2421875l-0.065918-1.8920898c0-0.1459961,0.065918-0.2490234,0.1982422-0.3076172
			l2.3095703-1.078125C33.7057495,107.7833862,33.8161011,107.7614136,33.9625854,107.7614136z"/>
		<path id="XMLID_70_" class="st3" d="M51.9147339,118.1452026c0,0.7919922-0.1323242,1.5258789-0.3959961,2.2001953
			c-0.3520508,0.9384766-0.9428711,1.671875-1.7709961,2.199707c-0.8291016,0.5283203-1.8081055,0.7919922-2.9370117,0.7919922
			c-1.1147461,0-2.09375-0.2783203-2.9370117-0.8359375c-0.84375-0.5571289-1.4487305-1.3125-1.8149414-2.265625
			c-0.2055664-0.5722656-0.3227539-1.1879883-0.3520508-1.8481445c0-0.1762695,0.0878906-0.2641602,0.2641602-0.2641602h2.5957031
			c0.1762695,0,0.2641602,0.0878906,0.2641602,0.2641602c0.0581055,0.4838867,0.1391602,0.8432617,0.2416992,1.078125
			c0.1323242,0.3813477,0.3486328,0.6782227,0.6494141,0.890625c0.300293,0.2128906,0.65625,0.3193359,1.0668945,0.3193359
			c0.8212891,0,1.3857422-0.359375,1.6938477-1.078125c0.2050781-0.4399414,0.3081055-0.953125,0.3081055-1.5400391
			c0-0.6894531-0.1098633-1.2539063-0.3300781-1.6938477c-0.3374023-0.6894531-0.9018555-1.0341797-1.6938477-1.0341797
			c-0.1616211,0-0.3300781,0.0478516-0.5063477,0.1430664c-0.1757813,0.0957031-0.3886719,0.230957-0.6376953,0.4067383
			c-0.059082,0.0444336-0.1176758,0.0664063-0.1762695,0.0664063c-0.0878906,0-0.1538086-0.0439453-0.1977539-0.1323242
			l-1.2978516-1.8256836c-0.0297852-0.0439453-0.0444336-0.0952148-0.0444336-0.1542969
			c0-0.0878906,0.0292969-0.1611328,0.0883789-0.2197266l3.4980469-3.0581055
			c0.0288086-0.0292969,0.0400391-0.0585938,0.0327148-0.0878906s-0.0327148-0.0439453-0.0771484-0.0439453h-5.1699219
			c-0.0732422,0-0.1357422-0.0258789-0.1870117-0.0771484s-0.0766602-0.1132813-0.0766602-0.1870117v-2.1342773
			c0-0.0727539,0.0253906-0.1352539,0.0766602-0.1870117c0.0512695-0.0507813,0.1137695-0.0766602,0.1870117-0.0766602h9.1743164
			c0.0732422,0,0.1352539,0.0258789,0.1870117,0.0766602c0.0512695,0.0517578,0.0766602,0.1142578,0.0766602,0.1870117v2.4204102
			c0,0.1171875-0.0512695,0.2275391-0.1538086,0.3295898l-2.8818359,2.6401367
			c-0.0297852,0.0297852-0.0405273,0.059082-0.0332031,0.0878906c0.0073242,0.0297852,0.0400391,0.0444336,0.0991211,0.0444336
			c1.2758789,0.2495117,2.1850586,1.0043945,2.7280273,2.265625
			C51.7677612,116.4879761,51.9147339,117.2653198,51.9147339,118.1452026z"/>
		<path id="XMLID_72_" class="st3" d="M58.1403198,122.0504761c-0.9384766-0.9023438-1.4077148-2.1303711-1.4077148-3.6850586
			v-5.8081055c0-1.5253906,0.4692383-2.7353516,1.4077148-3.6298828s2.2143555-1.3422852,3.828125-1.3422852
			c1.6132813,0,2.8930664,0.4477539,3.8388672,1.3422852c0.9462891,0.8945313,1.4189453,2.1044922,1.4189453,3.6298828v5.8081055
			c0,1.5546875-0.4726563,2.7827148-1.4189453,3.6850586c-0.9458008,0.9018555-2.2255859,1.3530273-3.8388672,1.3530273
			C60.3546753,123.4035034,59.0787964,122.9523315,58.1403198,122.0504761z M63.5411987,120.1364136
			c0.3886719-0.4033203,0.5830078-0.9423828,0.5830078-1.6171875v-6.0498047c0-0.6743164-0.1943359-1.2133789-0.5830078-1.6171875
			c-0.3886719-0.4033203-0.9125977-0.6049805-1.5727539-0.6049805c-0.6455078,0-1.1625977,0.2016602-1.5512695,0.6049805
			c-0.3886719,0.4038086-0.5830078,0.9428711-0.5830078,1.6171875v6.0498047c0,0.6748047,0.1943359,1.2138672,0.5830078,1.6171875
			s0.9057617,0.6049805,1.5512695,0.6049805C62.6286011,120.741394,63.1525269,120.5397339,63.5411987,120.1364136z"/>
		<path id="XMLID_75_" class="st3" d="M73.6281128,122.8532104l4.7744141-12.2978516
			c0.0288086-0.0878906,0-0.1318359-0.0883789-0.1318359h-4.1137695c-0.0737305,0-0.1098633,0.0366211-0.1098633,0.1098633
			v1.0117188c0,0.0737305-0.0258789,0.1362305-0.0771484,0.1870117c-0.0517578,0.0517578-0.1137695,0.0771484-0.1870117,0.0771484
			h-2.0019531c-0.0737305,0-0.1357422-0.0253906-0.1870117-0.0771484c-0.0517578-0.0507813-0.0771484-0.1132813-0.0771484-0.1870117
			l0.0219727-3.5200195c0-0.0727539,0.0253906-0.1352539,0.0771484-0.1870117
			c0.0512695-0.0507813,0.1132813-0.0766602,0.1870117-0.0766602h9.6137695c0.0732422,0,0.1357422,0.0258789,0.1870117,0.0766602
			c0.0512695,0.0517578,0.0771484,0.1142578,0.0771484,0.1870117v2.222168c0,0.0878906-0.0219727,0.1982422-0.065918,0.3300781
			l-4.7519531,12.3857422c-0.0439453,0.1323242-0.1469727,0.1982422-0.3081055,0.1982422h-2.75
			C73.6281128,123.1613159,73.5548706,123.0587769,73.6281128,122.8532104z"/>
		<path id="XMLID_77_" class="st3" d="M117.4074097,112.7111206v6.6220703c0,0.7919922-0.2055664,1.4926758-0.6157227,2.1010742
			c-0.4111328,0.6088867-0.9902344,1.078125-1.7382813,1.4082031s-1.605957,0.4946289-2.5737305,0.4946289
			c-0.9536133,0-1.796875-0.1645508-2.5302734-0.4946289s-1.3051758-0.7919922-1.7158203-1.3862305
			c-0.4106445-0.59375-0.6162109-1.2792969-0.6162109-2.0571289v-0.6157227c0-0.0732422,0.0258789-0.1357422,0.0771484-0.1870117
			s0.1132813-0.0771484,0.1870117-0.0771484h2.5742188c0.0732422,0,0.1352539,0.0258789,0.1870117,0.0771484
			c0.0512695,0.0512695,0.0766602,0.1137695,0.0766602,0.1870117v0.1977539c0,0.484375,0.1650391,0.8876953,0.4951172,1.2099609
			c0.3300781,0.3227539,0.7514648,0.484375,1.2651367,0.484375c0.5424805,0,0.9824219-0.1650391,1.3198242-0.4951172
			s0.5058594-0.7514648,0.5058594-1.2651367v-2.0458984c0-0.0439453-0.0146484-0.0732422-0.0439453-0.0878906
			s-0.0585938-0.0073242-0.0878906,0.0219727c-0.6015625,0.5136719-1.3935547,0.7700195-2.3759766,0.7700195
			c-0.8798828,0-1.668457-0.2016602-2.3647461-0.6049805c-0.6967773-0.4033203-1.2431641-0.9863281-1.6391602-1.7490234
			c-0.3666992-0.6894531-0.550293-1.5327148-0.550293-2.5302734c0-0.8652344,0.1464844-1.6279297,0.4404297-2.2875977
			c0.3662109-0.8652344,0.9570313-1.5473633,1.7709961-2.0463867c0.8139648-0.4980469,1.7709961-0.7480469,2.8706055-0.7480469
			c1.1147461,0,2.0864258,0.2607422,2.9150391,0.78125s1.4262695,1.2431641,1.7929688,2.1669922
			C117.2828979,111.1569214,117.4074097,111.8751831,117.4074097,112.7111206z M113.975769,114.0753784
			c0.2197266-0.3813477,0.3295898-0.8725586,0.3295898-1.4741211c0-0.4838867-0.0952148-0.9311523-0.2856445-1.3417969
			c-0.3227539-0.6455078-0.8803711-0.9682617-1.6723633-0.9682617c-0.7626953,0-1.3198242,0.3227539-1.671875,0.9682617
			c-0.2197266,0.4106445-0.3300781,0.8725586-0.3300781,1.3857422c0,0.5576172,0.1245117,1.0415039,0.3740234,1.4521484
			c0.3666992,0.5869141,0.9023438,0.8798828,1.605957,0.8798828
			C113.0880737,114.9772339,113.6378784,114.6769409,113.975769,114.0753784z"/>
		<path id="XMLID_80_" class="st3" d="M124.4035034,107.7614136h2.6621094c0.0732422,0,0.1352539,0.0258789,0.1870117,0.0766602
			c0.0512695,0.0517578,0.0771484,0.1142578,0.0771484,0.1870117v14.8720703c0,0.0737305-0.0258789,0.1357422-0.0771484,0.1870117
			c-0.0517578,0.0517578-0.1137695,0.0771484-0.1870117,0.0771484h-2.5742188c-0.0732422,0-0.1357422-0.0253906-0.1870117-0.0771484
			c-0.0512695-0.0512695-0.0766602-0.1132813-0.0766602-0.1870117v-12.0556641c0-0.0292969-0.0146484-0.0585938-0.0439453-0.0883789
			c-0.0297852-0.0288086-0.059082-0.0361328-0.0883789-0.0219727l-2.1777344,0.5942383l-0.0878906,0.0219727
			c-0.1323242,0-0.1982422-0.0805664-0.1982422-0.2421875l-0.065918-1.8920898c0-0.1459961,0.065918-0.2490234,0.1982422-0.3076172
			l2.3095703-1.078125C124.1466675,107.7833862,124.257019,107.7614136,124.4035034,107.7614136z"/>
		<path id="XMLID_82_" class="st3" d="M135.2052612,107.7614136h2.6621094c0.0732422,0,0.1352539,0.0258789,0.1870117,0.0766602
			c0.0512695,0.0517578,0.0771484,0.1142578,0.0771484,0.1870117v14.8720703c0,0.0737305-0.0258789,0.1357422-0.0771484,0.1870117
			c-0.0517578,0.0517578-0.1137695,0.0771484-0.1870117,0.0771484h-2.5742188c-0.0732422,0-0.1357422-0.0253906-0.1870117-0.0771484
			c-0.0512695-0.0512695-0.0766602-0.1132813-0.0766602-0.1870117v-12.0556641c0-0.0292969-0.0146484-0.0585938-0.0439453-0.0883789
			c-0.0297852-0.0288086-0.059082-0.0361328-0.0883789-0.0219727l-2.1777344,0.5942383l-0.0878906,0.0219727
			c-0.1323242,0-0.1982422-0.0805664-0.1982422-0.2421875l-0.065918-1.8920898c0-0.1459961,0.065918-0.2490234,0.1982422-0.3076172
			l2.3095703-1.078125C134.9484253,107.7833862,135.0587769,107.7614136,135.2052612,107.7614136z"/>
		<path id="XMLID_84_" class="st3" d="M153.1569214,118.1452026c0,0.7919922-0.1323242,1.5258789-0.3959961,2.2001953
			c-0.3520508,0.9384766-0.9428711,1.671875-1.7709961,2.199707c-0.8291016,0.5283203-1.8081055,0.7919922-2.9370117,0.7919922
			c-1.1147461,0-2.09375-0.2783203-2.9370117-0.8359375c-0.84375-0.5571289-1.4487305-1.3125-1.8149414-2.265625
			c-0.2055664-0.5722656-0.3227539-1.1879883-0.3520508-1.8481445c0-0.1762695,0.0878906-0.2641602,0.2641602-0.2641602h2.5957031
			c0.1762695,0,0.2641602,0.0878906,0.2641602,0.2641602c0.0581055,0.4838867,0.1391602,0.8432617,0.2416992,1.078125
			c0.1323242,0.3813477,0.3486328,0.6782227,0.6494141,0.890625c0.300293,0.2128906,0.65625,0.3193359,1.0668945,0.3193359
			c0.8212891,0,1.3857422-0.359375,1.6938477-1.078125c0.2050781-0.4399414,0.3081055-0.953125,0.3081055-1.5400391
			c0-0.6894531-0.1098633-1.2539063-0.3300781-1.6938477c-0.3374023-0.6894531-0.9018555-1.0341797-1.6938477-1.0341797
			c-0.1616211,0-0.3300781,0.0478516-0.5063477,0.1430664c-0.1757813,0.0957031-0.3886719,0.230957-0.6376953,0.4067383
			c-0.059082,0.0444336-0.1176758,0.0664063-0.1762695,0.0664063c-0.0878906,0-0.1538086-0.0439453-0.1977539-0.1323242
			l-1.2978516-1.8256836c-0.0297852-0.0439453-0.0444336-0.0952148-0.0444336-0.1542969
			c0-0.0878906,0.0292969-0.1611328,0.0883789-0.2197266l3.4980469-3.0581055
			c0.0288086-0.0292969,0.0400391-0.0585938,0.0327148-0.0878906s-0.0327148-0.0439453-0.0771484-0.0439453h-5.1699219
			c-0.0732422,0-0.1357422-0.0258789-0.1870117-0.0771484s-0.0766602-0.1132813-0.0766602-0.1870117v-2.1342773
			c0-0.0727539,0.0253906-0.1352539,0.0766602-0.1870117c0.0512695-0.0507813,0.1137695-0.0766602,0.1870117-0.0766602h9.1743164
			c0.0732422,0,0.1352539,0.0258789,0.1870117,0.0766602c0.0512695,0.0517578,0.0766602,0.1142578,0.0766602,0.1870117v2.4204102
			c0,0.1171875-0.0512695,0.2275391-0.1538086,0.3295898l-2.8818359,2.6401367
			c-0.0297852,0.0297852-0.0405273,0.059082-0.0332031,0.0878906c0.0073242,0.0297852,0.0400391,0.0444336,0.0991211,0.0444336
			c1.2758789,0.2495117,2.1850586,1.0043945,2.7280273,2.265625
			C153.0099487,116.4879761,153.1569214,117.2653198,153.1569214,118.1452026z"/>
		<path id="XMLID_86_" class="st3" d="M181.1622925,122.0504761c-0.9384766-0.9023438-1.4077148-2.1303711-1.4077148-3.6850586
			v-5.8081055c0-1.5253906,0.4692383-2.7353516,1.4077148-3.6298828s2.2143555-1.3422852,3.828125-1.3422852
			c1.6132813,0,2.8930664,0.4477539,3.8388672,1.3422852c0.9462891,0.8945313,1.4189453,2.1044922,1.4189453,3.6298828v5.8081055
			c0,1.5546875-0.4726563,2.7827148-1.4189453,3.6850586c-0.9458008,0.9018555-2.2255859,1.3530273-3.8388672,1.3530273
			C183.3766479,123.4035034,182.100769,122.9523315,181.1622925,122.0504761z M186.5631714,120.1364136
			c0.3886719-0.4033203,0.5830078-0.9423828,0.5830078-1.6171875v-6.0498047c0-0.6743164-0.1943359-1.2133789-0.5830078-1.6171875
			c-0.3886719-0.4033203-0.9125977-0.6049805-1.5727539-0.6049805c-0.6455078,0-1.1625977,0.2016602-1.5512695,0.6049805
			c-0.3886719,0.4038086-0.5830078,0.9428711-0.5830078,1.6171875v6.0498047c0,0.6748047,0.1943359,1.2138672,0.5830078,1.6171875
			s0.9057617,0.6049805,1.5512695,0.6049805C185.6505737,120.741394,186.1744995,120.5397339,186.5631714,120.1364136z"/>
		<path id="XMLID_89_" class="st3" d="M205.2741089,118.2330933c0,0.7480469-0.1171875,1.4228516-0.3520508,2.0244141
			c-0.3374023,0.9384766-0.9311523,1.6826172-1.7817383,2.2329102c-0.8505859,0.5498047-1.8481445,0.824707-2.9921875,0.824707
			c-1.1147461,0-2.09375-0.2670898-2.9370117-0.8027344c-0.8432617-0.5351563-1.440918-1.2651367-1.7929688-2.1889648
			c-0.1464844-0.3813477-0.2568359-0.784668-0.3300781-1.2099609v-0.0439453c0-0.1616211,0.0883789-0.2421875,0.2641602-0.2421875
			h2.6621094c0.1464844,0,0.2416992,0.0805664,0.2861328,0.2421875c0.0141602,0.0878906,0.0361328,0.1611328,0.065918,0.2197266
			c0.0292969,0.059082,0.0512695,0.1098633,0.065918,0.1542969c0.1464844,0.3813477,0.3662109,0.6743164,0.6601563,0.8798828
			c0.2929688,0.2055664,0.6376953,0.3081055,1.0336914,0.3081055c0.4106445,0,0.7700195-0.1103516,1.078125-0.3300781
			c0.3081055-0.2202148,0.5351563-0.5283203,0.6821289-0.9243164c0.1464844-0.2929688,0.2197266-0.6743164,0.2197266-1.144043
			c0-0.4248047-0.065918-0.8061523-0.1977539-1.1435547c-0.1030273-0.3813477-0.3081055-0.6748047-0.6162109-0.8803711
			c-0.3081055-0.2050781-0.6674805-0.3076172-1.078125-0.3076172s-0.7919922,0.0952148-1.1435547,0.2856445
			c-0.3520508,0.190918-0.5869141,0.4399414-0.7041016,0.7480469c-0.0439453,0.1469727-0.1396484,0.2202148-0.2861328,0.2202148
			h-2.7060547c-0.0737305,0-0.1357422-0.0253906-0.1870117-0.0771484c-0.0512695-0.0512695-0.0771484-0.1132813-0.0771484-0.1870117
			v-8.8662109c0-0.0727539,0.0258789-0.1352539,0.0771484-0.1870117c0.0512695-0.0507813,0.1132813-0.0766602,0.1870117-0.0766602
			h9.0859375c0.0732422,0,0.1357422,0.0258789,0.1870117,0.0766602c0.0512695,0.0517578,0.0771484,0.1142578,0.0771484,0.1870117
			v2.1342773c0,0.0737305-0.0258789,0.1357422-0.0771484,0.1870117s-0.1137695,0.0771484-0.1870117,0.0771484h-6.1376953
			c-0.0737305,0-0.1103516,0.0366211-0.1103516,0.1098633l-0.0219727,3.2558594c0,0.1030273,0.0439453,0.125,0.1323242,0.065918
			c0.659668-0.425293,1.4223633-0.6376953,2.2875977-0.6376953c1.0268555,0,1.925293,0.2602539,2.6953125,0.7807617
			c0.7700195,0.5209961,1.315918,1.2358398,1.6386719,2.1450195
			C205.1642456,116.8619995,205.2741089,117.5587769,205.2741089,118.2330933z"/>
		<path id="XMLID_91_" class="st3" d="M219.5958862,112.7111206v6.6220703c0,0.7919922-0.2055664,1.4926758-0.6157227,2.1010742
			c-0.4111328,0.6088867-0.9902344,1.078125-1.7382813,1.4082031s-1.605957,0.4946289-2.5737305,0.4946289
			c-0.9536133,0-1.796875-0.1645508-2.5302734-0.4946289s-1.3051758-0.7919922-1.7158203-1.3862305
			c-0.4106445-0.59375-0.6162109-1.2792969-0.6162109-2.0571289v-0.6157227c0-0.0732422,0.0258789-0.1357422,0.0771484-0.1870117
			s0.1132813-0.0771484,0.1870117-0.0771484h2.5742188c0.0732422,0,0.1352539,0.0258789,0.1870117,0.0771484
			c0.0512695,0.0512695,0.0766602,0.1137695,0.0766602,0.1870117v0.1977539c0,0.484375,0.1650391,0.8876953,0.4951172,1.2099609
			c0.3300781,0.3227539,0.7514648,0.484375,1.2651367,0.484375c0.5424805,0,0.9824219-0.1650391,1.3198242-0.4951172
			s0.5058594-0.7514648,0.5058594-1.2651367v-2.0458984c0-0.0439453-0.0146484-0.0732422-0.0439453-0.0878906
			s-0.0585938-0.0073242-0.0878906,0.0219727c-0.6015625,0.5136719-1.3935547,0.7700195-2.3759766,0.7700195
			c-0.8798828,0-1.668457-0.2016602-2.3647461-0.6049805c-0.6967773-0.4033203-1.2431641-0.9863281-1.6391602-1.7490234
			c-0.3666992-0.6894531-0.550293-1.5327148-0.550293-2.5302734c0-0.8652344,0.1464844-1.6279297,0.4404297-2.2875977
			c0.3662109-0.8652344,0.9570313-1.5473633,1.7709961-2.0463867c0.8139648-0.4980469,1.7709961-0.7480469,2.8706055-0.7480469
			c1.1147461,0,2.0864258,0.2607422,2.9150391,0.78125s1.4262695,1.2431641,1.7929688,2.1669922
			C219.4713745,111.1569214,219.5958862,111.8751831,219.5958862,112.7111206z M216.1642456,114.0753784
			c0.2197266-0.3813477,0.3295898-0.8725586,0.3295898-1.4741211c0-0.4838867-0.0952148-0.9311523-0.2856445-1.3417969
			c-0.3227539-0.6455078-0.8803711-0.9682617-1.6723633-0.9682617c-0.7626953,0-1.3198242,0.3227539-1.671875,0.9682617
			c-0.2197266,0.4106445-0.3300781,0.8725586-0.3300781,1.3857422c0,0.5576172,0.1245117,1.0415039,0.3740234,1.4521484
			c0.3666992,0.5869141,0.9023438,0.8798828,1.605957,0.8798828
			C215.2765503,114.9772339,215.826355,114.6769409,216.1642456,114.0753784z"/>
		<path id="XMLID_94_" class="st3" d="M228.5060425,120.4552612c0.0146484,0.0297852,0.0439453,0.0439453,0.0878906,0.0439453
			h5.9619141c0.0732422,0,0.1357422,0.0258789,0.1870117,0.0771484c0.0512695,0.0517578,0.0771484,0.1137695,0.0771484,0.1870117
			v2.1337891c0,0.0737305-0.0258789,0.1357422-0.0771484,0.1870117c-0.0512695,0.0517578-0.1137695,0.0771484-0.1870117,0.0771484
			h-9.8999023c-0.0732422,0-0.1357422-0.0253906-0.1870117-0.0771484c-0.0512695-0.0512695-0.0766602-0.1132813-0.0766602-0.1870117
			V120.87323c0-0.1318359,0.0439453-0.2416992,0.1318359-0.3300781c0.7182617-0.7036133,1.4521484-1.4702148,2.199707-2.2988281
			c0.7480469-0.8286133,1.2172852-1.3452148,1.4082031-1.5507813c0.4106445-0.484375,0.8286133-0.9462891,1.2539063-1.3862305
			c1.3344727-1.4814453,2.0019531-2.5810547,2.0019531-3.2998047c0-0.5131836-0.1835938-0.9350586-0.5498047-1.2651367
			c-0.3666992-0.3300781-0.84375-0.4951172-1.4301758-0.4951172s-1.0634766,0.1650391-1.4296875,0.4951172
			c-0.3671875,0.3300781-0.550293,0.7666016-0.550293,1.309082v0.5498047c0,0.0737305-0.0258789,0.1357422-0.0766602,0.1870117
			c-0.0517578,0.0517578-0.1137695,0.0771484-0.1870117,0.0771484h-2.5961914c-0.0737305,0-0.1357422-0.0253906-0.1870117-0.0771484
			c-0.0517578-0.0512695-0.0771484-0.1132813-0.0771484-0.1870117v-1.0341797
			c0.0439453-0.7919922,0.293457-1.4921875,0.7480469-2.1005859s1.0595703-1.0742188,1.8149414-1.3969727
			s1.6025391-0.484375,2.5410156-0.484375c1.0415039,0,1.9472656,0.1948242,2.7172852,0.5830078
			c0.7700195,0.3891602,1.3637695,0.9130859,1.7817383,1.5732422s0.6269531,1.3935547,0.6269531,2.199707
			c0,0.6162109-0.1538086,1.2470703-0.4619141,1.8920898c-0.3081055,0.6455078-0.7700195,1.3422852-1.3857422,2.090332
			c-0.4550781,0.5717773-0.9462891,1.1367188-1.4741211,1.6938477c-0.527832,0.5576172-1.3129883,1.3637695-2.3540039,2.4199219
			l-0.3300781,0.3300781C228.4987183,120.3966675,228.491394,120.4259644,228.5060425,120.4552612z"/>
		<path id="XMLID_96_" class="st3" d="M265.4655151,120.4552612c0.0146484,0.0297852,0.0439453,0.0439453,0.0878906,0.0439453
			h5.9619141c0.0732422,0,0.1357422,0.0258789,0.1870117,0.0771484c0.0512695,0.0517578,0.0771484,0.1137695,0.0771484,0.1870117
			v2.1337891c0,0.0737305-0.0258789,0.1357422-0.0771484,0.1870117c-0.0512695,0.0517578-0.1137695,0.0771484-0.1870117,0.0771484
			h-9.8999023c-0.0732422,0-0.1357422-0.0253906-0.1870117-0.0771484c-0.0512695-0.0512695-0.0766602-0.1132813-0.0766602-0.1870117
			V120.87323c0-0.1318359,0.0439453-0.2416992,0.1318359-0.3300781c0.7182617-0.7036133,1.4521484-1.4702148,2.199707-2.2988281
			c0.7480469-0.8286133,1.2172852-1.3452148,1.4082031-1.5507813c0.4106445-0.484375,0.8286133-0.9462891,1.2539063-1.3862305
			c1.3344727-1.4814453,2.0019531-2.5810547,2.0019531-3.2998047c0-0.5131836-0.1835938-0.9350586-0.5498047-1.2651367
			c-0.3666992-0.3300781-0.84375-0.4951172-1.4301758-0.4951172s-1.0634766,0.1650391-1.4296875,0.4951172
			c-0.3671875,0.3300781-0.550293,0.7666016-0.550293,1.309082v0.5498047c0,0.0737305-0.0258789,0.1357422-0.0766602,0.1870117
			c-0.0517578,0.0517578-0.1137695,0.0771484-0.1870117,0.0771484h-2.5961914c-0.0737305,0-0.1357422-0.0253906-0.1870117-0.0771484
			c-0.0517578-0.0512695-0.0771484-0.1132813-0.0771484-0.1870117v-1.0341797
			c0.0439453-0.7919922,0.293457-1.4921875,0.7480469-2.1005859s1.0595703-1.0742188,1.8149414-1.3969727
			s1.6025391-0.484375,2.5410156-0.484375c1.0415039,0,1.9472656,0.1948242,2.7172852,0.5830078
			c0.7700195,0.3891602,1.3637695,0.9130859,1.7817383,1.5732422s0.6269531,1.3935547,0.6269531,2.199707
			c0,0.6162109-0.1538086,1.2470703-0.4619141,1.8920898c-0.3081055,0.6455078-0.7700195,1.3422852-1.3857422,2.090332
			c-0.4550781,0.5717773-0.9462891,1.1367188-1.4741211,1.6938477c-0.527832,0.5576172-1.3129883,1.3637695-2.3540039,2.4199219
			l-0.3300781,0.3300781C265.4581909,120.3966675,265.4508667,120.4259644,265.4655151,120.4552612z"/>
		<path id="XMLID_98_" class="st3" d="M278.0494995,122.8532104l4.7744141-12.2978516
			c0.0288086-0.0878906,0-0.1318359-0.0883789-0.1318359h-4.1137695c-0.0737305,0-0.1098633,0.0366211-0.1098633,0.1098633
			v1.0117188c0,0.0737305-0.0258789,0.1362305-0.0771484,0.1870117c-0.0517578,0.0517578-0.1137695,0.0771484-0.1870117,0.0771484
			h-2.0019531c-0.0737305,0-0.1357422-0.0253906-0.1870117-0.0771484c-0.0517578-0.0507813-0.0771484-0.1132813-0.0771484-0.1870117
			l0.0219727-3.5200195c0-0.0727539,0.0253906-0.1352539,0.0771484-0.1870117
			c0.0512695-0.0507813,0.1132813-0.0766602,0.1870117-0.0766602h9.6137695c0.0732422,0,0.1357422,0.0258789,0.1875,0.0766602
			c0.0507813,0.0517578,0.0761719,0.1142578,0.0761719,0.1870117v2.222168c0,0.0878906-0.0214844,0.1982422-0.0654297,0.3300781
			l-4.7519531,12.3857422c-0.0439453,0.1323242-0.1469727,0.1982422-0.3081055,0.1982422h-2.75
			C278.0494995,123.1613159,277.9762573,123.0587769,278.0494995,122.8532104z"/>
		<path id="XMLID_100_" class="st3" d="M293.0973511,107.7614136h2.6621094c0.0732422,0,0.1357422,0.0258789,0.1865234,0.0766602
			c0.0517578,0.0517578,0.0771484,0.1142578,0.0771484,0.1870117v14.8720703c0,0.0737305-0.0253906,0.1357422-0.0771484,0.1870117
			c-0.0507813,0.0517578-0.1132813,0.0771484-0.1865234,0.0771484h-2.5742188c-0.0732422,0-0.1357422-0.0253906-0.1865234-0.0771484
			c-0.0517578-0.0512695-0.0771484-0.1132813-0.0771484-0.1870117v-12.0556641c0-0.0292969-0.0146484-0.0585938-0.0439453-0.0883789
			c-0.0292969-0.0288086-0.0585938-0.0361328-0.0878906-0.0219727l-2.1787109,0.5942383l-0.0878906,0.0219727
			c-0.1318359,0-0.1972656-0.0805664-0.1972656-0.2421875l-0.0664063-1.8920898
			c0-0.1459961,0.0664063-0.2490234,0.1982422-0.3076172l2.3095703-1.078125
			C292.8405151,107.7833862,292.9508667,107.7614136,293.0973511,107.7614136z"/>
		<path id="XMLID_102_" class="st3" d="M303.8981323,107.7614136h2.6621094c0.0732422,0,0.1357422,0.0258789,0.1865234,0.0766602
			c0.0517578,0.0517578,0.0771484,0.1142578,0.0771484,0.1870117v14.8720703c0,0.0737305-0.0253906,0.1357422-0.0771484,0.1870117
			c-0.0507813,0.0517578-0.1132813,0.0771484-0.1865234,0.0771484h-2.5742188c-0.0732422,0-0.1357422-0.0253906-0.1865234-0.0771484
			c-0.0517578-0.0512695-0.0771484-0.1132813-0.0771484-0.1870117v-12.0556641c0-0.0292969-0.0146484-0.0585938-0.0439453-0.0883789
			c-0.0292969-0.0288086-0.0585938-0.0361328-0.0878906-0.0219727l-2.1787109,0.5942383l-0.0878906,0.0219727
			c-0.1318359,0-0.1972656-0.0805664-0.1972656-0.2421875l-0.0664063-1.8920898
			c0-0.1459961,0.0664063-0.2490234,0.1982422-0.3076172l2.3095703-1.078125
			C303.6412964,107.7833862,303.7516479,107.7614136,303.8981323,107.7614136z"/>
	</g>
	<g id="XMLID_17_">
		<path id="XMLID_58_" class="st3" d="M32.8117065,150.6115112h1.5727539c0.043457,0,0.0800781,0.0151367,0.1108398,0.0454102
			c0.0302734,0.0307617,0.0454102,0.0673828,0.0454102,0.1108398v8.7880859c0,0.043457-0.0151367,0.0800781-0.0454102,0.1103516
			c-0.0307617,0.0307617-0.0673828,0.0454102-0.1108398,0.0454102h-1.5209961c-0.043457,0-0.0800781-0.0146484-0.1103516-0.0454102
			c-0.0302734-0.0302734-0.0454102-0.0668945-0.0454102-0.1103516v-7.1240234c0-0.0175781-0.0087891-0.034668-0.0258789-0.0522461
			c-0.0175781-0.0170898-0.034668-0.0214844-0.0522461-0.0131836l-1.2871094,0.3510742l-0.0517578,0.0131836
			c-0.078125,0-0.1171875-0.0473633-0.1171875-0.1430664l-0.0390625-1.1181641c0-0.0864258,0.0390625-0.1469727,0.1171875-0.1816406
			l1.3652344-0.637207C32.6598511,150.6246948,32.7247925,150.6115112,32.8117065,150.6115112z"/>
		<path id="XMLID_60_" class="st3" d="M39.194519,150.6115112h1.5727539c0.043457,0,0.0800781,0.0151367,0.1108398,0.0454102
			c0.0302734,0.0307617,0.0454102,0.0673828,0.0454102,0.1108398v8.7880859c0,0.043457-0.0151367,0.0800781-0.0454102,0.1103516
			c-0.0307617,0.0307617-0.0673828,0.0454102-0.1108398,0.0454102h-1.5209961c-0.043457,0-0.0800781-0.0146484-0.1103516-0.0454102
			c-0.0302734-0.0302734-0.0454102-0.0668945-0.0454102-0.1103516v-7.1240234c0-0.0175781-0.0087891-0.034668-0.0258789-0.0522461
			c-0.0175781-0.0170898-0.034668-0.0214844-0.0522461-0.0131836l-1.2871094,0.3510742l-0.0517578,0.0131836
			c-0.078125,0-0.1171875-0.0473633-0.1171875-0.1430664l-0.0390625-1.1181641c0-0.0864258,0.0390625-0.1469727,0.1171875-0.1816406
			l1.3652344-0.637207C39.0426636,150.6246948,39.107605,150.6115112,39.194519,150.6115112z"/>
		<path id="XMLID_62_" class="st3" d="M43.6530151,159.52948l3.3408203-8.8007813
			c0.0263672-0.078125,0.0869141-0.1171875,0.1821289-0.1171875h1.5078125c0.1303711,0,0.1733398,0.0610352,0.1303711,0.1821289
			l-3.3413086,8.8007813c-0.0258789,0.078125-0.0864258,0.1171875-0.1816406,0.1171875h-1.5083008
			C43.6530151,159.7116089,43.6095581,159.651062,43.6530151,159.52948z"/>
		<path id="XMLID_64_" class="st3" d="M54.1964722,158.1124878c0.0083008,0.0175781,0.0258789,0.0258789,0.0517578,0.0258789
			h3.5229492c0.043457,0,0.0800781,0.015625,0.1108398,0.0458984c0.0302734,0.0302734,0.0454102,0.0668945,0.0454102,0.1103516
			v1.2612305c0,0.043457-0.0151367,0.0800781-0.0454102,0.1103516c-0.0307617,0.0307617-0.0673828,0.0454102-0.1108398,0.0454102
			h-5.8496094c-0.043457,0-0.0805664-0.0146484-0.1108398-0.0454102c-0.0302734-0.0302734-0.0454102-0.0668945-0.0454102-0.1103516
			v-1.1962891c0-0.078125,0.0258789-0.1430664,0.078125-0.1948242c0.4243164-0.4160156,0.8579102-0.8686523,1.2998047-1.3583984
			s0.7192383-0.7954102,0.8320313-0.9165039c0.2426758-0.2861328,0.4897461-0.559082,0.7412109-0.8193359
			c0.7885742-0.875,1.1831055-1.5253906,1.1831055-1.949707c0-0.3032227-0.1088867-0.5527344-0.3251953-0.7475586
			c-0.2167969-0.1953125-0.4985352-0.2924805-0.8452148-0.2924805s-0.628418,0.097168-0.8447266,0.2924805
			c-0.2167969,0.1948242-0.3251953,0.4526367-0.3251953,0.7734375v0.324707c0,0.0439453-0.0151367,0.0805664-0.0454102,0.1108398
			s-0.0673828,0.0454102-0.1103516,0.0454102h-1.5341797c-0.043457,0-0.0800781-0.0151367-0.1103516-0.0454102
			c-0.0307617-0.0302734-0.0454102-0.0668945-0.0454102-0.1108398v-0.6108398
			c0.0258789-0.4677734,0.1728516-0.8818359,0.4418945-1.2412109c0.2685547-0.3598633,0.6259766-0.6347656,1.0722656-0.8256836
			c0.4462891-0.1904297,0.9467773-0.2861328,1.5014648-0.2861328c0.6152344,0,1.1508789,0.1152344,1.6054688,0.3447266
			c0.4550781,0.2294922,0.8061523,0.5395508,1.0532227,0.9291992c0.2470703,0.3901367,0.3706055,0.8237305,0.3706055,1.300293
			c0,0.3637695-0.0913086,0.7368164-0.2729492,1.1176758c-0.1821289,0.3818359-0.4550781,0.7929688-0.8193359,1.2353516
			c-0.2685547,0.3378906-0.559082,0.6713867-0.8706055,1.0009766c-0.3120117,0.3295898-0.7758789,0.8056641-1.3911133,1.4296875
			l-0.1953125,0.1953125C54.1920776,158.0783081,54.1876831,158.0953979,54.1964722,158.1124878z"/>
		<path id="XMLID_66_" class="st3" d="M66.4293823,156.7477417c0,0.4677734-0.078125,0.9013672-0.2338867,1.2998047
			c-0.2080078,0.5546875-0.5571289,0.9882813-1.0463867,1.300293c-0.4897461,0.3120117-1.0683594,0.4682617-1.7358398,0.4682617
			c-0.6586914,0-1.2368164-0.1650391-1.7353516-0.4946289c-0.4985352-0.3291016-0.855957-0.7753906-1.0722656-1.3388672
			c-0.121582-0.3378906-0.190918-0.7021484-0.2080078-1.0917969c0-0.1040039,0.0517578-0.15625,0.1557617-0.15625h1.5341797
			c0.1040039,0,0.1557617,0.0522461,0.1557617,0.15625c0.034668,0.2856445,0.0825195,0.4980469,0.1430664,0.6367188
			c0.078125,0.2255859,0.2055664,0.4008789,0.3833008,0.5263672c0.1777344,0.1259766,0.3881836,0.1884766,0.6308594,0.1884766
			c0.4853516,0,0.8188477-0.2119141,1.0009766-0.6367188c0.1210938-0.2602539,0.1821289-0.5634766,0.1821289-0.9101563
			c0-0.4072266-0.0654297-0.7407227-0.1953125-1.0009766c-0.1992188-0.4072266-0.5327148-0.6108398-1.0009766-0.6108398
			c-0.0952148,0-0.1948242,0.0283203-0.2988281,0.0844727c-0.1040039,0.0566406-0.2299805,0.1362305-0.3769531,0.2402344
			c-0.034668,0.0263672-0.0698242,0.0390625-0.1040039,0.0390625c-0.0522461,0-0.0913086-0.0258789-0.1171875-0.0776367
			l-0.7670898-1.0791016c-0.0175781-0.0258789-0.0258789-0.0561523-0.0258789-0.0913086
			c0-0.0517578,0.0170898-0.0952148,0.0517578-0.1298828l2.0673828-1.8071289
			c0.0170898-0.0170898,0.0234375-0.0341797,0.0195313-0.0517578c-0.0048828-0.0170898-0.0195313-0.0258789-0.0458984-0.0258789
			h-3.0546875c-0.043457,0-0.0805664-0.0151367-0.1103516-0.0454102c-0.0307617-0.0302734-0.0458984-0.0673828-0.0458984-0.1108398
			v-1.2607422c0-0.043457,0.0151367-0.0800781,0.0458984-0.1108398c0.0297852-0.0302734,0.0668945-0.0454102,0.1103516-0.0454102
			h5.4208984c0.043457,0,0.0800781,0.0151367,0.1103516,0.0454102c0.0302734,0.0307617,0.0458984,0.0673828,0.0458984,0.1108398
			v1.4296875c0,0.0698242-0.0307617,0.1347656-0.0913086,0.1953125l-1.703125,1.5600586
			c-0.0170898,0.0170898-0.0239258,0.034668-0.0195313,0.0517578c0.0043945,0.0175781,0.0239258,0.0258789,0.0585938,0.0258789
			c0.7539063,0.1474609,1.2915039,0.59375,1.6123047,1.3393555
			C66.3424683,155.7682495,66.4293823,156.2277222,66.4293823,156.7477417z"/>
	</g>
	<g id="XMLID_18_">
		<path id="XMLID_30_" class="st3" d="M31.5031128,145.9953003l-1.0297852-3.3803711l-0.0053711-0.0200195
			c0-0.0332031,0.0185547-0.0498047,0.0551758-0.0498047h0.6298828c0.0366211,0,0.0600586,0.0166016,0.0703125,0.0498047
			l0.6650391,2.4404297c0.0029297,0.0097656,0.0083008,0.0146484,0.0146484,0.0146484
			c0.0068359,0,0.0117188-0.0048828,0.0151367-0.0146484l0.6552734-2.4404297
			c0.0097656-0.0332031,0.0332031-0.0498047,0.0698242-0.0498047h0.6147461c0.0200195,0,0.0351563,0.0068359,0.0454102,0.0200195
			c0.0097656,0.0131836,0.0112305,0.0297852,0.0048828,0.0498047l-1.0449219,3.3803711
			c-0.0102539,0.0332031-0.0317383,0.0498047-0.0649414,0.0498047h-0.6303711
			C31.5348511,146.045105,31.5133667,146.0285034,31.5031128,145.9953003z"/>
		<path id="XMLID_35_" class="st3" d="M36.0529175,145.9953003l-0.1499023-0.4902344
			c-0.0068359-0.0131836-0.0151367-0.0200195-0.0249023-0.0200195h-1.2299805c-0.0102539,0-0.0185547,0.0068359-0.0249023,0.0200195
			l-0.1450195,0.4902344c-0.0102539,0.0332031-0.0317383,0.0498047-0.0649414,0.0498047h-0.6352539
			c-0.0200195,0-0.0351563-0.0058594-0.0449219-0.0175781c-0.0102539-0.0117188-0.0117188-0.0292969-0.0048828-0.0522461
			l1.0800781-3.3803711c0.0097656-0.0332031,0.03125-0.0498047,0.0649414-0.0498047h0.784668
			c0.0336914,0,0.0551758,0.0166016,0.0649414,0.0498047l1.0800781,3.3803711
			c0.003418,0.0063477,0.0053711,0.0146484,0.0053711,0.0249023c0,0.0297852-0.0185547,0.0449219-0.0551758,0.0449219h-0.6352539
			C36.0846558,146.045105,36.0631714,146.0285034,36.0529175,145.9953003z M34.822937,144.9401245h0.8803711
			c0.0195313,0,0.0263672-0.0102539,0.0195313-0.0297852l-0.449707-1.4853516
			c-0.003418-0.0131836-0.0083008-0.019043-0.0151367-0.0175781c-0.0068359,0.0019531-0.0117188,0.0078125-0.0151367,0.0175781
			l-0.4399414,1.4853516C34.7994995,144.9298706,34.8063354,144.9401245,34.822937,144.9401245z"/>
		<path id="XMLID_39_" class="st3" d="M37.9152222,146.0275269c-0.0117188-0.0117188-0.0170898-0.0258789-0.0170898-0.0424805
			v-3.3798828c0-0.0166016,0.0053711-0.0307617,0.0170898-0.0424805s0.0258789-0.0175781,0.0429688-0.0175781h0.5849609
			c0.0166016,0,0.0307617,0.0058594,0.0424805,0.0175781c0.0112305,0.0117188,0.0170898,0.0258789,0.0170898,0.0424805v2.8100586
			c0,0.0166016,0.0083008,0.0249023,0.0253906,0.0249023h1.6347656c0.0166016,0,0.0307617,0.0058594,0.0424805,0.0175781
			s0.0175781,0.0258789,0.0175781,0.0424805v0.4848633c0,0.0166016-0.0058594,0.0307617-0.0175781,0.0424805
			s-0.0258789,0.0175781-0.0424805,0.0175781h-2.3046875C37.9411011,146.045105,37.9269409,146.0392456,37.9152222,146.0275269z"/>
		<path id="XMLID_41_" class="st3" d="M41.4254761,146.0275269c-0.0117188-0.0117188-0.0170898-0.0258789-0.0170898-0.0424805
			v-3.3798828c0-0.0166016,0.0053711-0.0307617,0.0170898-0.0424805s0.0258789-0.0175781,0.0429688-0.0175781h0.5849609
			c0.0166016,0,0.0307617,0.0058594,0.0424805,0.0175781c0.0112305,0.0117188,0.0170898,0.0258789,0.0170898,0.0424805v3.3798828
			c0,0.0166016-0.0058594,0.0307617-0.0170898,0.0424805c-0.0117188,0.0117188-0.0258789,0.0175781-0.0424805,0.0175781h-0.5849609
			C41.451355,146.045105,41.4371948,146.0392456,41.4254761,146.0275269z"/>
		<path id="XMLID_45_" class="st3" d="M43.3903198,146.0275269c-0.0117188-0.0117188-0.0170898-0.0258789-0.0170898-0.0424805
			v-3.3798828c0-0.0166016,0.0053711-0.0307617,0.0170898-0.0424805s0.0258789-0.0175781,0.0429688-0.0175781h1.25
			c0.25,0,0.46875,0.0444336,0.6572266,0.1323242c0.1884766,0.0883789,0.3339844,0.2128906,0.4375,0.3725586
			c0.1035156,0.1601563,0.1552734,0.3452148,0.1552734,0.5551758v1.3798828c0,0.2099609-0.0517578,0.3950195-0.1552734,0.5551758
			c-0.1035156,0.159668-0.2490234,0.2841797-0.4375,0.3725586s-0.4072266,0.1323242-0.6572266,0.1323242h-1.25
			C43.4161987,146.045105,43.4020386,146.0392456,43.3903198,146.0275269z M44.1032104,145.4401245h0.6049805
			c0.1533203,0,0.2773438-0.0517578,0.3725586-0.1547852c0.0947266-0.1035156,0.144043-0.2416992,0.1474609-0.4150391v-1.1503906
			c0-0.1728516-0.0478516-0.3115234-0.1425781-0.4150391c-0.0952148-0.1030273-0.2226563-0.1547852-0.3828125-0.1547852h-0.5996094
			c-0.0170898,0-0.0253906,0.0083008-0.0253906,0.0249023v2.2402344
			C44.0778198,145.4318237,44.0861206,145.4401245,44.1032104,145.4401245z"/>
		<path id="XMLID_48_" class="st3" d="M51.1705933,143.1325073c-0.0117188,0.0117188-0.0258789,0.0175781-0.0424805,0.0175781
			h-1.6347656c-0.0170898,0-0.0253906,0.0083008-0.0253906,0.0249023v0.7749023
			c0,0.0170898,0.0083008,0.0253906,0.0253906,0.0253906h1.074707c0.0166016,0,0.0307617,0.0058594,0.0424805,0.0170898
			c0.0117188,0.0117188,0.0175781,0.0258789,0.0175781,0.0429688v0.4848633c0,0.0166016-0.0058594,0.0307617-0.0175781,0.0424805
			s-0.0258789,0.0175781-0.0424805,0.0175781h-1.074707c-0.0170898,0-0.0253906,0.0083008-0.0253906,0.0249023v1.3798828
			c0,0.0166016-0.0058594,0.0307617-0.0170898,0.0424805c-0.0117188,0.0117188-0.0258789,0.0175781-0.0424805,0.0175781h-0.5849609
			c-0.0170898,0-0.03125-0.0058594-0.0429688-0.0175781s-0.0170898-0.0258789-0.0170898-0.0424805v-3.3798828
			c0-0.0166016,0.0053711-0.0307617,0.0170898-0.0424805s0.0258789-0.0175781,0.0429688-0.0175781h2.3046875
			c0.0166016,0,0.0307617,0.0058594,0.0424805,0.0175781s0.0175781,0.0258789,0.0175781,0.0424805v0.4848633
			C51.1881714,143.1066284,51.182312,143.1207886,51.1705933,143.1325073z"/>
		<path id="XMLID_50_" class="st3" d="M54.0626831,146.0001831l-0.625-1.3852539
			c-0.0063477-0.0131836-0.0166016-0.0200195-0.0297852-0.0200195h-0.4648438c-0.0170898,0-0.0253906,0.0087891-0.0253906,0.0253906
			v1.3647461c0,0.0166016-0.0058594,0.0307617-0.0170898,0.0424805c-0.0117188,0.0117188-0.0258789,0.0175781-0.0424805,0.0175781
			h-0.5849609c-0.0170898,0-0.03125-0.0058594-0.0429688-0.0175781s-0.0170898-0.0258789-0.0170898-0.0424805v-3.3798828
			c0-0.0166016,0.0053711-0.0307617,0.0170898-0.0424805s0.0258789-0.0175781,0.0429688-0.0175781h1.4296875
			c0.2133789,0,0.4008789,0.043457,0.5625,0.1298828c0.1616211,0.0869141,0.2866211,0.2099609,0.375,0.3701172
			s0.1328125,0.3452148,0.1328125,0.5551758c0,0.2265625-0.0571289,0.4208984-0.1704102,0.5825195
			s-0.2714844,0.2758789-0.4746094,0.3422852c-0.0170898,0.0068359-0.0219727,0.0185547-0.0151367,0.0351563l0.6796875,1.4150391
			c0.0068359,0.0131836,0.0102539,0.0229492,0.0102539,0.0297852c0,0.0268555-0.0185547,0.0400391-0.0551758,0.0400391h-0.6147461
			C54.0993042,146.045105,54.076355,146.0299683,54.0626831,146.0001831z M52.9176636,143.1749878v0.8549805
			c0,0.0170898,0.0083008,0.0249023,0.0253906,0.0249023h0.6547852c0.1401367,0,0.2543945-0.0415039,0.3427734-0.125
			c0.0878906-0.0830078,0.1323242-0.1914063,0.1323242-0.324707s-0.0444336-0.2426758-0.1323242-0.3276367
			c-0.0883789-0.0849609-0.2026367-0.1274414-0.3427734-0.1274414h-0.6547852
			C52.9259644,143.1500854,52.9176636,143.1583862,52.9176636,143.1749878z"/>
		<path id="XMLID_53_" class="st3" d="M56.4904175,145.9401245c-0.1982422-0.1064453-0.3525391-0.2558594-0.4624023-0.4477539
			c-0.1098633-0.1914063-0.1650391-0.4121094-0.1650391-0.6621094v-1.0703125c0-0.246582,0.0551758-0.4648438,0.1650391-0.6547852
			s0.2641602-0.3374023,0.4624023-0.4423828s0.4277344-0.1577148,0.6875-0.1577148
			c0.2636719,0,0.4941406,0.0527344,0.6928711,0.1577148c0.1982422,0.1049805,0.3525391,0.2524414,0.4624023,0.4423828
			s0.1650391,0.4082031,0.1650391,0.6547852v1.0703125c0,0.25-0.0551758,0.4716797-0.1650391,0.6650391
			s-0.2641602,0.3422852-0.4624023,0.4472656c-0.1987305,0.1049805-0.4291992,0.1577148-0.6928711,0.1577148
			C56.9181519,146.1002808,56.6886597,146.0465698,56.4904175,145.9401245z M57.62323,145.3200073
			c0.1132813-0.1166992,0.1699219-0.2714844,0.1699219-0.4648438v-1.1000977c0-0.1933594-0.0556641-0.3491211-0.1674805-0.4672852
			c-0.1118164-0.1186523-0.2607422-0.1777344-0.4477539-0.1777344c-0.1831055,0-0.3305664,0.059082-0.4423828,0.1777344
			c-0.1118164,0.1181641-0.1674805,0.2739258-0.1674805,0.4672852v1.1000977c0,0.1933594,0.0556641,0.3481445,0.1674805,0.4648438
			s0.2592773,0.175293,0.4423828,0.175293C57.3615112,145.4953003,57.5099487,145.4367065,57.62323,145.3200073z"/>
		<path id="XMLID_56_" class="st3" d="M62.0079956,142.545105h0.5849609c0.0166016,0,0.0307617,0.0058594,0.0424805,0.0175781
			s0.0175781,0.0258789,0.0175781,0.0424805v3.3798828c0,0.0166016-0.0058594,0.0307617-0.0175781,0.0424805
			s-0.0258789,0.0175781-0.0424805,0.0175781h-0.5849609c-0.0166016,0-0.0307617-0.0058594-0.0424805-0.0175781
			s-0.0175781-0.0258789-0.0175781-0.0424805v-2.2050781c0-0.0131836-0.003418-0.0200195-0.0097656-0.0200195
			c-0.0068359,0-0.0136719,0.0053711-0.0200195,0.0151367l-0.5302734,0.8300781
			c-0.0166016,0.0268555-0.0400391,0.0400391-0.0698242,0.0400391h-0.2949219c-0.0302734,0-0.0537109-0.0131836-0.0703125-0.0400391
			l-0.5297852-0.8300781c-0.0068359-0.0097656-0.0131836-0.0141602-0.0200195-0.0126953
			c-0.0068359,0.0019531-0.0102539,0.0092773-0.0102539,0.0229492v2.199707c0,0.0166016-0.0058594,0.0307617-0.0170898,0.0424805
			c-0.0117188,0.0117188-0.0258789,0.0175781-0.0424805,0.0175781H59.74823c-0.0170898,0-0.03125-0.0058594-0.0429688-0.0175781
			s-0.0170898-0.0258789-0.0170898-0.0424805v-3.3798828c0-0.0166016,0.0053711-0.0307617,0.0170898-0.0424805
			s0.0258789-0.0175781,0.0429688-0.0175781h0.5849609c0.0297852,0,0.0532227,0.0131836,0.0698242,0.0400391l0.75,1.1650391
			c0.0097656,0.0200195,0.0200195,0.0200195,0.0297852,0l0.7553711-1.1650391
			C61.9547729,142.5582886,61.9782104,142.545105,62.0079956,142.545105z"/>
	</g>
</g>
</svg>
