<?xml version="1.0" encoding="utf-8"?>
<!-- Generator: Adobe Illustrator 19.0.0, SVG Export Plug-In . SVG Version: 6.00 Build 0)  -->
<svg version="1.1" id="Layer_1" xmlns="http://www.w3.org/2000/svg" xmlns:xlink="http://www.w3.org/1999/xlink" x="0px" y="0px"
	 width="300px" height="300px" viewBox="-155 247 300 300" style="enable-background:new -155 247 300 300;" xml:space="preserve">
<style type="text/css">
	.st0{fill:#016ECF;}
</style>
<g>
	<path class="st0" d="M-5,331.6239014c15.4735985,0,29.7772522,7.1430054,41.6705627,17.8487549
		c11.9109802,10.7233582,17.8664322,26.197052,17.8664322,41.6881714c0,7.631958-1.743866,14.973053-4.7917252,21.8847046
		l35.6477814,35.6477966C104.1396332,433.6426697,117.764267,413.7323608,127,391.1695557
		c-10.8064117-26.3999939-27.596817-48.0127563-51.603157-64.8031616C51.4080048,309.5584106,25.007988,301.1631775-5,301.1631775
		c-17.3608532,0-33.507576,2.8288269-48.684967,8.4521179l26.3583603,26.3583679
		C-20.2632217,333.0791321-12.6308136,331.6239014-5,331.6239014z"/>
	<path class="st0" d="M102.5746765,496.0115967l-212.3217926-212.3217773l-14.2985992,14.2986755l32.7441635,32.7441711
		C-112.1752014,346.8512878-127.1054459,366.9971924-137,391.1695557
		c10.8064194,26.4000244,27.596817,47.9952698,51.6031494,64.785675C-61.4080086,472.7631836-35.0079918,481.1584473-5,481.1584473
		c19.1401443,0,36.8029327-3.926239,53.3163834-10.8078613l39.9596024,39.9595947L102.5746765,496.0115967z M-5,450.6977234
		c-15.4736843,0-29.7772484-5.9553833-41.6706429-17.866272c-11.9109001-11.9109802-17.8663521-26.1969604-17.8663521-41.6706238
		c0-9.3886719,2.6362839-18.3300476,7.0906487-26.5729675l18.8071556,18.8071594
		c-0.6680717,2.5168762-1.037159,5.1098938-1.037159,7.7658081c0,9.0123901,3.4686203,17.3330688,10.405941,24.2703857
		C-22.3432674,422.3685303-14.0124016,425.8371582-5,425.8371582c2.6542892,0,5.3074875-0.3092651,7.8920174-0.9109497
		l19.1911354,19.1911621C13.7599487,448.4944763,4.3803101,450.6977234-5,450.6977234z"/>
	<path class="st0" d="M29.6763535,391.1608276c0-9.0226135-3.4686203-18.0350037-10.4060287-24.2806091
		C12.3432655,360.6448059,4.0124016,356.4844666-5,356.4844666c-0.590065,0-1.179966,0.0167542-1.7693596,0.0464478
		l36.3906746,36.390686C29.6564102,392.337677,29.6763535,391.750885,29.6763535,391.1608276z"/>
</g>
</svg>
