<?xml version="1.0" encoding="utf-8"?>
<!-- Generator: Adobe Illustrator 19.0.0, SVG Export Plug-In . SVG Version: 6.00 Build 0)  -->
<svg version="1.1" id="Layer_1" xmlns="http://www.w3.org/2000/svg" xmlns:xlink="http://www.w3.org/1999/xlink" x="0px" y="0px"
	 width="300px" height="300px" viewBox="-155 247 300 300" style="enable-background:new -155 247 300 300;" xml:space="preserve">
<style type="text/css">
	.st0{fill:#016ECF;}
</style>
<path class="st0" d="M126.75,528.0846558c0-11.3135376-6.2466431-21.7060852-16.2338791-27.0212402
	c-12.8536301-6.8406677-24.2717972-12.9024048-41.618782-18.9152222
	c-5.5227051-1.9143066-12.0473633-3.1010742-14.8152466-8.2476196c-10.204895-18.975708-19.017334-37.0704346-7.0545654-59.394104
	c9.0875244-16.958252,22.2451172-34.8910522,12.9777222-55.815979c1.5167236-14.6300049,3.0183716-29.2598877-0.7601929-43.8198853
	c-2.362793-14.2963867-14.5861206-22.1430664-26.026001-30.5784912c-6.260376-4.6161499-14.1010132-8.9037476-6.1947021-18.8411255
	c-23.6277466,2.7115479-44.647522,5.9972534-63.6116943,15.3307495
	c-12.8225708,6.3109741-24.4689331,14.2642212-27.2354126,27.914917
	c-4.130127,20.3789063-2.3865967,41.1721802-5.4645996,61.8417358
	c-2.4331055,16.3388062,7.2331543,33.8881226,16.5810547,49.4246216c7.3994141,12.2980347,7.430481,23.8036499-2.223999,35.1625366
	c-2.3197632,2.7293091-4.7457886,5.8084106-5.5465698,9.0258789c-2.5001221,10.0461426-9.6773071,15.3609009-20.3459473,18.9279785
	c-17.0417328,5.6978149-28.1899948,11.8597717-40.4929504,18.8878784
	C-130.8547821,507.4164734-136.75,517.5632324-136.75,528.5490112l0,0h263.5V528.0846558z"/>
</svg>
