<?xml version="1.0" encoding="utf-8"?>
<!-- Generator: Adobe Illustrator 19.0.0, SVG Export Plug-In . SVG Version: 6.00 Build 0)  -->
<svg version="1.1" id="Layer_1" xmlns="http://www.w3.org/2000/svg" xmlns:xlink="http://www.w3.org/1999/xlink" x="0px" y="0px"
	 width="300px" height="300px" viewBox="-155 247 300 300" style="enable-background:new -155 247 300 300;" xml:space="preserve">
<style type="text/css">
	.st0{fill:none;stroke:#016ECF;stroke-width:20;stroke-linecap:round;stroke-linejoin:round;stroke-miterlimit:10;}
</style>
<g>
	<path class="st0" d="M79.8582306,306H-89.8582306c-12.434639,0-22.5149078,10.0802612-22.5149078,22.5148926v0.000061
		c0,12.4346313,10.0802689,22.5148926,22.5149078,22.5148926H79.8582306c12.4346313,0,22.5149078-10.0802612,22.5149078-22.5148926
		v-0.000061C102.3731384,316.0802612,92.2928619,306,79.8582306,306z"/>
	<path class="st0" d="M59.6865692,529H-69.6865692c-10.8808365,0-19.7014923-8.8206787-19.7014923-19.7015076V351.0298462
		h168.776123v158.2686462C79.3880615,520.1793213,70.5673981,529,59.6865692,529z"/>
	<path class="st0" d="M-46.3731346,415.3880615v49.2537231V415.3880615z"/>
	<path class="st0" d="M-5.0000019,415.3880615v49.2537231V415.3880615z"/>
	<path class="st0" d="M36.3731308,415.3880615v49.2537231V415.3880615z"/>
	<path class="st0" d="M-44.0325813,304.0325928C-44.0325813,282.4754639-26.5571003,265-5.0000019,265
		s39.0325775,17.4754639,39.0325775,39.0325928"/>
</g>
</svg>
