<?xml version="1.0" encoding="utf-8"?>
<!-- Generator: Adobe Illustrator 19.0.0, SVG Export Plug-In . SVG Version: 6.00 Build 0)  -->
<svg version="1.1" id="Layer_1" xmlns="http://www.w3.org/2000/svg" xmlns:xlink="http://www.w3.org/1999/xlink" x="0px" y="0px"
	 width="300px" height="300px" viewBox="-155 247 300 300" style="enable-background:new -155 247 300 300;" xml:space="preserve">
<style type="text/css">
	.st0{fill:#016ECF;}
</style>
<g>
	<path class="st0" d="M25.6302872,366.3804016C16.8604889,357.6105347,6.6574364,353.2470398-5,353.2470398
		c-4.1527672,0-8.1201515,0.5672607-11.90728,1.6792297c4.2677994,4.2948303,6.4001884,9.2980957,6.4001884,15.022644
		c0,5.7412109-2.1489639,10.7661133-6.4574966,15.074646s-9.3439579,6.4680176-15.0851593,6.4680176
		c-5.7117462,0-10.7132607-2.1309509-15.0173302-6.4057617c-1.1100388,3.7892456-1.6752815,7.7615051-1.6752815,11.9248657
		c0,11.6574402,4.3635674,21.8605042,13.112072,30.6089172C-26.8604908,436.3894653-16.6575203,440.7529602-5,440.7529602
		c11.6574364,0,21.8818665-4.3849487,30.6302872-13.1333618s13.1119843-18.9514771,13.1119843-30.6089172
		C38.7422714,385.3318787,34.3787079,375.1288147,25.6302872,366.3804016z"/>
	<path class="st0" d="M75.396843,332.2055969C51.4080048,315.3976135,25.007988,307.0023804-5,307.0023804
		s-56.4080086,8.3952332-80.3968506,25.2032166C-109.403183,348.9960022-126.1935806,370.6087341-137,397.0087585
		c10.8064194,26.4000244,27.596817,47.9952698,51.6031494,64.7856445C-61.4080086,478.6023865-35.0079918,486.9976196-5,486.9976196
		s56.4080048-9.5920105,80.396843-25.2032166C99.403183,446.2008057,116.1935883,423.408783,127,397.0087585
		C116.1935883,370.6087341,99.403183,348.9960022,75.396843,332.2055969z M41.3139267,443.3140259
		C29.4151459,456.5521545,12.1978531,463.1711121-5,463.1711121c-17.197937,0-33.0953217-6.6189575-46.3140106-19.8570862
		C-64.5521393,430.0758057-71.1712036,414.197937-71.1712036,397c0-17.2172852,7.9389725-33.0953064,19.857193-46.3334351
		C-39.4152298,337.447876-22.197937,330.8288879-5,330.8288879c17.1978531,0,33.0953217,7.9388733,46.3139267,19.837677
		C54.5521393,362.5847778,61.1712036,379.7827148,61.1712036,397
		C61.1712036,414.197937,53.2321472,430.0758972,41.3139267,443.3140259z"/>
</g>
</svg>
