<?xml version="1.0" encoding="utf-8"?>
<!-- Generator: Adobe Illustrator 19.0.0, SVG Export Plug-In . SVG Version: 6.00 Build 0)  -->
<svg version="1.1" id="Layer_1" xmlns="http://www.w3.org/2000/svg" xmlns:xlink="http://www.w3.org/1999/xlink" x="0px" y="0px"
	 width="300px" height="300px" viewBox="-155 247 300 300" style="enable-background:new -155 247 300 300;" xml:space="preserve">
<style type="text/css">
	.st0{fill:#016ECF;}
</style>
<g>
	<path class="st0" d="M36.1505699,299.2331238c-1.0505104,0-2.0741386,0.1071167-3.0797119,0.2690125
		c-6.4739113-7.3244934-13.9643631-13.4637756-22.1796074-18.119812
		c-30.2049408-17.1178894-77.729454-18.0171509-110.1196671,13.3834229
		c-16.8097687,16.2962036-25.8707733,38.4570923-26.2040405,64.0860596
		c-0.2514343,19.3117371,4.4320679,34.2368469,5.3735809,37.0325012
		c10.7867508,32.0350342,34.52948,49.692688,47.7224426,57.3670959c1.3865967,0.8067017,2.9021149,1.1897278,4.3989029,1.1897278
		c3.0187302,0,5.9566841-1.5609741,7.5840034-4.3587952c2.4340286-4.1843872,1.0153389-9.5488586-3.1690483-11.9828796
		c-11.0654602-6.436554-30.9661789-21.2076111-39.9234009-47.8085938
		c-0.6949005-2.0627747-16.6326981-50.8968506,16.4187241-82.9393311
		c26.2040367-25.4021606,64.7440491-24.6211243,89.2758331-10.718811
		c6.1717968,3.4978943,11.7288017,7.9387207,16.6318951,13.2640991c-1.3227997,2.6172485-2.0855064,5.5640259-2.0855064,8.6913452
		c0,10.6722717,8.6833248,19.355072,19.3555984,19.355072s19.3555984-8.6828003,19.3555984-19.355072
		S46.8228416,299.2331238,36.1505699,299.2331238z"/>
	<g>
		<path class="st0" d="M48.320961,458.5044556c8.2402534-2.1599426,13.1577911-6.8356628,13.1577911-10.3356018
			c0-3.4996338-4.9175377-8.1751099-13.1578598-10.3349609L48.320961,458.5044556z"/>
		<path class="st0" d="M16.0243626,405.9838867c0.0000668,3.499939,4.9175377,8.1755981,13.157856,10.3356018l0.0000668-20.6708984
			C20.9419003,397.8085022,16.0243626,402.4841003,16.0243626,405.9838867z"/>
		<path class="st0" d="M115.4421463,337.2210693c0-3.925415-1.634407-7.6735535-4.5109024-10.344574L48.357151,268.7720642
			c-5.4162483-5.0294189-13.7948494-5.0294189-19.2111626-0.000061l-11.2643299,10.4597473
			c6.2777157,4.0473938,12.1068783,8.9094849,17.3830318,14.5416565c0.2985039-0.0122986,0.5937958-0.0181885,0.8858795-0.0181885
			c13.693676,0,24.8334961,11.1398315,24.8334961,24.8329468c0,13.6931458-11.1398201,24.8329773-24.8334961,24.8329773
			s-24.8334961-11.1398315-24.8334961-24.8329773c0-2.5490417,0.3851652-5.0386963,1.1490746-7.4390259
			c-3.9158411-3.8329163-8.2500143-7.1046753-12.9179974-9.7505493c-1.1480049-0.6504211-2.3372011-1.2611389-3.5480628-1.8482361
			l-29.4281921,27.3262329c-2.8764992,2.670929-4.5109062,6.4190674-4.5108414,10.3445435l-0.0000648,177.6622314
			C-37.9390106,522.6798096-31.6188335,529-23.8224564,529h125.1481171
			c7.7963104-0.000061,14.1164856-6.3202515,14.1165543-14.1165771L115.4421463,337.2210693z M80.6174393,448.1688843
			c0.0000687,14.7732849-13.581871,26.7875671-32.2964668,29.8796997v6.6465149l-19.1387405,9.446228V478.048584
			c-18.7146606-3.0921326-32.2965317-15.1064758-32.2965317-29.8796997H16.024374
			c0,3.499939,4.9175377,8.1755371,13.1578579,10.3355408V435.863678
			c-18.7146606-3.0921936-32.2965317-15.1065369-32.2964668-29.8798218
			c-0.000067-14.7731934,13.5818043-26.7874756,32.2965317-29.8794861l-0.0000668-10.5109863l19.1386757-0.000061v10.5110474
			c18.7147293,3.0920105,32.2965317,15.1062317,32.2965317,29.8794861H61.4788284
			c0-3.4997864-4.9176025-8.1753235-13.1579208-10.3352356v22.6409912
			C67.0356369,421.3816223,80.6174393,433.3956299,80.6174393,448.1688843z"/>
	</g>
</g>
</svg>
