<?xml version="1.0" encoding="utf-8"?>
<!-- Generator: Adobe Illustrator 19.0.0, SVG Export Plug-In . SVG Version: 6.00 Build 0)  -->
<svg version="1.1" id="Layer_1" xmlns="http://www.w3.org/2000/svg" xmlns:xlink="http://www.w3.org/1999/xlink" x="0px" y="0px"
	 width="300px" height="300px" viewBox="-155 247 300 300" style="enable-background:new -155 247 300 300;" xml:space="preserve">
<style type="text/css">
	.st0{fill:#016ECF;}
</style>
<g>
	<path class="st0" d="M-30.7803268,413.9264526H80.7803268c10.0624771,0,18.2197037-8.1572266,18.2197037-18.219696V284.1460876
		c0-10.0624695-8.1572266-18.219696-18.2197037-18.219696H-30.7803268c-10.0624809,0-18.2197037,8.1572266-18.2197037,18.219696
		v111.5606689C-49.0000305,405.7692261-40.8428078,413.9264526-30.7803268,413.9264526z M-4.6738119,334.0575867
		l25.6805878-25.680603c0.2720909-0.2764587,0.5742931-0.5255432,0.9027729-0.7423401
		c0.0005474-0.0005493,0.0005474-0.0005493,0.0010948-0.0005493c0.0010948-0.0010986,0.0021896-0.0016479,0.0032845-0.0021973
		c0.4116955-0.2715454,0.8540497-0.4855957,1.3150158-0.6388855c0.5786743-0.1927185,1.1765079-0.2868958,1.7696877-0.2868958
		c0.0010948,0,0.0016422,0,0.002737,0c0.5737457,0,1.1510506,0.0881653,1.712204,0.26828
		c0.5050392,0.1620483,0.9890003,0.3963623,1.4354591,0.699646c0.3057594,0.207489,0.588253,0.4434509,0.8441944,0.7029419
		l25.6805878,25.680603c2.189045,2.1893005,2.189045,5.7391052,0,7.9284058c-2.1893234,2.1893311-5.7390976,2.1893311-7.928421,0
		l-16.1393299-16.1393127v41.6937256c0,3.0961914-2.5098629,5.6060486-5.6060619,5.6060486
		c-3.0959263,0-5.6060638-2.5098572-5.6060638-5.6060486v-41.6937256L3.2546062,341.9859924
		c-2.1898685,2.1893311-5.7385502,2.1893311-7.9284177,0C-6.863133,339.7966919-6.863133,336.2468872-4.6738119,334.0575867z"/>
	<g>
		<path class="st0" d="M-99.3907242,465.2192383l35.5633392,35.5633545
			c3.0123749,3.0123596,7.6391029,3.6994019,11.3901291,1.6798401c5.0348015-2.7107544,11.573452-5.6431274,19.4113579-7.7774048
			c35.0988274-9.5574036,49.223877,9.6961365,80.332283,2.3061829c2.4866638-0.5906982,0.0265083-0.1507568,54.5798225-34.5928345
			c12.9503021-8.1761475,26.5948715-16.7278748,24.9837265-23.8306274c-0.919632-4.0542297-6.444191-5.9900818-6.9185715-6.1498413
			c-7.1237564-2.3990784-14.523819,2.383667-20.7557068,6.5342102
			c-35.2297478,23.4634705-36.5383682,24.5041199-40.7426872,25.7524414
			c-1.2519417,0.3717346-12.5107346-0.0033569-34.9772148-0.7687378
			c-22.7817898-0.7760925-35.6226959-1.3649597-37.3794937-7.1107483c-0.1254158-0.4101868-0.3673449-1.2393494-0.0960913-2.210083
			c1.4574394-5.2156677,14.9184008-4.4577332,37.0912209-6.053772c34.7360458-2.5003357,36.3294106-6.8531494,36.5146751-8.0716553
			c0.0965462-0.6350403-0.0803146-1.1360779-0.1921844-1.4413757c-2.8163452-7.6859741-30.6069145-7.2437134-47.8534393-7.3990173
			c-53.157299-0.4786377-52.7458839-7.0535583-71.4918823-1.921814c-9.0246582,2.47052-23.3440857,7.8882141-38.9916687,21.3973999
			C-103.1501923,454.7741699-103.3395462,461.2704163-99.3907242,465.2192383z"/>
		<path class="st0" d="M-70.8603745,501.2272034l-35.6993484-35.6993103
			c-3.4819031-3.4819336-8.9824219-3.9055176-12.9564133-0.9977417l-13.3949203,9.801178
			c-4.9420929,3.6161804-5.4943695,10.7881775-1.1642151,15.1183777l35.6993484,35.6992798
			c3.4819031,3.4819946,8.9824219,3.9055176,12.9564133,0.9977417l13.3949203-9.8012085
			C-67.0825043,512.7293701-66.5302124,505.5574036-70.8603745,501.2272034z M-89.3353653,516.9782104
			c-2.22892,0-4.0358353-1.8069458-4.0358353-4.0358276c0-2.2289429,1.8069153-4.0358582,4.0358353-4.0358582
			c2.2289581,0,4.0358276,1.8069153,4.0358276,4.0358582C-85.2995377,515.1712646-87.1064072,516.9782104-89.3353653,516.9782104z"
			/>
	</g>
</g>
</svg>
