<?xml version="1.0" encoding="utf-8"?>
<!-- Generator: Adobe Illustrator 19.0.0, SVG Export Plug-In . SVG Version: 6.00 Build 0)  -->
<svg version="1.1" id="Layer_1" xmlns="http://www.w3.org/2000/svg" xmlns:xlink="http://www.w3.org/1999/xlink" x="0px" y="0px"
	 width="300px" height="300px" viewBox="-155 247 300 300" style="enable-background:new -155 247 300 300;" xml:space="preserve">
<style type="text/css">
	.st0{fill:#016ECF;}
</style>
<path class="st0" d="M123.4350204,443.3702393c-2.023468-2.8420105-3.764267-3.6663513-11.0909653-7.1322937l-1.6894913-0.7993469
	c-1.4521179-0.6888733-2.9035263-1.3815002-4.3568344-2.0740662c-12.5402298-5.9820251-25.5069885-12.1671753-39.2173233-15.9493713
	l-0.9425125-0.2634277c-5.2867203-1.4940186-11.2772102-3.1827087-17.5805779,6.2181702
	c-5.6690865,8.4348145-11.8839531,16.6331482-18.4708195,24.3672485c-2.0580959,2.2639465-5.4119892,2.9189148-8.1718884,1.5926514
	l-0.3616886-0.151001c-18.013361-6.4598694-34.7377167-15.7785645-49.7102432-27.6975708
	c-13.6397781-11.5328674-25.8078842-24.7583313-36.1676674-39.3095703
	c-0.3082275-0.4329834-0.9497223-1.3336487-1.1131363-2.5472717c-0.285408-2.1193542,1.0174255-4.1657104,2.26054-5.9172974
	c2.6631775-3.7514648,4.7969589-6.6526794,6.5112991-8.9838867c4.6515427-6.324585,6.5764389-8.9419861,7.581707-13.1362
	c0.9603348-4.0122375,0.7439995-8.3573914-0.6439972-12.9143677l-0.0218697,0.0067444
	c-1.7349052-6.3199463-15.370388-36.1776733-18.8962212-43.342926c-2.8652649-6.469635-9.0509872-10.7741089-17.4287186-12.1252136
	c-11.3703537-1.8340759-24.0762024,2.1940918-30.9044342,9.7929688l-0.0671616,0.077179
	c-29.5596466,34.7443848-26.2158203,75.4235535,9.6327057,117.5957642
	c29.8651352,36.2230835,64.7849731,64.2145081,103.7885895,83.1985779
	c31.0627174,15.1185913,51.6923523,17.9979858,65.8065109,17.2431946c4.7093506-0.2515564,8.6953812-0.9078674,12.0984421-1.6487732
	c19.7901611-4.3108215,35.4248581-14.1869812,44.0243454-27.8084717
	C119.8620529,479.1930237,133.2462158,457.1469116,123.4350204,443.3702393z"/>
</svg>
