<?xml version="1.0" encoding="utf-8"?>
<!-- Generator: Adobe Illustrator 19.0.0, SVG Export Plug-In . SVG Version: 6.00 Build 0)  -->
<svg version="1.1" id="Layer_1" xmlns="http://www.w3.org/2000/svg" xmlns:xlink="http://www.w3.org/1999/xlink" x="0px" y="0px"
	 width="300px" height="300px" viewBox="-155 247 300 300" style="enable-background:new -155 247 300 300;" xml:space="preserve">
<style type="text/css">
	.st0{fill:#016ECF;}
</style>
<g>
	<path class="st0" d="M20.7803288,380.0735474H-90.7803268c-10.0624771,0-18.2197037,8.1572266-18.2197037,18.219696v111.5606689
		c0,10.0624695,8.1572266,18.219696,18.2197037,18.219696H20.7803288c10.062479,0,18.2197056-8.1572266,18.2197056-18.219696
		V398.2932434C39.0000343,388.2307739,30.8428078,380.0735474,20.7803288,380.0735474z M-5.3261867,459.9424133
		l-25.6805859,25.680603c-0.2720909,0.2764587-0.5742931,0.5255432-0.9027729,0.7423401
		c-0.0005474,0.0005493-0.0005474,0.0005493-0.0010948,0.0005493c-0.0010948,0.0010986-0.0021896,0.0016479-0.0032845,0.0021973
		c-0.4116936,0.2715454-0.8540459,0.4855957-1.3150139,0.6388855c-0.5786743,0.1927185-1.176506,0.2868958-1.7696877,0.2868958
		c-0.0010948,0-0.0016441,0-0.002739,0c-0.5737457,0-1.1510468-0.0881653-1.712204-0.26828
		c-0.5050354-0.1620483-0.9889984-0.3963623-1.4354553-0.699646c-0.3057632-0.207489-0.5882568-0.4434509-0.8441963-0.7029419
		l-25.6805916-25.680603c-2.1890488-2.1893005-2.1890488-5.7391052,0-7.9284058
		c2.1893272-2.1893311,5.7391014-2.1893311,7.9284248,0l16.139328,16.1393127v-41.6937256
		c0-3.0961914,2.5098648-5.6060486,5.6060638-5.6060486c3.0959244,0,5.6060619,2.5098572,5.6060619,5.6060486v41.6937256
		l16.139328-16.1393127c2.1898689-2.1893311,5.7385502-2.1893311,7.9284186,0
		C-3.1368656,454.2033081-3.1368656,457.7531128-5.3261867,459.9424133z"/>
	<g>
		<path class="st0" d="M89.3907242,328.7807617l-35.5633354-35.5633545
			c-3.0123749-3.0123596-7.6391029-3.6994019-11.3901291-1.6798401c-5.0348015,2.7107544-11.5734539,5.6431274-19.4113598,7.7774048
			c-35.0988274,9.5574036-49.223877-9.6961365-80.332283-2.3061829c-2.4866638,0.5906982-0.0265083,0.1507568-54.5798264,34.5928345
			c-12.9503021,8.1761475-26.5948715,16.7278748-24.9837265,23.8306274c0.919632,4.0542297,6.4441833,5.9900818,6.9185638,6.1498413
			c7.123764,2.3990784,14.5238266-2.383667,20.7557144-6.5342102c35.229744-23.4634705,36.5383682-24.5041199,40.742691-25.7524414
			c1.2519379-0.3717346,12.5107346,0.0033569,34.9772148,0.7687378c22.781786,0.7760925,35.6226959,1.3649597,37.3794937,7.1107483
			c0.1254158,0.4101868,0.3673444,1.2393494,0.096091,2.210083c-1.4574385,5.2156677-14.9183998,4.4577332-37.091217,6.053772
			c-34.7360535,2.5003357-36.3294144,6.8531494-36.514679,8.0716553c-0.09655,0.6350403,0.0803146,1.1360779,0.1921844,1.4413757
			c2.8163452,7.6859741,30.6069183,7.2437134,47.8534393,7.3990173c53.1572952,0.4786377,52.7458839,7.0535583,71.4918823,1.921814
			c9.0246544-2.47052,23.3440819-7.8882141,38.9916649-21.3973999
			C93.1501923,339.2258301,93.3395462,332.7295837,89.3907242,328.7807617z"/>
		<path class="st0" d="M60.8603745,292.7727966l35.6993484,35.6993103
			c3.4819031,3.4819336,8.9824219,3.9055176,12.9564133,0.9977417l13.3949203-9.801178
			c4.9420853-3.6161804,5.4943695-10.7881775,1.1642151-15.1183777l-35.6993484-35.6993103
			c-3.4819031-3.4819336-8.9824219-3.9054871-12.9564133-0.9977417l-13.3949203,9.8012085
			C57.0825081,281.2705994,56.5302162,288.4425964,60.8603745,292.7727966z M79.3353653,277.0217896
			c2.22892,0,4.0358353,1.8069153,4.0358353,4.0358582c0,2.2289124-1.8069153,4.0358276-4.0358353,4.0358276
			c-2.2289581,0-4.0358276-1.8069153-4.0358276-4.0358276C75.2995377,278.8287048,77.1064072,277.0217896,79.3353653,277.0217896z"
			/>
	</g>
</g>
</svg>
