<?xml version="1.0" encoding="utf-8"?>
<!-- Generator: Adobe Illustrator 19.0.0, SVG Export Plug-In . SVG Version: 6.00 Build 0)  -->
<svg version="1.1" id="Layer_1" xmlns="http://www.w3.org/2000/svg" xmlns:xlink="http://www.w3.org/1999/xlink" x="0px" y="0px"
	 width="300px" height="300px" viewBox="-155 247 300 300" style="enable-background:new -155 247 300 300;" xml:space="preserve">
<style type="text/css">
	.st0{fill:#016ECF;}
</style>
<g>
	<path class="st0" d="M104.1544876,410.6102295L127,410.6102905c0-17.6346741-16.2124252-31.9758606-38.5519028-35.6667175
		v-12.5468445H65.6024475l0.0001297,12.5467834c-22.3395424,3.690918-38.5520325,18.0321655-38.5519028,35.6667175
		c-0.0001335,17.6347046,16.2123585,31.9760132,38.5517731,35.6671143l0.0000687,27.0259705
		c-9.8364372-2.5783997-15.7063942-8.1595764-15.7063942-12.3374023l-22.8455791,0.0000916
		c0,17.634552,16.212492,31.9757996,38.5519028,35.6669006l0.0000687,19.2096863l22.8456421-11.2758484l-0.000061-7.9338379
		C110.7874374,492.941864,127,478.6006165,127,460.9659119c-0.0000687-17.634613-16.2124252-31.9755249-38.5519028-35.6664429
		v-27.0262756C98.2843933,400.851532,104.1544876,406.4326172,104.1544876,410.6102295z M65.6024475,422.9477539
		c-9.8363686-2.5783386-15.7062569-8.1596375-15.7063255-12.3374634c0-4.1776123,5.869957-9.7587585,15.7063942-12.3370972
		L65.6024475,422.9477539z M104.1544189,460.9659119c-0.0000687,4.1778259-5.8700256,9.7591858-15.7063217,12.3374634
		l-0.0000687-24.6742249C98.2843933,451.2073364,104.1543503,456.7884216,104.1544189,460.9659119z"/>
	<path class="st0" d="M43.0839233,363.0575867v-65.4788818c0-10.7260742-8.6952515-19.4213257-19.4213257-19.4213257h-141.241272
		c-10.7260742,0-19.4213257,8.6952515-19.4213257,19.4213257v188.8425903c0,10.7260742,8.6952515,19.4213257,19.4213257,19.4213257
		H29.0014038c2.2148438,0,4.3407593-0.5165405,6.2408447-1.4584351
		c-16.4311523-10.0863647-26.1914673-25.8778687-26.1914673-43.418335v-8v-10h10h2.9147949
		c-8.2281494-9.1482544-12.9147949-20.4032593-12.9147949-32.3554688
		C9.0507813,390.6002502,22.1903076,372.5411072,43.0839233,363.0575867z M-8.6136475,429.5500183
		c-0.4899292,5.4584351-5.30896,9.5154419-10.7893066,9.5154419h-84.9813232c-6.0961914,0-10.9929199-5.2315674-10.43573-11.4413452
		c0.4898682-5.4590454,5.3094482-9.5166626,10.7904663-9.5166626h84.9802246
		C-12.9530029,418.1074524-8.0562134,423.3402405-8.6136475,429.5500183z M-8.6135864,373.1155701
		c-0.4897461,5.4585571-5.3088379,9.5158081-10.7893677,9.5158081h-84.9813232c-6.0961304,0-10.9927979-5.2313843-10.43573-11.44104
		c0.4896851-5.4588623,5.309082-9.5164795,10.789917-9.5164795h84.9807739
		C-12.953186,361.6738586-8.0564575,366.9059143-8.6135864,373.1155701z M-8.6135864,316.6817322
		c-0.4899292,5.4587402-5.3092651,9.5160522-10.789917,9.5160522h-84.9807739c-6.0962524,0-10.992981-5.2321777-10.43573-11.4419556
		c0.4899292-5.4587402,5.3092651-9.5160522,10.789917-9.5160522h84.9807739
		C-12.953064,305.2397766-8.0563354,310.4719543-8.6135864,316.6817322z"/>
</g>
</svg>
