<?xml version="1.0" encoding="utf-8"?>
<!-- Generator: Adobe Illustrator 19.0.0, SVG Export Plug-In . SVG Version: 6.00 Build 0)  -->
<svg version="1.1" id="Layer_1" xmlns="http://www.w3.org/2000/svg" xmlns:xlink="http://www.w3.org/1999/xlink" x="0px" y="0px"
	 width="300px" height="300px" viewBox="-155 247 300 300" style="enable-background:new -155 247 300 300;" xml:space="preserve">
<style type="text/css">
	.st0{fill:#016ECF;}
</style>
<g>
	<path class="st0" d="M101.4689636,346.6385193l21.511261-21.511261c5.3597107-5.3596802,5.3597107-14.0494385,0-19.4091492
		l-36.6983337-36.6983337c-5.3597107-5.3596802-14.049469-5.3596802-19.4091492,0l-21.5112648,21.511261
		c-0.930481,0.9304504-0.930481,2.4390564,0,3.3695374l52.7379494,52.7379456
		C99.0299072,347.5690002,100.5384827,347.5690002,101.4689636,346.6385193z"/>
	<path class="st0" d="M-137,480.3674927v45.3764038C-137,527.5421753-135.5421753,529-133.743866,529h45.3763733
		c4.7861481,0,9.3762665-1.9013062,12.7605896-5.2856445L86.292572,361.8149109c0.930481-0.930481,0.930481-2.4390869,0-3.3695374
		L33.5546227,305.707428c-0.9304504-0.930481-2.4390564-0.930481-3.3695374,0l-161.8994904,161.8994751
		C-135.0987091,470.9912109-137,475.5813599-137,480.3674927z"/>
</g>
</svg>
