<?xml version="1.0" encoding="utf-8"?>
<!-- Generator: Adobe Illustrator 19.0.0, SVG Export Plug-In . SVG Version: 6.00 Build 0)  -->
<svg version="1.1" id="Layer_1" xmlns="http://www.w3.org/2000/svg" xmlns:xlink="http://www.w3.org/1999/xlink" x="0px" y="0px"
	 width="471.925415px" height="290.333374px" viewBox="0 0 471.925415 290.333374"
	 style="enable-background:new 0 0 471.925415 290.333374;" xml:space="preserve">
<style type="text/css">
	.st0{fill:#CBF3FF;}
	.st1{fill:#797592;}
	.st2{fill:#3A9332;}
	.st3{fill:#53BC4D;}
	.st4{fill:#161616;}
	.st5{fill:#FFFFFF;}
	.st6{fill:#E5E7E9;}
	.st7{fill:#CDD2D5;}
	.st8{fill:#FFDC6A;}
	.st9{fill:#F5B305;}
	.st10{fill:#64607C;}
	.st11{fill:#9D9CB5;}
	.st12{fill:#081A11;}
	.st13{fill:#FBD2A8;}
	.st14{fill:#2D608E;}
	.st15{fill:#000D06;}
	.st16{fill:#CEC5BC;}
	.st17{fill:#E0D6CA;}
	.st18{fill:#F24089;}
	.st19{fill:#FF4B8F;}
	.st20{fill:#152A4A;}
	.st21{fill:#E02ED8;}
	.st22{opacity:0.1;fill:#1E1F13;}
</style>
<g id="XMLID_69_">
	<ellipse id="XMLID_106_" class="st0" cx="235.9627075" cy="274.3235474" rx="235.9627075" ry="16.0098362"/>
	<ellipse id="XMLID_109_" class="st1" cx="253.0005493" cy="274.083374" rx="96.7313766" ry="4.75"/>
	<g id="XMLID_13_">
		<g id="XMLID_31_">
			<path id="XMLID_71_" class="st2" d="M185.504364,272.000061c-4.9597473-5.2714233-11.7604675-13.9202271-16.375-26.166687
				c-0.9820557-2.6062622-5.2471008-14.3510132-5-30.5c0.1867371-12.2047119,2.7613831-14.5523682,4-26.3333435
				c0.8261414-7.857605,2.6118469-24.8423767-4.6666565-40.6666565c-6.5016479-14.1352844-23.038147-33.4370728-43.8333435-32
				c-16.0034637,1.1059265-26.1665497,13.9164734-27,15c-19.3453064,25.1499634,0.1335144,66.6884766,4.5,76
				c17.2006149,36.6802368,49.2558899,55.1001282,66.0754852,62.9078674
				c2.5105896,1.1654053,5.2431641,1.7588196,8.0110474,1.7588196H185.504364z"/>
		</g>
		<g id="XMLID_10_">
			<path id="XMLID_70_" class="st3" d="M228.4627075,250.666687c-21.0775146-25.5882568-31.616272-38.3824463-34.3333435-49.333313
				c-7.9385986-31.9959106,30.8308411-44.9529724,27.75-81.5c-2.3190918-27.5108643-27.6181641-59.682373-55-64.75
				c-13.9810028-2.5874939-37.5539703,0.2164307-50.75-9.5c-4.8074799-3.5398254-6.1065674-7.1722107-6.5-8.5
				c-2.3289032-7.8598328,3.2485352-15.3841858,4.5-17c-4.3758087,0.6925659-13.096756,2.704071-21.25,9.5
				c-9.62677,8.0241394-16.9328003,21.4436646-15.5,35.25c1.8385162,17.7158203,17.5329132,30.9353333,30.25,36.25
				c15.8978729,6.6439514,29.3206787,1.8443604,40.75,14c0.8482208,0.9021301,3.628479,3.9641113,5.75,8.5
				c7.8940735,16.8777466-3.8058167,31.7691345-9,57c-1.7865753,8.6783447-7.0806885,34.3945923,3.5,58.5
				c5.907196,13.4580078,15.1817169,22.812439,23.012146,28.93927c3.3183441,2.5963745,7.4218445,3.977417,11.6352539,3.977417
				h63.8652954C242.5356445,267.0505981,235.9682007,259.7784424,228.4627075,250.666687z"/>
		</g>
		<g id="XMLID_22_">
			<path id="XMLID_72_" class="st2" d="M196.4604187,247.6663818c-0.59375,0-1.1928711-0.1757813-1.7163086-0.5410156
				c-7.0234375-4.9101563-12.2875977-10.9033203-15.6464844-17.8134766
				c-3.5805664-7.3662109-5.8432617-18.6826172,1.7768555-51.3271484
				c2.2724609-9.7353516,4.4980469-17.4179688,6.4614258-24.1962891
				c4.3632813-15.0644531,6.9970703-24.1572266,4.3540039-37.1054688
				c-2.0170898-9.8798828-5.4819336-14.0615234-6.6206055-15.4355469
				c-7.5605469-9.1254883-19.7133789-11.1601563-30.4355469-12.9550781
				c-8.0664063-1.3510742-13.5390625-1.2875977-18.3691406-1.2294922
				c-6.5029297,0.0791016-12.1225586,0.1435547-21.3217773-2.8793945
				c-6.9521484-2.2841797-14.8325195-4.8730469-20.2426758-12.3398438
				c-7.9511719-10.9736328-5.3007813-24.6279297-3.7919922-29.9892578c0.4482422-1.5947266,2.1079102-2.5258789,3.7001953-2.0751953
				c1.5952148,0.4487305,2.5239258,2.1054688,2.0751953,3.7001953c-1.2719727,4.5209961-3.5385742,15.9921875,2.875,24.84375
				c4.2705078,5.8935547,10.5786133,7.9658203,17.2573242,10.1601563c8.2509766,2.7109375,13.1606445,2.6557617,19.378418,2.5800781
				c5.0776367-0.059082,10.8364258-0.1274414,19.4306641,1.3110352
				c11.7548828,1.9682617,25.0786133,4.1992188,34.0644531,15.0449219
				c3.7426758,4.5166016,6.3198242,10.4257813,7.8793945,18.0644531
				c2.9389648,14.3964844-0.0083008,24.5712891-4.4697266,39.9736328
				c-1.9428711,6.7080078-4.1450195,14.3105469-6.3818359,23.890625
				c-8.1865234,35.0722656-4.1586914,43.3583984-2.2231445,47.3408203c2.9067383,5.9804688,7.5117188,11.2011719,13.6875,15.5185547
				c1.3579102,0.9492188,1.6894531,2.8203125,0.7402344,4.1777344
				C198.3383484,247.2200928,197.4067078,247.6663818,196.4604187,247.6663818z"/>
		</g>
	</g>
	<g id="XMLID_1_">
		<g id="XMLID_4_">
			<path id="XMLID_67_" class="st4" d="M316.129364,0h-104c-6.0751343,0-11,4.9248657-11,11v255c0,6.0751343,4.9248657,11,11,11h104
				c6.0751343,0,11-4.9248657,11-11V11C327.129364,4.9248657,322.2044983,0,316.129364,0z"/>
		</g>
		<g id="XMLID_6_">
			<rect id="XMLID_66_" x="207.796051" y="14.666687" class="st5" width="112.666626" height="247"/>
		</g>
		<g id="XMLID_5_">
			<path id="XMLID_65_" class="st6" d="M301.53479,34.000042H226.723938c-2.2613678,0-4.094574-1.8332062-4.094574-4.0945797
				v-0.0000076c0-2.2613735,1.8332062-4.0945778,4.094574-4.0945778H301.53479c2.2613831,0,4.094574,1.8332043,4.094574,4.0945778
				v0.0000076C305.629364,32.1668358,303.7961731,34.000042,301.53479,34.000042z"/>
		</g>
		<g id="XMLID_19_">
			<rect id="XMLID_64_" x="222.629364" y="213.0000458" class="st7" width="83" height="22"/>
		</g>
		<g id="XMLID_3_">
			<g id="XMLID_44_">
				<g id="XMLID_47_">
					<path id="XMLID_63_" class="st6" d="M256.9627075,65.1667099h-31.6666718
						c-1.4727631,0-2.6666718-1.1939087-2.6666718-2.6666679V44.333374c0-1.4727592,1.1939087-2.6666679,2.6666718-2.6666679
						h31.6666718c1.4727478,0,2.6666565,1.1939087,2.6666565,2.6666679V62.500042
						C259.629364,63.9728012,258.4354553,65.1667099,256.9627075,65.1667099z"/>
				</g>
			</g>
			<g id="XMLID_32_">
				<g id="XMLID_40_">
					<path id="XMLID_61_" class="st6" d="M304.129364,65.1667099h-37.3333435c-0.8284302,0-1.5-0.6715775-1.5-1.5v-0.0000038
						c0-0.8284264,0.6715698-1.5,1.5-1.5h37.3333435c0.8284302,0,1.5,0.6715736,1.5,1.5v0.0000038
						C305.629364,64.4951324,304.9577942,65.1667099,304.129364,65.1667099z"/>
				</g>
			</g>
			<g id="XMLID_16_">
				<g id="XMLID_23_">
					<path id="XMLID_60_" class="st6" d="M304.129364,59.1667061h-37.3333435c-0.8284302,0-1.5-0.6715698-1.5-1.4999962v-0.0000038
						c0-0.8284264,0.6715698-1.5,1.5-1.5h37.3333435c0.8284302,0,1.5,0.6715736,1.5,1.5v0.0000038
						C305.629364,58.4951363,304.9577942,59.1667061,304.129364,59.1667061z"/>
				</g>
			</g>
		</g>
		<g id="XMLID_11_">
			<g id="XMLID_43_">
				<g id="XMLID_46_">
					<path id="XMLID_59_" class="st6" d="M256.9627075,98.9167099h-31.6666718
						c-1.4727631,0-2.6666718-1.1939087-2.6666718-2.6666718V78.083374c0-1.4727631,1.1939087-2.6666641,2.6666718-2.6666641
						h31.6666718c1.4727478,0,2.6666565,1.1939011,2.6666565,2.6666641v18.1666641
						C259.629364,97.7228012,258.4354553,98.9167099,256.9627075,98.9167099z"/>
				</g>
			</g>
			<g id="XMLID_39_">
				<g id="XMLID_41_">
					<path id="XMLID_58_" class="st6" d="M304.129364,98.9167099h-37.3333435c-0.8284302,0-1.5-0.6715775-1.5-1.5v-0.0000076
						c0-0.8284225,0.6715698-1.4999924,1.5-1.4999924h37.3333435c0.8284302,0,1.5,0.6715698,1.5,1.4999924v0.0000076
						C305.629364,98.2451324,304.9577942,98.9167099,304.129364,98.9167099z"/>
				</g>
			</g>
			<g id="XMLID_36_">
				<g id="XMLID_38_">
					<path id="XMLID_57_" class="st6" d="M304.129364,92.9167099h-37.3333435c-0.8284302,0-1.5-0.6715775-1.5-1.5v-0.0000076
						c0-0.8284225,0.6715698-1.4999924,1.5-1.4999924h37.3333435c0.8284302,0,1.5,0.6715698,1.5,1.4999924v0.0000076
						C305.629364,92.2451324,304.9577942,92.9167099,304.129364,92.9167099z"/>
				</g>
			</g>
		</g>
		<g id="XMLID_45_">
			<g id="XMLID_34_">
				<g id="XMLID_35_">
					<path id="XMLID_56_" class="st6" d="M256.9627075,200.1667023h-31.6666718
						c-1.4727631,0-2.6666718-1.1939087-2.6666718-2.6666565V179.333374c0-1.4727631,1.1939087-2.6666718,2.6666718-2.6666718
						h31.6666718c1.4727478,0,2.6666565,1.1939087,2.6666565,2.6666718v18.1666718
						C259.629364,198.9727936,258.4354553,200.1667023,256.9627075,200.1667023z"/>
				</g>
			</g>
			<g id="XMLID_30_">
				<g id="XMLID_33_">
					<path id="XMLID_55_" class="st6" d="M304.129364,200.1667023h-37.3333435c-0.8284302,0-1.5-0.6715698-1.5-1.5l0,0
						c0-0.8284302,0.6715698-1.5,1.5-1.5h37.3333435c0.8284302,0,1.5,0.6715698,1.5,1.5l0,0
						C305.629364,199.4951324,304.9577942,200.1667023,304.129364,200.1667023z"/>
				</g>
			</g>
			<g id="XMLID_28_">
				<g id="XMLID_29_">
					<path id="XMLID_54_" class="st6" d="M304.129364,194.1667023h-37.3333435c-0.8284302,0-1.5-0.6715698-1.5-1.5l0,0
						c0-0.8284302,0.6715698-1.5,1.5-1.5h37.3333435c0.8284302,0,1.5,0.6715698,1.5,1.5l0,0
						C305.629364,193.4951324,304.9577942,194.1667023,304.129364,194.1667023z"/>
				</g>
			</g>
		</g>
		<g id="XMLID_62_">
			<rect id="XMLID_53_" x="222.629364" y="111.333374" class="st6" width="83" height="55.0833321"/>
		</g>
		<g id="XMLID_12_">
			<circle id="XMLID_52_" class="st6" cx="303.1710205" cy="251.5417023" r="2.4583333"/>
		</g>
		<g id="XMLID_17_">
			<circle id="XMLID_51_" class="st6" cx="296.1710205" cy="251.5417023" r="2.4583333"/>
		</g>
		<g id="XMLID_18_">
			<circle id="XMLID_50_" class="st6" cx="289.1710205" cy="251.5417023" r="2.4583333"/>
		</g>
	</g>
	<g id="XMLID_165_">
		<g id="XMLID_157_">
			<g id="XMLID_95_">
				<g id="XMLID_91_">
					<path id="XMLID_49_" class="st8" d="M59.9516983,220.6617889c0.716095-0.8835907,1.7842941-1.8860321,3.2894173-2.3300476
						c1.6382866-0.4832458,2.9045906-0.042511,3.0152702-0.4111633c0.1298447-0.432663-1.4218597-1.6813049-3.1523476-1.6447144
						c-1.2462807,0.0263519-2.9113655,0.7261353-3.3579292,2.2272491
						C59.4602623,219.4638977,59.799614,220.3294678,59.9516983,220.6617889z"/>
				</g>
				<g id="XMLID_88_">
					<path id="XMLID_48_" class="st8" d="M60.431385,218.7429199c0.3539085-0.4889221,0.9829712-1.513443,0.9936638-2.8782349
						c0.0098381-1.2586823-0.5061417-2.8230286-1.0964546-2.8439636c-0.5601997-0.0198669-1.1874084,1.3503265-1.2335358,2.5355835
						C59.0306129,217.212204,60.1041832,218.4046783,60.431385,218.7429199z"/>
				</g>
				<g id="XMLID_87_">
					<path class="st9" d="M43.2304497,234.0935669c0.6847763-2.3226624,2.0122681-5.6706543,4.7971001-8.7718048
						c2.5993729-2.8946533,4.5302315-3.4158478,5.8935127-5.8935089c1.0872192-1.9759216,1.8624954-5.2852783-0.1370277-10.9647675
						c2.6216583,1.9354248,6.2614212,5.35495,7.8123703,10.5535889c0.2872543,0.9627991,1.8767509,6.290741-0.2741508,7.9494019
						c-1.2689667,0.9785004-2.7669144-0.1473236-5.0711555,0.1370697c-2.0654221,0.2549286-4.8497047,1.6517944-7.8123703,6.852951
						C46.7026176,234.0021667,44.9665565,234.0478973,43.2304497,234.0935669z"/>
				</g>
			</g>
			<g id="XMLID_162_">
				<g id="XMLID_86_">
					<path id="XMLID_42_" class="st8" d="M24.8720989,220.6617889c-0.7160969-0.8835907-1.784296-1.8860321-3.2894192-2.3300476
						c-1.6382866-0.4832458-2.9045944-0.042511-3.0152683-0.4111633c-0.1298485-0.432663,1.421854-1.6813049,3.1523438-1.6447144
						c1.2462807,0.0263519,2.9113693,0.7261353,3.3579311,2.2272491
						C25.363533,219.4638977,25.0241814,220.3294678,24.8720989,220.6617889z"/>
				</g>
				<g id="XMLID_170_">
					<path id="XMLID_37_" class="st8" d="M24.3924084,218.7429199c-0.3539085-0.4889221-0.9829712-1.513443-0.9936619-2.8782349
						c-0.0098381-1.2586823,0.5061417-2.8230286,1.0964565-2.8439636c0.5601978-0.0198669,1.1874046,1.3503265,1.233532,2.5355835
						C25.7931824,217.212204,24.719614,218.4046783,24.3924084,218.7429199z"/>
				</g>
				<g id="XMLID_163_">
					<path class="st9" d="M41.5933456,234.0935669c-0.6847763-2.3226624-2.0122681-5.6706543-4.7971039-8.7718048
						c-2.599369-2.8946533-4.5302277-3.4158478-5.893507-5.8935089c-1.0872211-1.9759216-1.8624954-5.2852783,0.1370258-10.9647675
						c-2.6216583,1.9354248-6.2614212,5.35495-7.8123722,10.5535889c-0.2872524,0.9627991-1.876749,6.290741,0.2741528,7.9494019
						c1.2689667,0.9785004,2.7669144-0.1473236,5.0711536,0.1370697c2.065424,0.2549286,4.8497066,1.6517944,7.8123722,6.852951
						C38.1211777,234.0021667,39.857235,234.0478973,41.5933456,234.0935669z"/>
				</g>
			</g>
		</g>
		<g id="XMLID_164_">
			<g id="XMLID_85_">
				<path id="XMLID_9_" class="st10" d="M54.6796646,277.130127H30.1441307c-2.3990803,0-4.4340668-1.7619324-4.7773533-4.136322
					l-5.1830711-35.8495789c-0.4207954-2.9104919,1.8365898-5.5177307,4.7773533-5.5177307h34.9016762
					c2.9407616,0,5.1981468,2.6072388,4.7773552,5.5177307l-5.183075,35.8495789
					C59.1137314,275.3681946,57.078743,277.130127,54.6796646,277.130127z"/>
			</g>
			<g id="XMLID_90_">
				<path id="XMLID_8_" class="st11" d="M20.1441536,236.6976624c0.0077305,0.148056,0.017868,0.2965851,0.0395527,0.4465637
					l0.2326927,1.609314h43.9910126l0.2326965-1.609314c0.0216827-0.1499786,0.0318222-0.2985077,0.0395508-0.4465637H20.1441536z"
					/>
			</g>
			<g id="XMLID_93_">
				<polygon id="XMLID_7_" class="st11" points="21.486454,246.1547394 63.3373566,246.1547394 63.6345978,244.0988464 
					21.1892128,244.0988464 				"/>
			</g>
			<g id="XMLID_92_">
				<polygon id="XMLID_2_" class="st11" points="20.9514008,242.4541473 63.8724098,242.4541473 64.1696548,240.3982544 
					20.6541595,240.3982544 				"/>
			</g>
		</g>
	</g>
	<g id="XMLID_103_">
		<path id="XMLID_15_" class="st12" d="M348.2960205,215.500061c15.3100586-4.0359497,26.6992798-7.0383301,34-1
			c1.5143433,1.2525024,3.5984497,3.5106812,5,7.666626c0.4555664,5.5378418,0.7067871,13.7924194-0.6666565,23.666687
			c-1.6653137,11.9725952-2.4979553,17.9588623-7,22c-6.7889709,6.0939331-17.4263916,4.989502-30.1666565,3.666687
			c-5.7453613-0.5964966-7.3600769-1.4038086-8.3333435-2c-7.2245789-4.4255371-7.8869324-14.850769-8.5-24.5
			c-0.6427612-10.1168213-1.250824-19.6873779,5-25.333374C338.3669128,219.0004883,339.9676514,217.6955566,348.2960205,215.500061
			z"/>
		<g id="XMLID_20_">
			<path id="XMLID_99_" class="st13" d="M400.7127075,242.750061c-0.3611145,2.833313-0.722229,5.666687-1.0833435,8.5
				c0.6847229,1.4731445,3.1109924,6.2056885,8.6666565,8.833313c3.6095276,1.7071533,6.9300842,1.7644043,8.6666565,1.666687
				c-0.4974976-1.3560181-1.3661499-3.2852173-2.916626-5.25c-1.8936157-2.3995361-3.2062988-2.8273315-4.166687-4.416687
				c-0.9767761-1.6165161-1.5499878-4.3699341,0.416687-9.333313
				C407.101593,242.750061,403.9071655,242.750061,400.7127075,242.750061z"/>
			<path id="XMLID_98_" class="st14" d="M401.5460205,248.833374c1.7166443,1.0800171,1.5884399,2.4573364,3,4.583313
				c0.316925,0.477356,2.4862671,3.6513672,6.2500305,4.75c0.9609985,0.2805176,3.1983032,0.7679443,6.166626-0.166626
				c0.6049194,0.5794678,1.6035767,1.4449463,3,2.25c1.4943237,0.8615112,2.2025146,0.9380493,2.416687,1.583313
				c0.401001,1.208252-1.3924561,3.0170288-2.916687,3.916687c-2.8422241,1.6776123-5.911377,0.8807983-6.083313,0.833313
				c-2.8728638-0.7929688-3.6158752-2.8658447-6.25-5.25c-1.7818909-1.612793-4.5995483-3.5222168-9.0833435-4.666687
				c-0.304657-0.8361206-0.691864-2.1292114-0.833313-3.75c-0.166687-1.9100952-0.3345642-3.8334351,0.75-4.583313
				C398.9672241,247.638855,400.6160278,248.248291,401.5460205,248.833374z"/>
			<path id="XMLID_101_" class="st13" d="M441.546051,245.833374c0.1085815,0.6834717,0.8138428,4.6977539,4.5,7.083313
				c2.3291016,1.5073242,4.6707764,1.6022949,5.666626,1.583374c2.6338501-0.5303955,8.8696289-2.1915894,13.083374-7.75
				c0.9430542-1.2439575,1.6427002-2.4957275,2.166626-3.666687c-1.9537354,0.678772-4.3640137,1.4029541-7.166626,2
				c-3.7449951,0.7977905-5.6618042,1.1860962-7.833374,0.666687c-1.1993408-0.2868652-3.6499634-1.109375-6.083313-3.916687
				C444.434906,243.166687,442.990509,244.500061,441.546051,245.833374z"/>
			<path id="XMLID_100_" class="st14" d="M450.462677,258.916687c1.3042603-1.2509155,3.4579468-3.0373535,6.5-4.333313
				c4.9889526-2.1253052,7.3225098-0.7822876,10.5-3.083313c3.4413452-2.4920654,5.5093994-7.5470581,3.916687-9.75
				c-1.0593872-1.46521-3.5116577-1.3552856-4-1.333374c-3.251709,0.145813-5.0554199,2.8627319-5.25,3.166687
				c-0.5359497,1.6011963-1.6711426,4.0294189-4.083313,5.75c-2.6582031,1.8960571-5.6775513,2.0842285-7,2.166687
				c-3.7376099,0.2329712-5.4909668-0.9498291-6.333374,0.083313c-0.885376,1.0858765,0.1748657,3.4675903,1.166687,4.75
				C447.4663391,258.385376,449.8021545,258.817627,450.462677,258.916687z"/>
			<path id="XMLID_27_" class="st15" d="M421.296051,116.6667175c-1.2807007,1.4612732,0.210083,2.9989624-0.333374,6.833313
				c-0.6616211,4.6681213-3.4057007,6.159729-2.5,8c0.8745117,1.776825,4.4743652,2.5029297,6.833374,1.3333435
				c2.9412231-1.458252,3.2148438-5.4971008,3.666626-12.1666565c0.1258545-1.8581543,0.0649414-2.9580078-0.666626-3.8333435
				C426.7345886,114.9650879,422.8063049,114.943512,421.296051,116.6667175z"/>
			<path id="XMLID_21_" class="st13" d="M416.462677,139.1667175c0.4043579-1.0743713,0.8653564-2.6925354,0.833374-4.666687
				c-0.029541-1.8244629-0.4534912-2.3050842-0.333374-3.833313c0.223999-2.8504333,2.012146-5.1651611,2.5-5
				c0.4663696,0.1578674-0.6765137,2.43927,0.5,4.1666565c1.0147095,1.4898682,3.4697266,2.1490173,4.5,1.3333435
				c0.637146-0.504425,0.3442383-1.2679749,0.833374-4.5c0.3858643-2.5498352,0.6993408-2.9412537,1-3.166687
				c1.1196289-0.839447,3.3817749-0.3666687,4,0.8333435c0.3104858,0.6026001,0.0256348,1.0377197-0.833374,3.5
				c-1.2834473,3.6790161-1.2433472,4.4154358-2.166626,5c-1.0906982,0.6905823-1.74823,0.0437622-2.833374,0.8333435
				c-1.0414429,0.7578125-1.0943604,1.8328247-1.666626,3.1666565c-0.491333,1.1452026-1.4464111,2.6697083-3.5,4.1666565
				C418.351593,140.388916,417.407135,139.777832,416.462677,139.1667175z"/>
			<path id="XMLID_89_" class="st13" d="M367.629364,107.583374c-2.9666443,5.2732239-2.8581238,10.3331909-2.75,13.5
				c0.174408,5.1087341,0.3699341,10.8358459,4.75,14.6666565c4.4421692,3.8851013,10.4017944,3.3825684,12.1666565,3.166687
				c-0.211853-1.6864624-0.4740601-3.8668518-0.75-6.416687c-0.645752-5.9670105-0.5963135-6.8387146-0.083313-7.833313
				c1.4389954-2.789917,4.1864319-2.0117188,5.6666565-4.8333435c0.4876404-0.9295349,0.4265442-1.4658813-0.0833435-7.4166565
				c-0.4884949-5.7010803-0.5947571-7.1035461-1.4166565-9.25c-0.7266541-1.8977356-1.3509216-3.4606628-2.9166565-4.25
				c-1.8967896-0.9562378-4.0167847-0.1931152-5.416687,0.333313
				C371.5966187,101.2052307,368.6917725,105.6949463,367.629364,107.583374z"/>
			<path id="XMLID_96_" class="st16" d="M374.7960205,184.5000305c15.5629578-0.5848083,27.5270691-1.3769836,35.6666565-2
				c6.1113892-0.4677734,10.5473633-0.8770142,13.333374,2c1.6923828,1.7476501,2.6256104,4.5527039-0.833374,23.5
				c-2.0836182,11.4134216-3.1796265,17.2710266-5.833313,24.6666565c-2.2717896,6.3312988-4.7685547,11.4997559-6.833313,15.333374
				c-1.2515564,0.2990723-3.7107239,0.7097168-6.666687,0c-2.6533813-0.637085-4.5125732-1.8901367-5.5-2.666687
				c1.1655273-4.9534912,2.1749268-10.9656982,2.5-17.833313c0.4161377-8.7910767-0.4118042-16.3907471-1.5-22.3333435
				c-3.8528442,1.8241272-10.2315979,4.2421265-18.3333435,4.5c-5.8725891,0.1869202-18.287323,0.5820618-21.333313-6.3333435
				c-2.2171021-5.0335693,1.1544495-12.5213013,6.5-16.1666565
				C369.3986511,184.8236084,372.9898987,184.518219,374.7960205,184.5000305z"/>
			<path id="XMLID_94_" class="st17" d="M340.7960205,226.833374c2.3831482,5.3491211,12.17453,5.5831909,15.666687,5.666687
				c2.6123047,0.062439,6.4369507-0.1190796,23.333313-6.166687c15.0117798-5.3731079,19.4769592-7.9086304,21.8333435-9.333313
				c4.7248535-2.8567505,8.3589478-5.7142334,10.833313-7.8333435c3.4265747,6.1966858,7.3475952,12.7384949,11.833374,19.4999695
				c4.9815674,7.5087891,9.9899292,14.2791748,14.833313,20.333374c0.984314,0.0766602,4.9187012,0.2684326,8.333313-2.5
				c1.9443359-1.576416,2.8953857-3.4439087,3.333374-4.5c-4.6970215-9.5935059-8.1072388-17.8807983-10.5-24.166687
				c-6.7495728-17.7311707-7.7763062-25.7702026-14.833374-28.6666565c-2.4354858-0.9996033-7.0681152-0.7219849-16.333313-0.166687
				c-5.0635071,0.3034668-7.9920044,0.7282104-14.6666565,1.5c-17.6306458,2.0386047-15.9384155,1.2419739-19.3333435,2
				c-17.9265747,4.0027161-27.6400757,17.8488464-29.5,20.5000305
				C342.6382141,217.2637939,338.9040222,222.5866699,340.7960205,226.833374z"/>
			<path id="XMLID_97_" class="st13" d="M425.379364,180.583374c1.6541748-0.1476135,4.4342041-0.1304626,7.375,1.25
				c3.9921875,1.8740234,6.5748291,5.4597778,7.4375,8.875c0.5466919,2.1642456,0.4900513,4.6058655-0.25,4.875
				c-0.5175781,0.1882324-1.1607056-0.762146-1.75-0.5c-0.6659546,0.2962646-0.1868896,1.6624146-0.875,2.1875
				c-0.9734497,0.7428589-3.8195801-0.5509338-3.9375-1.9375c-0.0774536-0.9105225,1.078125-1.1958923,1.0625-2.3125
				c-0.0188599-1.3467712-1.7198486-2.3486023-1.875-2.4375c-1.3539429-0.7757263-2.2980957-0.321991-2.6875-1
				c-0.4165039-0.7252808,0.5442505-1.4527283,0.3125-2.75c-0.1733398-0.9701233-0.8936157-1.5874634-1.375-2
				c-1.9829102-1.6994019-4.2061157-1.1170044-4.5625-2.125C424.124176,182.3401489,424.2258606,181.7109375,425.379364,180.583374z
				"/>
			<path id="XMLID_102_" class="st18" d="M420.462677,138c-1.6687622-1.4187622-4.2943115-1.7310181-6.333313-1
				c-1.0956421,0.3928223-3.6063843,1.6550293-7,11.666687c-2.7577515,8.1358643-2.4731445,11.354187-4.333313,11.833313
				c-1.8846436,0.4854736-2.8057861-2.6558228-9.666687-9c-3.9829102-3.6829224-6.06604-4.8376465-7.833313-8.333313
				c-1.0482178-2.0733032-1.5148926-4.0405884-1.7354126-5.565918c-0.0388794-0.2687988-0.0726929-0.5281982-0.0979004-0.767395
				c-1.5296021,0.5777588-4.4442749,1.9158936-7,4.833313c-0.5627441,0.642395-3.2468872,3.7063599-3.666687,6.833313
				c-0.3256226,2.425293,0.4847412,6.5731201,16.833313,18.333374c12.6132813,9.0732422,19.0048218,13.5610352,23.166687,11.166626
				c0.7369995-0.4239502,1.1038818-0.8899536,1.9465332-3.258667c0.5067139-1.4242554,1.1853638-3.5361938,2.2200928-6.741333
				c3.5880127-11.1138916,4.6677246-14.3394775,5.166687-19.666626C422.8505554,140.6333618,421.3980408,138.7952881,420.462677,138
				z"/>
			<path id="XMLID_111_" class="st19" d="M427.129364,176.166687c-1.855896-0.0465088-4.5126343-0.1954956-7.666687-0.666687
				c-1.5278931-0.2282104-3.1097412-0.4663086-4.7200928-0.758667c-5.2116699-0.946167-10.7324829-2.479187-15.7798462-6.241333
				c-7.3007202-5.4416504-10.1691284-12.9793701-12.333374-18.666626c-1.8272095-4.8016968-2.6586914-9.0715942-3.0687256-12.232605
				c-0.0388794-0.2687988-0.0726929-0.5281982-0.0979004-0.767395c-1.5252686,0.1066895-5.2922974,0.1660767-9.333374-2
				c-4.0418091-2.1665649-6.0779419-5.3373413-6.833313-6.666687c-5.1757813,5.3129272-12.1014404,13.2232666-18.833313,23.833313
				c-5.0460205,7.9529419-10.2088013,16.0899658-13.5,28.166687c-4.5747681,16.786499-2.2011719,28.9572754-1.5,32.166687
				c0.6291504,2.8797607,3.7352905,17.0974731,9.333313,17.5c1.5684204,0.112793,2.8907471-0.890686,11.166687-11.833313
				c7.5222778-9.946228,8.6165161-12.0084839,12.666626-15.833374c5.0238037-4.7443848,8.9625854-6.8809814,10.5-7.666687
				c4.104126-2.0973511,7.8427124-3.1258545,10.5-3.666626c-1.854248-2.3014526-4.3571777-6.0371094-5.833313-11.166687
				c-0.7360229-2.5577393-1.0522461-4.8901978-1.166687-6.833313c3.1494751,2.781189,7.3383789,5.8811646,12.666687,8.5
				c12.984436,6.3817749,25.2705688,6.237854,31.666626,5.666626c0.5026855-0.392395,2.6593018-2.1654663,3.166687-5.333313
				C428.5723572,178.9006958,427.4825134,176.7912598,427.129364,176.166687z"/>
			<path id="XMLID_75_" class="st20" d="M382.129364,101.333374c-0.8334351,1.291748-2.1767883,2.8733215-4.1666565,3.3333435
				c-1.7618713,0.4073181-2.7304077-0.3652039-4.166687,0.1666565c-2.3182068,0.858429-3.1125488,4.0993042-3.333313,5
				c-1.2921143,5.2718506,2.1828613,7.1917419,1.6666565,12.3333435c-0.3179321,3.1667786-2.1456604,7.5134277-6,9.1666565
				c-4.4212952,1.8964233-10.1052246-0.3534851-12.6666565-4.3333435c-2.5930481-4.0289612-1.2408447-8.6728821-1-9.5
				c1.4000549-4.8082581,4.4605713-4.5249023,7.333313-10.1666565c2.6430664-5.1907349,0.9854736-7.2631836,3.8333435-10
				c3.183197-3.0590515,7.8985901-3.0111694,9-3c3.2504578,0.0329895,5.7239075,1.1438904,7,1.8333435
				c1.5409546-0.0275879,3.5192871,0.2348328,5.1666565,1.5c2.8546143,2.1923218,3.1954956,6.2281494,3.5,9.833313
				c0.3661499,4.335144-0.5638123,4.6480103,0.166687,7.5c1.0792542,4.213562,3.3504333,4.4726868,3.5,7.5
				c0.1581421,3.2003784-2.1778259,7.0055542-5.666687,8c-2.0921021,0.5963135-5.4882813,0.4354858-6.833313-1.833313
				c-1.1846008-1.9981995-0.1746521-4.6135559,0.833313-6c1.0431824-1.434906,1.8486633-1.2295532,3-2.3333435
				c4.0787964-3.9103088,1.0945435-13.3178406,0.666687-14.6666565
				C383.3609619,103.7697449,382.6428833,102.2886963,382.129364,101.333374z"/>
		</g>
		<g id="XMLID_14_">
			<path id="XMLID_26_" class="st21" d="M368.6382751,221.678894c-1.7894897,0.0325928-3.5789795,0.0651855-5.3684692,0.0978394
				c-0.1030273-0.7527466-0.2188721-1.4960938-0.3650513-2.234375c-0.8125-4.1054688-1.9267578-9.7275391-6.3847656-13.9335938
				c-3.7294922-3.5166016-7.9316406-5.0068359-11.8320313-4.2001953c-0.2373047,0.0488281-2.3701172,0.5205078-4.3398438,1.9746094
				c-5.0979614,3.7612915-5.7277832,12.835083-5.5177612,18.9119873c-0.836731,0.0152588-1.6735229,0.0305176-2.5102539,0.0457764
				c-3.5424805,0.0645752-6.3193359,3.0942993-6.0322876,6.6257935c0.4588013,5.6452637,1.2321777,11.8035889,2.4665527,18.3666382
				c1.3938599,7.4110107,3.1484375,14.1310425,5.0122681,20.0921631c0.8840942,2.8274536,3.3206177,4.8973389,6.2588501,5.2749634
				c3.6967163,0.4750366,6.9678345,0.7908936,9.7288818,1.0078735c5.2747803,0.4145508,7.9245605,0.4083252,10.75-1
				c0.026123-0.0130615,0.0521851-0.026123,0.078125-0.0393066c3.052002-1.5475464,5.1611938-4.4800415,5.9291382-7.8146973
				c1.1622925-5.046936,2.0144043-9.3064575,2.6177368-12.5209961c1.2058105-6.4245605,1.9859009-11.7047729,3.25-20.25
				c0.2850952-1.927124,0.5430298-3.7069702,0.7713013-5.3052368
				C373.5401917,224.0501709,371.3934021,221.6286621,368.6382751,221.678894z M340.8285217,222.1858521
				c-0.3181152-8.3602295,1.4188232-12.7474365,3.0820923-13.9745483c0.9160156-0.6757813,1.9970703-0.9277344,1.9951172-0.9277344
				c1.9257813-0.3994141,4.2333984,0.5556641,6.4980469,2.6914063c3.0615234,2.8876953,3.8867188,7.0556641,4.6152344,10.734375
				c0.0774536,0.3902588,0.1420288,0.7830811,0.204834,1.1776123
				C351.7587585,221.9865723,346.2936096,222.0861816,340.8285217,222.1858521z"/>
			<path id="XMLID_68_" class="st22" d="M360.004364,269.333374c-1.9678955-0.1169434-11.1749878-0.6639404-17.5-7.125
				c-2.3867798-2.4381714-4.3270264-5.6815796-6.75-18.875c-0.9992676-5.4413452-2.0733032-12.5420532-2.7456665-21.0050049
				c-0.2294922,0.0042114-0.4591064,0.0083618-0.6885986,0.0125732c-3.5424805,0.0645752-6.3193359,3.0942993-6.0322876,6.6257935
				c0.4588013,5.6452637,1.2321777,11.8035889,2.4665527,18.3666382c1.3938599,7.4110107,3.1484375,14.1310425,5.0122681,20.0921631
				c0.8840942,2.8274536,3.3206177,4.8973389,6.2588501,5.2749634c3.6967163,0.4750366,6.9678345,0.7908936,9.7288818,1.0078735
				c5.2747803,0.4145508,7.9245605,0.4083252,10.75-1c0.026123-0.0130615,0.0521851-0.026123,0.078125-0.0393066
				c1.5950317-0.8087769,2.9244995-2.00177,3.9476318-3.4267578C363.131012,269.375,361.6242371,269.4296265,360.004364,269.333374z
				"/>
		</g>
	</g>
</g>
</svg>
