<?xml version="1.0" encoding="utf-8"?>
<!-- Generator: Adobe Illustrator 19.0.0, SVG Export Plug-In . SVG Version: 6.00 Build 0)  -->
<svg version="1.1" id="Layer_1" xmlns="http://www.w3.org/2000/svg" xmlns:xlink="http://www.w3.org/1999/xlink" x="0px" y="0px"
	 width="517px" height="475px" viewBox="0 0 517 475" style="enable-background:new 0 0 517 475;" xml:space="preserve">
<style type="text/css">
	.st0{fill:#C7DBF9;}
	.st1{fill:#ABABDD;}
	.st2{fill:#6C7892;}
	.st3{fill:#909FC6;}
	.st4{fill:#4F457A;}
	.st5{fill:#3DE08E;}
	.st6{fill:#E53966;}
	.st7{fill:#65CBE7;}
	.st8{fill:#FAB56D;}
	.st9{fill:#2A3477;}
	.st10{fill:#FCC691;}
	.st11{fill:#34142C;}
	.st12{fill:#1A509D;}
	.st13{fill:#FFFFFF;}
	.st14{fill:#FCB912;}
	.st15{fill:#FFAECB;}
	.st16{fill:#DF2F55;}
	.st17{fill:#C61E4B;}
	.st18{fill:#44F2D1;}
	.st19{fill:#488AE0;}
	.st20{fill:#219193;}
	.st21{fill:#1D6D6C;}
	.st22{fill:#DD9F14;}
	.st23{fill:#BFC9CB;}
	.st24{fill:#EEEDED;}
	.st25{fill:#748085;}
	.st26{fill:#BCBCBC;}
	.st27{fill:#383A44;}
	.st28{fill:#141414;}
	.st29{fill:#ECECEC;}
	.st30{fill:#D8D8D7;}
	.st31{fill:#C1CBCE;}
	.st32{opacity:0.07;}
	.st33{fill:#D3D3D3;}
	.st34{fill:#35B6D5;}
	.st35{fill:#1B1B1C;}
	.st36{fill:#454147;}
	.st37{fill:#2B2867;}
	.st38{fill:#FFD878;}
</style>
<g id="XMLID_89_">
	<g id="XMLID_88_">
		<ellipse id="XMLID_62_" class="st0" cx="254" cy="191" rx="254" ry="191"/>
		<ellipse id="XMLID_83_" class="st1" cx="280.5" cy="455" rx="236.5" ry="20"/>
	</g>
	<g id="XMLID_86_">
		<g id="XMLID_85_">
			<path id="XMLID_119_" class="st2" d="M278.4549866,447.8832703L109.1689453,193.2143555l6.6621094-4.4287109
				l169.2857056,254.669342c1.2229004,1.8396912,0.7227783,4.3224487-1.1170349,5.5451965l0,0
				C282.1601563,450.2227783,279.6777649,449.7227478,278.4549866,447.8832703z"/>
		</g>
		<g id="XMLID_87_">
			<path id="XMLID_118_" class="st3" d="M95.500267,449.0001831h-0.0000076
				c-1.8397903-1.2227478-2.3399124-3.7055054-1.117012-5.5451965l169.2857056-254.669342l6.6621094,4.4287109
				L101.0450134,447.8832703C99.8222504,449.7227478,97.3398514,450.2227783,95.500267,449.0001831z"/>
		</g>
		<g id="XMLID_84_">
			<path id="XMLID_112_" class="st4" d="M323.5830078,196H19.1664982c-2.7614212,0-4.9999943-2.2385712-4.9999943-5l0,0
				c0-2.7614288,2.2385731-5,4.9999943-5h304.4165039c2.7614136,0,5,2.2385712,5,5l0,0
				C328.5830078,193.7614288,326.3444214,196,323.5830078,196z"/>
		</g>
		<rect id="XMLID_120_" x="30.333313" y="196" class="st5" width="69" height="86.666626"/>
		<path id="XMLID_123_" class="st6" d="M121.666687,216c-0.1367798,6.3449707-1.1760864,11.7728882-2.333374,16
			c-4.777771-0.333374-9.555542-0.666687-14.333313-1c-0.111084,10-0.222229,20-0.333313,30
			c5.9799805,1.6046753,12.5513916,3.1004028,19.666626,4.333313C132.0913086,266.6776123,139.354248,267.5115967,146,268
			c-0.0236816-0.4415894-0.163208-4.3017578,3-7c1.8870239-1.6096802,3.9932861-1.9916382,5.5-2.0155029
			c1.5067139,0.0238647,3.6129761,0.4058228,5.5,2.0155029c3.163208,2.6982422,3.0236816,6.5584106,3,7
			c6.645752-0.4884033,13.9086914-1.3223877,21.666687-2.666687c7.1152344-1.2329102,13.6866455-2.7286377,19.666626-4.333313
			c-0.111084-10-0.222168-20-0.333313-30c-4.777771,0.333313-9.555542,0.666626-14.333313,1
			c-1.1572266-4.2271118-2.1965332-9.6550293-2.333374-16c-0.1712646-7.944519,1.1286011-14.7521973,2.6618042-20h-70.9902344
			C120.5380859,201.2478027,121.8379517,208.055481,121.666687,216z"/>
		<path id="XMLID_126_" class="st7" d="M231.333313,238c0.2416992,19.3221436,0.8963013,33.7005615,0.333313,57.333313
			c-0.1931152,8.1056519-0.4682617,14.7331543-0.666626,19c7.444458-0.444458,14.888855-0.888855,22.333313-1.333313
			c2.791626-13.7774048,5.3069458-28.5811768,7.333313-44.333374C262.8807983,251.4550781,264.2453613,235.1777344,265,220
			c0.7546387,15.1777344,2.1192017,31.4550781,4.333374,48.666626c2.0263672,15.7521973,4.541687,30.5559692,7.333313,44.333374
			c7.444458,0.444458,14.888855,0.888855,22.333313,1.333313c-0.1983643-4.2668457-0.4735107-10.8943481-0.666626-19
			c-0.5629883-23.6327515,0.0916138-38.0111694,0.333313-57.333313c0.1257935-10.0558472,0.1750488-24.4074097-0.2139893-42
			h-66.9053345C231.1583252,213.5925903,231.2075195,227.9441528,231.333313,238z"/>
	</g>
	<g id="XMLID_24_">
		<path id="XMLID_75_" class="st8" d="M257.6520691,437.3566895c0,0.1583862,1.0558472,10.9278564,1.0558472,10.9278564
			l-8.3410645,0.7390747l-1.1086121-11.3501892L257.6520691,437.3566895z"/>
		<polygon id="XMLID_74_" class="st8" points="166.0587463,439.5739441 165.266861,449.7626953 173.2911835,449.7626953 
			174.9277191,437.884613 		"/>
		<path id="XMLID_73_" class="st9" d="M232.2769623,230.4137878c0.0391541,6.6234283,1.4763336,11.3864746,3.4640808,23.0604248
			c0.9153137,5.3757324,0.5324249,3.9067383,3.2932281,24.5223389c2.5780487,19.2509766,2.9316864,20.6792603,4.7160339,34.2089233
			c1.8358002,13.9197083,1.5205231,12.8555908,3.8009949,30.9710693
			c3.5221863,27.9795227,4.1145172,29.2492065,6.1238251,47.3716125c0.8499451,7.6660767,0.962616,9.4109802,2.745163,25.8327026
			c1.0823364,9.9712219,1.9968262,18.1352844,2.6043701,23.5098267c-3.725296,1.4113464-9.303009,2.9587097-16.1190186,2.8155212
			c-2.9723053-0.0624084-5.6241608-0.4346313-7.8835144-0.9150391c-0.5789337-3.1140747-1.5105896-7.907074-2.815567-13.7257996
			c-3.0500946-13.6000061-5.5521393-21.2659302-8.5170441-32.3084106
			c-3.3725433-12.560791-2.4796295-11.3736572-6.7573242-28.7890015
			c-7.8851929-32.1022644-11.827774-48.1533508-15.9078369-54.1289673
			c-2.1533966-3.1538391-7.1027222-9.7504578-7.8835449-19.3568726c-0.4144745-5.0993958,0.5226135-8.8699036,1.126236-11.5437622
			c4.9533539-21.9421692-0.1724091-24.8631897,4.7160187-39.9104156
			c1.8526764-5.7028351,7.6959534-23.6890869,21.6797485-27.3812408c3.7760162-0.9970093,7.1662292-0.6931458,9.4320831-0.2815399
			c0.3961182,1.4206848,0.9587097,3.6433868,1.4077759,6.4053497
			C232.2892609,225.6083069,232.2703094,229.2879944,232.2769623,230.4137878z"/>
		<path id="XMLID_72_" class="st8" d="M182.0193939,85.3425903c0.2982178-2.2022934,0.9138336-3.7751617,1.1614227-4.4344864
			c0.8060455-2.1464386,1.7937775-5.4806824,2.5339966-10.6287079c2.6288757,1.5888748,5.6093597,3.6392365,8.6929932,6.2646103
			c2.8413086,2.4190598,5.1803741,4.8241119,7.0740662,7.0036697c-1.2774811,3.1861572-1.1152954,5.475296-0.7390747,6.9684906
			c0.6426392,2.5506973,2.0995636,3.5321884,2.006073,5.5607147c-0.1008453,2.1880417-1.9263153,3.8756943-3.3786621,4.9272003
			c-1.7483521,0.8328018-3.2537689,1.0431976-4.36409,1.0558243c-6.5279541,0.074295-12.2602997-6.5409164-13.0219269-11.9308853
			C181.8599701,89.2499924,181.7336273,87.4528885,182.0193939,85.3425903z"/>
		<path id="XMLID_71_" class="st10" d="M214.7853394,43.4260979c3.7917938,11.5852699,4.1607666,21.0302162,3.9065857,27.0292778
			c-0.414505,9.7823944-2.5818634,12.6619263-4.434494,14.1481323c-3.6712341,2.9450912-8.7468414,2.5365982-11.4029694,2.3228302
			c-1.7217865-0.1385803-6.4221954-0.5794144-10.9806519-4.0121613c-5.8342896-4.3935013-7.34552-10.6076202-7.7075653-12.3532181
			c-1.1079712-0.2788315-4.4192505-1.2674866-6.7997284-4.464035c-0.5559235-0.7465057-2.5799713-3.4644203-2.280426-7.0445251
			c0,0,0.2438812-2.9146996,2.6395874-5.8070717C181.4568939,48.7405663,195.5952606,44.8464432,214.7853394,43.4260979z"/>
		<path id="XMLID_70_" class="st11" d="M212.1457672,49.3739357c-3.440033,0.8587914-6.2245789,0.9664879-8.0947113,0.915062
			c-5.9800873-0.1644325-9.3410339-2.1408157-12.106842-0.0703964c-0.5242004,0.3924065-1.100296,1.2939873-2.2524567,3.0971222
			c-2.7693939,4.3340874-2.9378967,6.4613457-4.1529388,6.546154c-1.550354,0.1082115-2.1365814-3.2952194-5.138382-3.8009949
			c-0.4596252-0.0774345-1.132019-0.1907234-1.7597046,0.14077c-2.342514,1.2371979-2.6299286,7.9130859,0.351944,10.487915
			c1.9510956,1.6847687,4.5733032,0.9846344,5.6310883,3.0971222c0.0303955,0.0607071,0.7014008,1.437355,0.1407928,2.1116638
			c-0.9500427,1.1427231-5.0551758-0.1910858-7.8835449-2.2524567c-3.8427277-2.8006592-6.9460144-8.1231232-5.6310883-11.9660797
			c0.3551483-1.0379677,0.7590485-1.1683998,1.1262054-2.5339966c0.6997375-2.6026382-0.3171997-3.8030548-0.4223328-6.6165504
			c-0.0257874-0.6899223-0.1635895-5.963665,2.6747894-7.7427521c1.6762848-1.0506744,3.2186584-0.1479073,3.9417572-1.2669983
			c0.7693176-1.1905937-0.7554016-2.554615-0.4223328-5.0679893c0.0448303-0.3382454,0.3373108-2.312439,1.6893311-3.5194263
			c2.6833954-2.3955975,6.6382294,0.8218517,9.9952087-1.407793c2.0962982-1.3923264,1.0541077-2.979063,3.2378693-4.5048618
			c2.8117065-1.9645519,7.9339294-1.7057762,11.1214294,0.5631008c1.4677734,1.0447731,2.1148682,2.223587,3.660202,2.2524319
			c1.5488434,0.0288963,2.1084137-1.1327,3.8009949-1.1262035c1.6367645,0.0062904,2.8594055,1.0992661,3.519455,1.6893291
			c1.8381042,1.6432152,2.5462799,3.834837,3.0124054,6.2278309c1.2787628,6.5649719,0.6390533,14.1495285-1.111908,14.3960609
			c-1.0609436,0.1493797-1.8755188-2.4874382-3.519455-2.25243c-0.6260376,0.0895004-1.4472961,0.6061516-1.6189423,1.4077682
			C211.8200226,48.7124443,212.0372772,49.1766129,212.1457672,49.3739357z"/>
		<path id="XMLID_12_" class="st12" d="M222.6336823,214.7874908c-0.7099304,5.111084-1.7071991,9.3676605-2.6043701,12.5995941
			c-0.1150055,0.4142914-2.0194244,7.1486664-4.8568115,11.1918182c-0.3710632,0.5287323-1.0808411,1.5280151-2.2524567,2.6043701
			c-1.5246277,1.4006195-2.6577759,1.8536224-3.3786621,2.3931885c-2.7943268,2.091568-2.1520844,7.548111-2.041275,8.7986145
			c0.8763733,9.8904266-5.2229614,53.1257172-14.500061,118.8865814
			c-2.6668091,18.903595-3.3786316,23.6504517-3.3786316,23.6504517
			c-2.1789246,14.5299683-3.5437164,22.3495178-4.8568573,34.7722168
			c-0.6009674,5.6854248-0.978363,10.3221436-1.1966248,13.2330627c-2.6943054,0.6018372-6.6222992,1.1681519-11.3325806,0.774292
			c-4.565094-0.3817139-8.2459259-1.5299377-10.7694702-2.5339966c-0.2906189-4.1271362-0.6920166-10.2754211-1.0558319-17.7379761
			c-0.8642883-17.7279968-0.8287201-28.7662964-1.0558319-43.7113953
			c-0.3462677-22.7849121-1.0861816-40.3737793-1.2669983-44.5560913
			c-0.668457-15.4594421-1.5010834-28.2003784-2.9563293-50.4687195
			c-1.0983124-16.8062744-1.9144897-27.674469-1.9004974-43.9225616c0.0071106-8.2383728,0.225235-15.0626678,0.4223328-19.7440491
			c9.5785522-1.9349823,20.1733093-3.6154938,31.6749268-4.751236
			C198.9008331,214.9253387,211.4216919,214.5722504,222.6336823,214.7874908z"/>
		<path id="XMLID_68_" class="st11" d="M188.8394318,455.9393311c0.1692047-0.6716614,0.133728-1.18927,0.0624847-1.5235596
			c-0.7929077-3.7183838-7.9608002-2.6465759-12.2672272-7.8030396c-0.5985565-0.7165833-1.2854614-1.725708-2.6395874-2.1819763
			c-1.4524841-0.4894409-3.5961151-0.3171692-4.786499,0.914978c-0.7390747,0.7650757-0.6607208,1.4730225-1.2317352,1.5837708
			c-0.9918976,0.1923828-1.6924286-1.8534851-3.0267639-1.7949219c-0.6130676,0.0269165-1.0402527,0.4841919-1.4429932,0.9150696
			c-1.3463898,1.4410706-1.5058899,3.3334961-1.6188965,4.9272461c-0.0806427,1.138031-0.0746613,2.8754883,0.4196472,4.9624329
			H188.8394318z"/>
		<path id="XMLID_11_" class="st11" d="M277.5048218,456.8367615c0.1390686-0.6722412,0.0961914-1.1949158,0.021759-1.5442505
			c-0.9065552-4.2512512-9.1015015-3.0258179-14.0250549-8.9211426c-0.6843262-0.819397-1.469696-1.9730835-3.0178833-2.4947205
			c-1.660553-0.5595703-4.1113281-0.3626404-5.4722595,1.0461426c-0.8449707,0.8746643-0.7553711,1.684082-1.4082642,1.8106995
			c-1.134079,0.2199097-1.9350281-2.1191101-3.4605255-2.0521851c-0.7009277,0.0308228-1.1893616,0.5535889-1.6497345,1.0462646
			c-1.5393066,1.6475525-1.7217102,3.8111877-1.8509064,5.6332092c-0.0894928,1.2637939-0.0769196,3.181427,0.4409027,5.4759827
			H277.5048218z"/>
		<path id="XMLID_10_" class="st13" d="M185.6443939,219.116394c-7.254364-4.1516113-4.0236206-18.4578094-2.2172241-50.4687195
			c1.7255707-30.5791473,0.2572937-43.7501297-1.9004974-54.2697296
			c-1.7202911-8.3866348-3.8769836-15.0790787-5.3847504-19.3217087c0.2567139-1.6886826,1.0113678-4.9075012,3.5898285-7.7075653
			c0.7788849-0.8458252,1.5834351-1.5005875,2.3228302-2.0060806c0.0247955,0.9110947,0.151886,2.2169113,0.6334991,3.6954117
			c1.3694916,4.2040939,4.5162506,6.4603882,5.7014771,7.2852325c1.2189941,0.8483276,7.3868408,5.1407318,10.7694855,2.5339966
			c2.3066711-1.777565,1.9483948-5.7075958,1.847702-6.5989456c2.6001129,1.1734238,6.0812225,3.0147629,9.7664337,5.8598633
			c0.5943298,0.4588318,6.4491577,5.0361786,10.2415771,10.7694778c4.6306,7.0004501,5.0477448,14.0030136,5.5958862,25.6567001
			c1.3422852,28.5368805,0.8074646,26.127533,1.4781647,34.9480133c1.5980225,21.0149536,2.3970337,31.5224304,4.2233276,35.5814972
			c1.1096344,2.4662018,3.0215759,6.1535645,1.4781647,9.18573c-1.7237091,3.3863983-6.7799683,4.035614-16.6293335,5.173584
			c-3.2214661,0.3722229-8.3001251,0.819809-16.1014252,0.7390747
			C191.8460693,220.0768585,187.2393494,220.0291595,185.6443939,219.116394z"/>
		<path id="XMLID_9_" class="st14" d="M229.5317993,223.093338c-0.0118866-0.6193237-0.0332031-1.606369-0.0704041-2.8155212
			c-0.3674774-11.9492035-1.5242157-20.8778839-1.9004974-23.8617859
			c-1.2968903-10.2846069-3.3499603-26.5657501-4.2233124-43.0779114
			c-0.8888245-16.8045197,0.1428223-20.6399994-2.3228302-31.463768
			c-2.2784119-10.0017319-5.4803009-16.9152145-10.9102478-22.5947876
			c-3.3179626-3.4705048-6.7041168-5.6814575-9.0977631-7.0212784c-0.0351715-0.5983124-0.0703888-1.1966019-0.1055756-1.7949142
			c3.8881989,1.2557068,9.4925079,3.5485306,15.1863556,7.9011307c3.4587555,2.6439819,5.7433014,5.1251907,9.8544464,9.9952087
			c9.6233826,11.3997803,17.0724945,21.4572449,17.8083344,22.4539948
			c6.1712036,8.359726,9.0916443,12.7884369,15.4151306,18.5122528c2.405304,2.1771851,4.5220032,3.8348694,5.9830627,4.9272003
			c-2.2109985,2.3797913-4.7284546,5.4805756-7.1092529,9.3617249c-2.1201172,3.4562073-3.6308136,6.7144318-4.7160645,9.5024872
			c-3.1573639-1.1220856-6.9147644-2.7488251-10.9102478-5.1384125c-4.8554077-2.9039459-8.5974731-6.0583954-11.3325958-8.7281799
			c-1.1207428,13.4496155,0.6406097,23.2561646,2.5642242,29.8798523
			c2.4149628,8.3155518,2.0480499,17.3036804,4.6858215,25.5512695c0.2752991,0.8607483,1.0879974,3.3251038-0.0787811,5.3474731
			C236.539856,222.9963226,231.6472015,223.1407166,229.5317993,223.093338z"/>
		<path id="XMLID_8_" class="st14" d="M187.1225586,126.8367615c1.2510529,13.1488953,0.1253967,19.7811584,0.2111664,46.139801
			c0.0427551,13.1308899,0.0869598,19.5608826,0.1055908,34.420105c0.0121155,9.6670837,0.0068359,17.6365967,0,23.0171204
			c-3.8721008,0.6243896-9.3763428,1.024292-15.7670593-0.1408081c-11.7547607-2.1429443-19.6580811-8.331665-23.2282867-11.5437012
			c1.1170654-3.3793945,2.5566406-8.1948242,3.8009949-14.0777588c1.5537109-7.3456116,3.8326111-18.5334473,2.5339966-32.6604004
			c-0.4266663-4.6414185-1.3746338-11.0697937-3.6602325-18.5826416c-3.9886932,5.631134-7.9773712,11.262207-11.9660797,16.8933105
			c-7.4612122-3.4725037-14.9224014-6.9450378-22.3836136-10.417511c0.7980652-4.8277283,6.295372-35.9786682,26.4661484-54.9032288
			c9.8024139-9.1967773,21.0147247-14.2310181,21.0147247-14.2310181c6.9464569-3.118866,13.2126617-4.6268005,17.8046722-5.4074402
			c-0.5982361,0.8296204-1.3880768,2.1486206-1.7949066,3.9065857c-0.4356384,1.8823547-0.2649231,3.545166,0.2111664,5.8070679
			c0.683548,3.2475891,1.0253143,4.8713684,2.3228302,7.70755
			C185.3674316,108.3897095,186.3288727,118.4947205,187.1225586,126.8367615z"/>
		<g id="XMLID_76_">
			<rect id="XMLID_63_" x="145.844162" y="204.1443787" class="st15" width="142" height="6.3333335"/>
			<path id="XMLID_65_" class="st16" d="M176.5404053,248.3943787h80.6075134c10.857666,0,20.1685486-7.7492981,22.13974-18.4265289
				l3.598175-19.4901428H150.8024902l3.5981903,19.4901428
				C156.3718567,240.6450806,165.6827393,248.3943787,176.5404053,248.3943787z"/>
			<path id="XMLID_69_" class="st17" d="M188.2608337,214.8943787c7.640625,1.298584,2.0958252,0.7062378,26,6
				c10.0848389,2.2333374,14.5617065,3.1116333,19.25,7c3.8215942,3.1694946,3.8989258,5.1171265,9.5,13.25
				c1.9221191,2.7909546,3.5748901,5.1876221,5.0523071,7.25h9.0847778c10.857666,0,20.1685791-7.7493286,22.1397095-18.4265137
				l3.5982056-19.4901733H154.2361145C157.9073792,212.5105286,166.7330017,211.2355042,188.2608337,214.8943787z"/>
			<path id="XMLID_79_" class="st18" d="M273.5108337,192.1443787c-3.0997925-4.3248901-8.4510498-2.3196411-21.5-5
				c-15.1254883-3.1069336-18.9145508-8.0562744-26.25-5.25c-5.2130127,1.9943237-7.9822388,6.2854614-9.25,8.25
				c-2.7388916,4.2441406-4.0666504,9.3555298-4.1783447,14h61.6968994
				C275.297699,200.0323181,275.8499451,195.4078674,273.5108337,192.1443787z"/>
			<path id="XMLID_77_" class="st19" d="M237.7608337,196.3943787c-1.5994263-1.7841797-11.2869873-12.2260132-24.25-12
				c-9.9644165,0.1737061-9.652771,6.4378052-24.25,9c-7.8309937,1.3745117-11.7086792,0.2365723-17.5,3.5
				c-3.592041,2.0241089-6.1485596,4.7469482-7.9610596,7.25h79.2466431
				C241.8519592,201.7880554,240.1684875,199.0801086,237.7608337,196.3943787z"/>
			<g id="XMLID_64_">
				<path id="XMLID_66_" class="st20" d="M216.5108337,226.1443787c-2.2488098-0.7076111-4.1649475-1.1253357-5.5-1.375
					c-0.3486633-3.4399719-1.0132446-7.4689941-2.25-11.875c-1.6217957-5.7777405-3.7648926-10.5558472-5.75-14.25
					c-2.7921753-0.3745728-6.515625-0.5692749-10.8125,0.0625c-2.6774902,0.3936768-5.0075073,1.0244751-6.9375,1.6875
					c2.487854-0.9968872,5.2387085,1.4006958,6.5,2.5c0.5932007,0.5169678,1.6882935,1.5638428,2.8233643,3.5
					c1.1928101,2.034729,2.4298706,5.0523071,3.1766357,9.5c1.7680969,10.5306702-0.746521,12.9621582,1.5,15.25
					c1.4866333,1.5139771,5.4279785,1.3215942,13.25,0.875c7.3145752-0.4176025,12.1119385-0.6915283,12.25-1.875
					C224.9188538,228.7900391,218.8991394,226.895874,216.5108337,226.1443787z"/>
				<path id="XMLID_82_" class="st21" d="M192.9958801,204.1443787c-0.5007324-0.5846558-0.9332275-0.9869995-1.2350464-1.25
					c-1.2612915-1.0993042-4.012146-3.4968872-6.5-2.5c-1.3352051,0.5349731-2.3008423,1.9401245-2.7369995,3.75H192.9958801z"/>
				<path id="XMLID_90_" class="st21" d="M210.422699,220.4538269c-0.109314-0.6659546-0.2285767-1.3397217-0.3638306-2.0346069
					c-1.9694824-0.1445313-3.9491577-0.0999146-5.9230347,0.1494751c-2.0036011,0.2527466-3.9575806,0.7283325-5.8581543,1.3729248
					c0.064209,0.7427979,0.1068115,1.4329224,0.1303101,2.0716553c1.932312-0.6976318,3.9277344-1.2018433,5.9778442-1.4602051
					C206.3987732,220.2987366,208.4173279,220.2695007,210.422699,220.4538269z"/>
				<path id="XMLID_67_" class="st21" d="M209.3936462,215.3745422c-0.1602783-0.6641846-0.328125-1.3341675-0.5148926-2.0179443
					c-1.5793457-0.0529175-3.1629639,0.0124512-4.7429199,0.2120972c-2.2339478,0.2818604-4.4083862,0.8339233-6.5114746,1.6019287
					c0.0452271,0.2421875,0.0942993,0.4725342,0.1364746,0.7237549c0.0750732,0.4471436,0.1323242,0.8596802,0.192627,1.2781982
					c2.0713501-0.7885742,4.2219849-1.3410034,6.432373-1.6195068
					C206.054718,215.3421936,207.7276306,215.2836609,209.3936462,215.3745422z"/>
				<path id="XMLID_78_" class="st21" d="M197.2615662,213.4422913c2.2814331-0.9388428,4.6669312-1.5795898,7.1242676-1.8892212
					c1.3031006-0.1646118,2.6086426-0.2344971,3.911499-0.2150269c-0.2084351-0.6810303-0.4230957-1.3464966-0.6438599-1.9974976
					c-1.1724243,0.0090942-2.3460693,0.0801392-3.5176392,0.2281494c-2.5443115,0.3209839-5.0202637,0.9648438-7.3900757,1.9150391
					C196.9291687,212.0914612,197.0992126,212.7533264,197.2615662,213.4422913z"/>
				<path id="XMLID_80_" class="st21" d="M196.2156677,209.9116516c2.5947266-1.1937256,5.3329468-2.0010376,8.170166-2.3585815
					c0.8526001-0.1077271,1.7062378-0.1752319,2.5595093-0.2041016c-0.2504272-0.6709595-0.5046997-1.3252563-0.7636108-1.9602661
					c-0.6821899,0.0390625-1.3644409,0.0938721-2.0458984,0.1799927c-3.0133057,0.380188-5.9229126,1.2345581-8.6811523,2.4941406
					C195.7149963,208.6216736,195.9693909,209.2422791,196.2156677,209.9116516z"/>
			</g>
		</g>
		<path id="XMLID_81_" class="st8" d="M280.75,197c-0.7797852-6.5245667-2.4820557-20.7678833-6.25-28.1666565
			c-0.1896973-0.3724976-1.6768188-3.2650146-3.625-6.9583435c-0.9692383-1.8374939-1.769104-3.3356934-2.2866211-4.3018494
			c-5.4739075,3.4200745-10.9478149,6.8401184-16.4217072,10.2601929c0.1967773,1.0938416,0.5745544,2.822052,1.3333282,4.833313
			c2.648468,7.0202026,6.6954956,9.0917664,13.5,17.5c4.1286621,5.1017151,8.1845093,10.2133179,6.75,13.3333435
			c-0.3875122,0.8428345-2.2293091,3.8319702-4.8349609,6.3832397c-0.0002441,0.0002747-0.0020447,0.0020142-0.0020447,0.0020142
			c-1.1838074,1.1588135-2.9872437,2.4700012-5.5942078,3.9584045c-0.5806885,0.331543-0.2769775,1.227478,0.3839722,1.1263123
			c3.1989136-0.489624,4.894989-0.4569702,5.0878906,0.098114c0.1257324,0.3617859-0.5643311,0.9147339-4.4312744,3.1600647
			c-0.6190186,0.3594055-0.2161255,1.3112793,0.4702148,1.1082458C267.1539917,218.6488037,267.8594666,218.7326355,268,219
			c0.1283569,0.2442322-0.1383972,0.7866211-1.5847168,2.0158081c-0.5195923,0.4415894-0.0257568,1.2733459,0.6098022,1.0263062
			c1.7545776-0.6820068,2.8017578-0.8071594,3.1416016-0.3754578c0.3092651,0.3928528,0.0327454,1.2468262-0.8294678,2.5618591
			c-0.3671875,0.5600281,0.2944946,1.2146606,0.8470459,0.8363342c2.2510986-1.5411682,3.5786133-2.1184082,3.9824219-1.7315063
			c0.2610474,0.2501526,0.1359558,0.9034119-0.3754272,1.9597778c-0.293335,0.605957,0.4993591,1.168335,0.9743042,0.6911926
			c1.6332397-1.6408081,2.6251831-3.1887207,3.234436-4.3176575c0.5283813-0.9790955,0.9547424-1.9161072,1.3059692-2.8292542
			c0,0,0.9112549-2.3614197,1.3607178-5.0040588C281.8971558,206.5985413,280.75,197.0000916,280.75,197z"/>
		<path id="XMLID_7_" class="st8" d="M119.25,164.5625c-2.6232605,0.5665283-4.8615189,2.4980164-6.0625076,4.5625
			c-0.4493103,0.7723694-2.2492371,4.1400452,0.1666718,11.3125c1.9622269,5.825531,4.1348724,6.5289917,9.4583282,14.375
			c4.2997589,6.3372192,10.8268661,17.639679,13.3364029,20.6285706c1.8482971,2.2013245,3.124176,3.4732056,4.120285,4.4267883
			c7.254776,6.9450989,13.1847382,8.6525879,13.1847382,8.6525879c1.4703369,0.4273987,3.6587372,0.8862762,6.4634705,0.8293152
			c0.5801239-0.011795,0.6858063-0.8364868,0.1329803-1.0127411c-2.2637787-0.7217407-3.3678894-1.2849884-3.3125763-1.6898041
			c0.0635681-0.4651337,1.6577301-0.7210846,4.782196-0.7679291c0.6265411-0.0093994,0.6974487-0.9120331,0.0813141-1.0261536
			c-2.566452-0.4753265-3.8394012-0.8585205-3.8186646-1.1495819c0.0259857-0.3647308,2.0836029-0.5847473,6.1725311-0.6600494
			c0.6205597-0.0114136,0.7036285-0.9093018,0.093689-1.0241089c-2.59935-0.4893036-3.5734253-0.9590912-3.5794983-1.3933258
			c-0.0064392-0.4607086,1.0750732-0.9922485,4.0357971-1.5973511c0.6007843-0.1227875,0.5318604-1.0093384-0.081192-1.0235901
			c-3.2004852-0.0744019-4.8668976-0.4496002-4.9994354-1.1255493c-0.1676483-0.8549042,2.1182098-2.1908569,6.8572235-4.0078278
			c0.4773865-0.1830292,0.4314728-0.8825836-0.0672455-0.995163c-4.9379578-1.1146393-8.3625641-0.4598999-10.6708069,0.4537048
			c-2.1371155,0.8458557-2.5600739,1.568634-4.1793518,1.6056213c-4.1304932,0.0943604-7.905365-5.4441833-9.7020569-9.5000305
			c-0.8327942-1.8799438-1.1489258-3.4191589-1.3410339-4.3202515c-3.0961761-14.5215759-1.6372833-18.591217-4.1546021-24.0322876
			C132.9839325,169.2039795,125.3053284,163.2547302,119.25,164.5625z"/>
		<path id="XMLID_13_" class="st22" d="M255.6666718,177.1666565c-0.1593933-6.3817444,4.0940704-11.5498047,9.2156219-12.290802
			c5.4168701-0.7837219,9.4166565,3.7304077,9.7010193,4.0616455c0.1986084-0.6321716,1.7549438-5.9015503-1.583313-10.6875
			c-2.6472168-3.7952576-7.0968933-5.4592285-11-5.125c-3.3670654,0.2883301-5.6213989,1.9997864-7.0125427,3.0559387
			c-4.3521729,3.3041382-7.4741058,8.9143372-6.8699188,14.3403931c0.153183,1.3757019,0.3884735,3.5015259,2.1149902,5.063324
			C252.2780457,177.4349976,255.0035706,177.2336731,255.6666718,177.1666565z"/>
		<path id="XMLID_127_" class="st22" d="M136.0555267,176.3552399c-0.124115-0.8168335-0.3940277-2.0427856-1.0558319-3.3786621
			c-2.7972717-5.6464233-10.484581-8.9940033-16.0486298-7.0388641c-0.716629,0.2518005-2.2540817,0.8123932-3.5194244,2.2524109
			c-1.8806458,2.140274-2.0272446,4.9338989-2.1820602,7.8835754c-0.0968475,1.8453827,0.0213394,3.3740234,0.1442719,4.4101563
			c-0.8404388-0.6827393-5.5684738-4.6514282-5.7105637-10.8691406c-0.1637573-7.1661377,5.8816452-12.18396,10.6342773-14.0945587
			c0.806488-0.324234,7.9762192-3.0716095,14.5001068,0.9150848c1.2171326,0.7437744,4.598587,2.8806458,5.983017,7.1796417
			C140.9141541,170.1777954,136.4644012,175.8511353,136.0555267,176.3552399z"/>
	</g>
	<g id="XMLID_2_">
		<g id="XMLID_308_">
			<g id="XMLID_148_">
				<path id="XMLID_205_" class="st23" d="M497,451.6829834h-18.0240173V247.1586761H508v193.5243073
					C508,446.7581177,503.0751343,451.6829834,497,451.6829834z"/>
				<path id="XMLID_209_" class="st24" d="M508,247.1586761h-29.0240173v-8.9513397h23.3069153
					c3.1574707,0,5.7171021,2.5596313,5.7171021,5.7170868V247.1586761z"/>
				<path id="XMLID_203_" class="st25" d="M490.9111023,269.9438782H311.0707397v-20.7365417c0-6.0751343,4.9248657-11,11-11
					h157.8403625c6.0751343,0,11,4.9248657,11,11V269.9438782z"/>
				<rect id="XMLID_195_" x="311.0707397" y="269.9438782" class="st13" width="179.840332" height="154.0713654"/>
				<rect id="XMLID_246_" x="311.0707397" y="422.9302368" class="st26" width="179.840332" height="1.0850096"/>
				<rect id="XMLID_289_" x="311.0707397" y="270.0286255" class="st26" width="179.840332" height="1.4240751"/>
				<g id="XMLID_234_">
					<path id="XMLID_241_" class="st27" d="M420.875824,261.2298889h-38.9221191c-1.8639832,0-3.375-1.5110474-3.375-3.375
						v-8.7113953c0-1.8639526,1.5110168-3.3749847,3.375-3.3749847h38.9221191c1.8639526,0,3.375,1.5110321,3.375,3.3749847
						v8.7113953C424.250824,259.7188416,422.7397766,261.2298889,420.875824,261.2298889z"/>
					<path id="XMLID_242_" class="st28" d="M422.4967041,261.2298889h-42.1639099
						c-0.96875,0-1.7540894-0.7853394-1.7540894-1.7541199v-0.9923096h45.6721191v0.9923096
						C424.250824,260.4445496,423.4654846,261.2298889,422.4967041,261.2298889z"/>
				</g>
				<path id="XMLID_200_" class="st29" d="M490.9111023,424.0152283H311.0707397v16.6677551c0,6.0751343,4.9248657,11,11,11
					h157.8403625c6.0751343,0,11-4.9248657,11-11V424.0152283z"/>
				<g id="XMLID_245_">
					<path id="XMLID_238_" class="st23" d="M361.5915222,263.6287842h-46.112915v-10.5894623
						c0-5.6494141,4.5797424-10.2291718,10.2291565-10.2291718h35.8837585V263.6287842z"/>
					<polygon id="XMLID_243_" class="st30" points="328.7055054,262.018219 317.7503357,262.018219 334.7680664,244.4207153 
						345.7232361,244.4207153 					"/>
					<polygon id="XMLID_248_" class="st30" points="349.7920227,244.4207153 332.774292,262.018219 337.6568604,262.018219 
						354.6745911,244.4207153 					"/>
				</g>
				<g id="XMLID_250_">
					<circle id="XMLID_249_" class="st31" cx="449.2738647" cy="253.8721619" r="9.154768"/>
					<circle id="XMLID_244_" class="st13" cx="449.2738647" cy="253.8721619" r="6.7134967"/>
					<g id="XMLID_247_" class="st32">
						<path id="XMLID_33_" class="st25" d="M449.2738647,263.026947c5.0560303,0,9.1547546-4.0987549,9.1547546-9.1547852
							s-4.0987244-9.1547699-9.1547546-9.1547699V263.026947z"/>
					</g>
				</g>
				<g id="XMLID_256_">
					<circle id="XMLID_311_" class="st31" cx="473.686554" cy="253.8721619" r="9.154768"/>
					<circle id="XMLID_295_" class="st13" cx="473.686554" cy="253.8721619" r="6.7134967"/>
					<g id="XMLID_257_" class="st32">
						<path id="XMLID_34_" class="st25" d="M473.686554,263.026947c5.0560608,0,9.1547852-4.0987549,9.1547852-9.1547852
							s-4.0987244-9.1547699-9.1547852-9.1547699V263.026947z"/>
					</g>
				</g>
			</g>
			<g id="XMLID_132_">
				<circle id="XMLID_147_" class="st33" cx="403.0100403" cy="345.3520508" r="55.3354874"/>
				<circle id="XMLID_146_" class="st26" cx="403.0100403" cy="345.3520508" r="46.6554108"/>
				<circle id="XMLID_145_" class="st34" cx="403.0100403" cy="345.3520508" r="41.7728691"/>
				<path id="XMLID_139_" class="st7" d="M412.7954407,309.2199097l-45.9175415,45.9175415
					c1.5411987,5.7038269,4.3933716,10.8670044,8.2181396,15.1463318l52.8457336-52.8457336
					C423.6624451,313.6132813,418.4992981,310.7611084,412.7954407,309.2199097z"/>
				<path id="XMLID_133_" class="st7" d="M434.1782532,324.6231689l-51.8970642,51.8970947
					c1.9698181,1.3126221,4.069519,2.4450073,6.2782898,3.3702698l48.9890442-48.9890442
					C436.6233215,328.6927185,435.4909363,326.5929565,434.1782532,324.6231689z"/>
			</g>
			<g id="XMLID_129_">
				<g id="XMLID_130_">
					<path id="XMLID_131_" class="st35" d="M492.7160339,456.8367615h-33.3120117
						c-1.1894226,0-2.153656-0.9642029-2.153656-2.1536255v-3.0001526h37.6193237v3.0001526
						C494.8696899,455.8725586,493.9054565,456.8367615,492.7160339,456.8367615z"/>
					<path id="XMLID_149_" class="st36" d="M475.678009,456.8367615h-16.2739868
						c-1.1894226,0-2.153656-0.9642029-2.153656-2.1536255v-3.0001526h20.5812683v3.0001526
						C477.8316345,455.8725586,476.8674316,456.8367615,475.678009,456.8367615z"/>
				</g>
				<path id="XMLID_150_" class="st36" d="M342.6286926,456.8367615h-16.2739868
					c-1.1894226,0-2.1536255-0.9642029-2.1536255-2.1536255v-3.0001526h20.5812683v3.0001526
					C344.7823486,455.8725586,343.8181152,456.8367615,342.6286926,456.8367615z"/>
			</g>
		</g>
		<g id="XMLID_128_">
			<path id="XMLID_208_" class="st37" d="M479.0661621,205.6797028c-4.4588928-3.5690308-9.8047791-4.9323578-12.9734497-5.5312805
				c-0.6080017-0.9862671-2.5237732-1.7117157-4.8200378-1.7117157c-1.6946716,0-3.185791,0.3958893-4.0994873,0.9980774
				c-0.4267883,0.0163574-0.8538513,0.0253448-1.2802124,0.0565033l0.1534119,2.098175
				c0.1596375-0.0116425,0.3193665-0.0117188,0.4790039-0.021225c0.6799927,0.9294281,2.5372009,1.6017151,4.7472839,1.6017151
				c1.7070007,0,3.2096863-0.4007721,4.1213684-1.0104828c2.9379272,0.5344696,8.1303101,1.7780457,12.3573303,5.1623383
				c6.0754089,4.8647308,10.9100037,14.7735901,7.901062,23.5559692
				c-3.2582092,9.5151215-14.0107422,12.8041382-17.54422,13.8854218
				c-6.4671326,1.9797211-12.8466187,1.4798279-25.5548706,0.4834595l-2.1351624-0.1759949
				c-7.1820374-0.6074066-15.3227844-1.2942352-19.6821289,2.5412445c-0.8683167,0.7655945-3.178772,2.8000946-2.9801941,5.5940247
				c0.1561279,2.2063751,1.8146667,3.6382751,2.1433716,3.9019165c1.2655029,1.0148621,2.6460266,1.2640991,4.2429504,1.2640991
				c0.7176514,0,1.4777527-0.0499878,2.2912903-0.1033936l0.8491211-0.0547791
				c2.025177-0.1210327,4.1230164-0.1283264,6.2421875-0.0832825c0.6367493,1.2052917,2.3128662,2.0720825,4.3007813,2.0720825
				c2.5334778,0,4.5871582-1.3996277,4.5871582-3.1262207c0-1.7266083-2.0536804-3.1263123-4.5871582-3.1263123
				c-1.9905701,0-3.6683044,0.8692474-4.303009,2.0771179c-2.1595459-0.0442505-4.2984924-0.0359497-6.3659363,0.0870667
				l-0.8614807,0.0547791c-2.3337402,0.1540833-3.8827209,0.2574768-5.0797424-0.7025909
				c-0.1300964-0.1034088-1.2654724-1.0491028-1.3613586-2.4090881c-0.1246338-1.7550964,1.5558472-3.2349243,2.2748718-3.8690338
				c3.6841431-3.2390442,11.3510132-2.5919189,18.1112366-2.0214996l2.1502075,0.1766815
				c12.9712524,1.0169067,19.4821777,1.5277557,26.3341675-0.5690613
				c3.7868652-1.1586609,15.3118286-4.6846161,18.919281-15.2145844
				C490.9622803,221.868042,485.7017517,210.9922638,479.0661621,205.6797028z"/>
			
				<ellipse id="XMLID_151_" transform="matrix(0.9938621 -0.1106264 0.1106264 0.9938621 -21.6285172 49.2151794)" class="st37" cx="432.6979065" cy="219.5171814" rx="6.5301237" ry="2.6734064"/>
			<circle id="XMLID_153_" class="st37" cx="422.9246216" cy="219.1519623" r="1.1979198"/>
			<path id="XMLID_152_" class="st37" d="M410.5072327,204.5139313c0.0031433-0.1741028,0.0795593-2.3135986,1.9283142-3.5060577
				c1.3081055-0.84375,2.9975281-0.8869781,4.3826599-0.1168823c0.2793274,0.3941345,1.3063354,1.879776,0.8180237,2.9801788
				C417.0247498,205.2491302,414.1149902,205.8475952,410.5072327,204.5139313z"/>
			<path id="XMLID_154_" class="st37" d="M397.3008118,220.4082947c-0.9019775-0.4105225-0.7041016-2.72258-0.4674377-3.7982483
				c0.1602173-0.7283936,0.4694824-2.13414,1.7210693-2.8811188c0.5895081-0.3518524,1.1791077-0.432785,1.5513-0.4497223
				c0.858429,0.0660706,2.0265808,0.2809296,2.395813,1.0518646
				C403.4423218,216.2953033,398.8304138,221.1044312,397.3008118,220.4082947z"/>
			<path id="XMLID_4_" class="st14" d="M459.7095642,201.1246643c0.3181458-1.3848114-0.3382874-3.0282898-1.4024658-3.7397919
				c-1.1504211-0.7691803-2.4058228-0.2006378-4.9085388,0.1168518c-0.7132874,0.0904694-0.7774048,0.0653992-6.077301,0
				c-9.1952209-0.1134186-13.7928162-0.170166-14.9593201-0.1168518c-3.7394714,0.1708527-9.0588074,0.9051208-15.5437317,3.5061188
				c-0.1181335,0.3185883-1.1333923,2.9283905-3.7398682,3.6229401c-1.0696411,0.2850494-2.0082092,0.1412354-2.571106,0
				c-1.3408203,0.5339661-2.9776306,1.3399506-4.6748657,2.5711212c-2.910614,2.1114502-4.7030334,4.5337067-5.7266235,6.1941528
				c0.2733154,1.9964905,0.3287964,4.5457001-1.1102905,5.5805817c-1.00177,0.7203979-1.9217834,0.1273651-3.4184875,0.3506012
				c-3.2710266,0.4878235-5.2547607,4.2717896-7.6257629,8.7944641c-1.0330811,1.9706421-2.3170471,4.7609711-3.3891602,8.2978058
				c2.683075,0.3547211,6.5028076,0.8069458,11.1026001,1.1686859c13.7249146,1.0793915,24.8460388,0.6028595,31.5549622,0.1168365
				c4.0910034-0.2963409,9.4715271-0.8083954,15.7774658-1.7530518c1.3878174-3.6464081,3.2154236-5.8997803,4.5579529-7.2458954
				c2.1316528-2.1373901,4.9625549-3.9151001,6.5447693-4.9085541c3.8415527-2.4122467,5.1776733-2.6083527,5.3760071-3.85672
				c0.3006897-1.8925781-2.5952759-2.5413208-4.5579529-6.544754c-0.6880493-1.4034729-2.1687317-4.423645-1.0518188-6.8953705
				C455.2018738,203.4276886,459.0854492,203.8410492,459.7095642,201.1246643z M449.391449,215.237854
				c-0.0100098,0.0451965-0.0158386,0.0910034-0.0292664,0.1355896c-0.2153625,0.7520752-0.8610535,1.4012451-1.2227783,1.7624664
				c-1.0698853,1.0684509-2.3804932,1.3308868-3.3892517,1.5192871c-1.4634094,0.2733154-2.6200867,0.1424408-2.8633728,0.1169281
				c-3.353302-0.3523254-7.3485107,1.0040741-9.9923096,1.5777588c-2.9195862,0.6334229-7.2516174,0.9763336-13.3232117-0.4090881
				c-0.2174072-1.1237335-0.3940125-2.8913269,0.2337036-4.7917023c1.9734497-5.9746704,10.1478271-7.9680939,14.3750305-8.9989471
				c2.6164856-0.6380463,6.8154907-1.3417511,12.154541-0.8181458c-1.4440613,2.8852539-1.1766357,4.4710541-0.7012329,5.3760834
				c1.169281,2.2258148,4.5449219,2.1391907,4.791626,3.9735565c0.01651,0.1225739,0.0156555,0.2428436,0.0036621,0.3615723
				C449.4222717,215.1091156,449.4051514,215.1731415,449.391449,215.237854z"/>
			<path id="XMLID_14_" class="st38" d="M441.8867798,218.7721252c-3.353302-0.3523254-7.3485107,1.0040741-9.9923096,1.5777588
				c-2.9195862,0.6334229-7.2516174,0.9763336-13.3232117-0.4090881c-3.4154358,3.9678345-6.7224426,5.6372528-9.1158752,6.4278412
				c-4.4338989,1.4646759-7.4121094,0.468399-12.154541,2.5711975c-2.8405762,1.259491-4.8467407,2.9802856-6.0772095,4.2073364
				c7.1726379-0.819519,13.0291748-0.8377533,17.0629883-0.7012329c11.0025635,0.3722687,17.0249023,2.1858521,24.7765198-0.8181458
				c2.8852539-1.1180878,6.6878052-2.5917358,8.1808777-6.0772247c0.9851685-2.2995911,0.4266357-4.2184448,2.22052-5.7266083
				c1.4898376-1.2526398,3.0098877-0.8831177,4.6748657-2.6880493c-1.0698853,1.0684509-2.3804932,1.3308868-3.3892517,1.5192871
				C443.2867432,218.9285126,442.1300659,218.7976379,441.8867798,218.7721252z"/>
			<path id="XMLID_15_" class="st38" d="M409.901001,204.7741547c-1.2171936,0.526947-2.6146851,1.2561493-4.068634,2.3108978
				c-2.910614,2.1114502-4.7030334,4.5337067-5.7266235,6.1941528c0.2733154,1.9964905,0.3287964,4.5457001-1.1102905,5.5805817
				c-1.00177,0.7203979-1.9217834,0.1273651-3.4184875,0.3506012c-3.2710266,0.4878235-5.2547607,4.2717896-7.6257629,8.7944641
				c-0.7415161,1.4144287-1.6111145,3.2673645-2.4400635,5.4992523c1.23172-0.4897461,3.0250854-1.2978821,5.011261-2.5775299
				c3.2250977-2.0778198,5.9631653-4.7574615,10.6351318-11.5701141
				C403.6456909,215.7282104,406.7388916,210.8453369,409.901001,204.7741547z"/>
			<g id="XMLID_197_">
				<path id="XMLID_210_" class="st38" d="M403.0274658,220.9928894c-0.0986023,0-0.1985779-0.0205383-0.2930908-0.0643616
					c-0.3519897-0.1623077-0.5053711-0.5786438-0.34375-0.9306335c1.118927-2.4275665,2.5254822-4.7168121,4.1785583-6.8033447
					c2.3392334-2.9534912,5.1495972-5.4830933,8.3530273-7.5189667c0.3300781-0.207489,0.7601013-0.111618,0.9682922,0.2157135
					c0.2081604,0.3266449,0.1109314,0.7601166-0.2150269,0.9676056c-3.0719604,1.9516449-5.7658997,4.3764648-8.0079041,7.2066956
					c-1.5832214,1.9995728-2.9308777,4.1929474-4.0032654,6.5198517
					C403.5465393,220.8415527,403.2918091,220.9928894,403.0274658,220.9928894z"/>
			</g>
			<path id="XMLID_155_" class="st37" d="M396.3658752,239.8964233c-6.4285583-0.1385345-12.4023132-0.3430786-13.3232117-2.5419312
				c-0.0669556-0.1598053-0.2702942-0.6758881-0.0584106-1.1102448c0.534729-1.0963898,4.0661316-0.439209,4.5579224-0.3506165
				c5.0471802,0.9093475,15.7335205,0.4698944,37.1062622-0.4090729c3.8967896-0.1602478,9.7181702-0.5379791,16.8544312-1.5567322
				c0.7368469-0.5026398,1.7437439-1.3107758,2.6336975-2.5337067c1.3526306-1.8587799,0.9329529-2.6117401,1.9283447-4.2901917
				c1.0362854-1.7472382,3.0647888-2.7871246,6.9163513-5.2050629c1.2915039-0.810791,2.3077393-1.3791656,3.0979919-1.8208466
				c0.5245361-0.2930908,1.1093445-0.6197357,1.3668213-0.8080444c0.7493286-0.7013092,1.7105103-0.9760437,2.4679565-0.6731567
				c1.0318909,0.412674,1.2198792,1.7111206,1.3148193,2.3666229c0.0149536,0.103241,0.3079834,2.3742523-1.2271423,3.85672
				c-0.4694214,0.4533386-0.7893066,0.5234375-3.681427,1.4024506c-3.1412659,0.9547577-3.494812,1.094162-3.9443665,1.3147888
				c-1.1695251,0.5738831-2.4528198,1.2036438-3.3308105,2.5371246c-0.7347717,1.1160736-0.4551086,1.615509-1.2271423,3.5985565
				c-0.5944519,1.5269928-1.3360901,2.7097931-1.6653748,3.1555023c-1.611908,2.1817322-4.920105,2.3697052-8.8529358,2.5419159
				c-7.8444824,0.3435211-11.7667236,0.5153046-13.4985046,0.5259247
				c-6.4002991,0.0392914-4.4480286,0.1205139-12.2713928,0.1753082
				C411.5297546,240.0717316,406.2253418,240.1088715,396.3658752,239.8964233z"/>
		</g>
	</g>
</g>
</svg>
