<?xml version="1.0" encoding="utf-8"?>
<!-- Generator: Adobe Illustrator 19.0.0, SVG Export Plug-In . SVG Version: 6.00 Build 0)  -->
<svg version="1.1" id="Layer_1" xmlns="http://www.w3.org/2000/svg" xmlns:xlink="http://www.w3.org/1999/xlink" x="0px" y="0px"
	 width="780.4529419px" height="484.6967773px" viewBox="0 0 780.4529419 484.6967773"
	 style="enable-background:new 0 0 780.4529419 484.6967773;" xml:space="preserve">
<style type="text/css">
	.st0{fill:#D5EEF7;}
	.st1{fill:#93ECF4;}
	.st2{fill:#00CFF1;}
	.st3{fill:#49EAF2;}
	.st4{fill:#FFA087;}
	.st5{fill:#FEB197;}
	.st6{fill:#FFB19B;}
	.st7{fill:#0096C9;}
	.st8{fill:#FF401B;}
	.st9{fill:#00395E;}
	.st10{fill:#FD4219;}
	.st11{fill:#FF5E2A;}
	.st12{fill:#EF9D89;}
	.st13{fill:#0097C9;}
	.st14{fill:#F4907D;}
	.st15{fill:#0071BF;}
	.st16{fill:#003760;}
	.st17{fill:#F5851F;}
	.st18{fill:#FAA819;}
	.st19{fill:#FFB099;}
	.st20{fill:#FFD300;}
	.st21{fill:#FF6F00;}
	.st22{fill:#004E99;}
	.st23{fill:#00395F;}
	.st24{fill:#193753;}
	.st25{fill:#1A446A;}
	.st26{fill:#3692D5;}
	.st27{fill:#FFD202;}
	.st28{fill:#FEB29A;}
	.st29{fill:#FEA086;}
	.st30{fill:#014076;}
</style>
<g id="XMLID_2_">
	<g id="XMLID_58_">
		<g id="XMLID_94_">
			<g id="XMLID_61_">
				<path class="st0" d="M460.0281677,9.0958977c60.7367859,23.3316193,84.669342,85.0563354,88.9999695,97
					c25.7017822,70.8843155-17.4068604,95.8345718,3,162c26.3279419,85.3634033,123.1594238,107.1408691,115,167
					c-2.062439,15.1304932-9.8930054,26.4233398-14.9719238,32.637085
					c-42.3149414-7.3463135-98.1051636-15.6483765-164.0280457-21.637085c-86.3774109-7.8468628-141.6588745-12.8688354-216-10
					c-103.1624603,3.9810181-133.7680969,19.2355957-170-7c-30.8685684-22.3519897-52.8286629-64.9395752-50.0000038-109
					c3.5497551-55.2925415,44.7998695-88.7068329,49.0000038-91.9999847c52.3073273-41.0122375,102.1157837-9.8844604,137-48
					c27.1488953-29.6636963,5.7949371-54.5692215,27-99.0000076
					C292.9236145,22.646801,386.1401672-19.2876549,460.0281677,9.0958977z"/>
			</g>
			<g id="XMLID_57_">
				<g id="XMLID_59_">
					<path id="XMLID_230_" class="st0" d="M625.6948242,198.0959015
						c28.6644897,0.729248,44.6004028,28.5604858,47.333313,33.3333435c3.2684326,5.7081604,20.7612915,36.2584381,4,60.6666412
						c-12.2952881,17.9046936-35.9639893,22.2252502-53.333313,18.6666565
						c-26.3582764-5.400238-41.9156494-29.7042542-45.333374-50.6666565
						c-1.0946655-6.7138824-4.192627-33.0104828,14.666687-49.9999847
						C606.6031494,197.866806,623.1500244,198.0311737,625.6948242,198.0959015z"/>
				</g>
			</g>
		</g>
		<g id="XMLID_288_">
			<path id="XMLID_210_" class="st1" d="M82.3615036,468.0958862c68.4291306,13.7924805,106.042244,1.295105,177.9999695,4
				c44.0067749,1.6542358,36.0400391,6.5576782,90.0000305,10.666687
				c123.0121155,9.3672485,129.6035156-18.7669678,240.666626-10.666687c26.192627,1.9103394,69.9291992,6.6917725,126.666687-4
				c6.0004883-1.1307373,53.1724854-10.0199585,52.666626-18c-0.5258179-8.2943726-52.2879028-11.3207397-76.666626-12.666687
				c-248.1521912-13.7001343-345.9999084-10.666626-346-10.666626c-200.7705078,6.2244263-317.4185486,10.1102905-318,23.333313
				C29.3729706,457.4155884,64.7510757,464.5463867,82.3615036,468.0958862z"/>
		</g>
		<g id="XMLID_278_">
			<ellipse id="XMLID_209_" class="st2" cx="410.0281677" cy="440.4291992" rx="224.333313" ry="12.333374"/>
		</g>
	</g>
	<g id="XMLID_46_">
		<g id="XMLID_41_">
			<g id="XMLID_26_">
				<path id="XMLID_229_" class="st1" d="M717.0164185,447.4728394l-2.6425781-1.4199219
					c10.2880859-19.1464844,18.546875-39.2363281,24.5478516-59.7119141
					c6.7685547-23.09375,13.1621094-44.9072266,9.1220703-72.7802734
					c-0.6054688-4.1728516-2.0224609-13.9462891-6.4238281-25.9482422
					c-3.6992188-10.0898438-7.2626953-15.6640625-11.3886719-22.1181641
					c-3.5927734-5.6201172-7.6650391-11.9902191-12.5634766-22.5156097
					c-7.4570313-16.0229492-11.1992188-24.0654297-11.4726563-34.8447266
					c-0.2089844-8.2724609,1.4619141-13.9609375,3.078125-19.4619141
					c1.6308594-5.5498047,3.1708984-10.7919922,2.7568359-18.4956055
					c-0.5224609-9.7285156-3.96875-19.3413086-10.2421875-28.5708008l2.4804688-1.6865234
					c6.5849609,9.6884766,10.2050781,19.8139648,10.7578125,30.0961914
					c0.4414063,8.2172852-1.2441406,13.9545898-2.8740234,19.5024414
					c-1.5517578,5.2792969-3.1552734,10.737793-2.9580078,18.5400391
					c0.2568359,10.1557617,3.9121094,18.0092773,11.1943359,33.6552734
					c4.8134766,10.3432617,8.828125,16.6240082,12.3701172,22.1650238
					c4.2207031,6.6025391,7.8652344,12.3046875,11.6777344,22.7011719
					c4.5087891,12.2949219,5.9580078,22.2851563,6.5761719,26.5517578
					c4.1337891,28.5195313-2.6503906,51.6679688-9.2119141,74.0537109
					C735.7410278,407.8595581,727.4021606,428.1437378,717.0164185,447.4728394z"/>
			</g>
			<g id="XMLID_27_">
				<path id="XMLID_207_" class="st1" d="M712.5836792,162.7187653c0.2767944-3.2358398,1.071228-8.1898499,3.611145-13.6228638
					c1.0522461-2.250824,4.9055786-10.4931335,8.166626-9.9166565c2.1463013,0.379425,3.402832,4.4670105,3.416687,7.4166565
					c0.0252075,5.3648071-4.0500488,9.1242676-6.083313,11
					C718.6313477,160.4219818,715.2739868,161.9149933,712.5836792,162.7187653z"/>
			</g>
			<g id="XMLID_29_">
				<path id="XMLID_206_" class="st1" d="M712.5836792,162.7187653c-3.3209229-4.1864014-6.810791-6.3881836-9.055542-7.5395203
					c-3.6312256-1.8624878-10.7991333-4.4614868-12.75-2c-0.7180786,0.9060059-0.4827881,2.1865845-0.333313,3
					c0.9170532,4.9909973,7.3114014,7.3241882,8.25,7.6666565
					C705.0223999,166.1547089,710.9370117,163.5216217,712.5836792,162.7187653z"/>
			</g>
			<g id="XMLID_30_">
				<path id="XMLID_204_" class="st1" d="M705.2679443,144.2686615c0.7907104-1.1455994,3.7538452-5.7183228,2.5101929-11.17276
					c-0.8379517-3.6752319-3.7030029-8.2645645-6.416687-7.9166641c-2.2636108,0.2901917-3.7562866,3.9304886-4,6.5000076
					c-0.3952637,4.1677246,2.3165283,7.4045105,3.583374,8.9166565
					C702.4946289,142.445755,704.1479492,143.5999603,705.2679443,144.2686615z"/>
			</g>
			<g id="XMLID_31_">
				<path id="XMLID_203_" class="st1" d="M708.8341064,196.1265106c2.0327759-5.9189453,4.8759155-10.0585632,6.8607178-12.5306091
					c5.5446777-6.9058533,10.8603516-8.8552551,12-9.25c2.0857544-0.7224426,4.6334229-1.6048889,6-0.4166565
					c2.1665649,1.8837891,0.1297607,7.898468-2.083374,11.5c-2.940979,4.7859802-7.225769,6.9905396-9.25,8
					C716.8880615,196.1588287,711.7138672,196.2935028,708.8341064,196.1265106z"/>
			</g>
			<g id="XMLID_32_">
				<path id="XMLID_201_" class="st1" d="M708.8341064,196.1265106c-2.2680664-4.9017639-4.7202148-8.6612854-6.6392822-11.2806091
					c-5.3602905-7.3162537-9.5164795-9.7695923-10.666687-10.4166565c-2.3418579-1.3174133-6.552002-3.685791-8.666687-2.0833435
					c-2.7241821,2.0643311-0.041748,9.2566223,0.083374,9.5833435c2.2960205,5.9959106,7.3373413,9.083313,9.583313,10.4166565
					C699.0914917,196.2423248,705.6624756,196.3202362,708.8341064,196.1265106z"/>
			</g>
			<g id="XMLID_33_">
				<path id="XMLID_200_" class="st1" d="M715.5554199,234.8334808c0.2382813-8.6446533,2.1464844-15.359314,3.7227173-19.6542358
					c2.0630493-5.6213379,4.8775024-12.984375,12-17.416687c2.0125122-1.2523499,4.9562988-3.0842896,7.166687-2
					c3.7470093,1.8380737,3.3634644,11.0641479,1.166626,17.416687c-2.2550049,6.520813-6.5830688,10.483429-9.583313,13.1666565
					C724.5933228,231.2064362,719.039978,233.622818,715.5554199,234.8334808z"/>
			</g>
			<g id="XMLID_34_">
				<path id="XMLID_198_" class="st1" d="M715.5554199,234.8334808
					c-5.2547607-7.8496399-11.085022-12.5618896-14.8605957-15.1542358c-1.8977051-1.3029785-9.1795654-6.1236877-18.25-6.416687
					c-1.5738525-0.0508423-3.1503906,0.0362854-4,1.0833435c-2.0187378,2.4878235,1.3095093,8.8625183,4.833313,12.6666565
					c0.8077393,0.8720398,3.9674072,4.1368713,10.75,6.5C702.5588379,236.4847565,710.4683838,235.817337,715.5554199,234.8334808z"
					/>
			</g>
			<g id="XMLID_35_">
				<path id="XMLID_197_" class="st1" d="M731.638855,264.9117126c-0.6160889-10.7565765,1.4885864-18.8801727,3.1392822-23.6491547
					c2.5288696-7.3061218,5.5710449-11.2999878,9.25-13.9166565c1.6686401-1.1868286,4.1959229-2.9843445,6.333313-2.1666565
					c3.71875,1.4226685,3.7354126,9.7970886,3.166687,14.1666565c-1.0028076,7.7047119-5.1207275,12.9096069-6.75,14.9166565
					C741.5214233,260.7382813,735.1020508,263.6536255,731.638855,264.9117126z"/>
			</g>
			<g id="XMLID_36_">
				<path id="XMLID_195_" class="st1" d="M731.638855,264.9117126c-6.467041-5.7189941-12.4418335-9.6050568-16.8607178-12.1491547
					c-6.918396-3.9831238-13.852417-6.8814697-19.25-5.4166565c-0.8933105,0.2424316-2.8768311,0.8103638-3.75,2.5
					c-1.0463867,2.0248718,0.104248,4.4950867,0.75,5.8333435c3.5649414,7.3880768,12.1038818,10.4170074,13.083313,10.7499847
					c5.7623901,1.9589844,10.7530518,1.4107056,15.25,0.9166565
					C725.4397583,266.8428955,729.1363525,265.7814331,731.638855,264.9117126z"/>
			</g>
			<g id="XMLID_37_">
				<path id="XMLID_192_" class="st1" d="M746.8534546,299.5145569c-1.7486572-12.045929-0.3682251-21.33255,0.9246826-26.9186707
					c0.8154907-3.5235596,2.6325684-10.0526123,7.916687-14.8333435c2.9946899-2.7093964,4.739502-2.7189178,5.583313-2.5832977
					c3.3829956,0.5436707,5.0404053,5.4696198,5.583313,7.0832977c2.8334961,8.4216003-0.9575806,16.5780029-2.083313,19
					c-3.020752,6.4990234-7.4910278,10.4094238-10.166687,12.75
					C751.6709595,296.5847778,748.8991699,298.3556213,746.8534546,299.5145569z"/>
			</g>
			<g id="XMLID_38_">
				<path id="XMLID_176_" class="st1" d="M746.8534546,299.5145569
					c-8.0351563-8.2237854-15.866333-12.8273315-21.2420044-15.4186707
					c-3.041687-1.4662476-15.9080811-7.6684875-20.833313-3.5833435c-1.4974365,1.2420349-2,2.9165955-2,2.916687
					c-0.2455444,0.8181763-0.7139282,3.0974121,1.916687,7.1666565c5.0566406,7.8220215,14.2757568,10.9840393,15.083313,11.25
					c6.9337769,2.2836914,12.8144531,1.5453491,15.583313,1.1666565
					C740.3569946,302.3293152,744.2828369,300.767334,746.8534546,299.5145569z"/>
			</g>
			<g id="XMLID_39_">
				<path id="XMLID_172_" class="st1" d="M748.4846802,354.8684692c1.7008057-8.5263977,4.7913818-14.7823792,7.043457-18.6059265
					c1.4013672-2.3792725,6.5909424-10.79953,15.833313-15.833313c2.418335-1.3171082,4.6077881-2.1265869,6.333374-1.25
					c2.8843384,1.4652405,2.777771,6.7802429,2.75,8.1666565c-0.1951294,9.7316895-8.0718994,16.7757568-10,18.5
					C762.2354736,353.1873474,752.6530151,354.5467834,748.4846802,354.8684692z"/>
			</g>
			<g id="XMLID_40_">
				<path id="XMLID_171_" class="st1" d="M748.4846802,354.8684692c-4.7731323-9.415863-9.9172974-16.383728-13.87323-21.1059265
					c-4.7924194-5.7207031-9.8603516-10.5559998-16.333313-11.583313c-2.7486572-0.4362183-4.274231,0.0484924-5.25,0.833313
					c-2.94104,2.3654785-1.6990967,8.110321-1.416687,9.416687c1.732605,8.0145264,8.5246582,12.7947693,12.25,15.4166565
					c4.8340454,3.4021912,9.2874756,4.9202881,11.583374,5.5833435
					C740.8157959,354.9803467,745.4621582,355.0527039,748.4846802,354.8684692z"/>
			</g>
		</g>
		<g id="XMLID_43_">
			<g id="XMLID_126_">
				<path id="XMLID_174_" class="st1" d="M309.6009216,433.6095581l-0.9462891-2.8476563
					c20.6264648-6.8535156,40.4262695-15.7861328,58.8481445-26.5498047
					c20.7792969-12.1416016,40.40625-23.609375,56.6083984-46.6445313
					c2.4248047-3.4482422,8.1054688-11.5244141,13.1474609-23.2744141c4.2392578-9.875,5.4765625-16.3730469,6.9091797-23.8984375
					c1.2480469-6.5527344,2.6621094-13.9804688,6.3291016-24.9951172
					c5.5810547-16.7685547,8.3828125-25.1855469,15.5869141-33.2099457
					c5.5283203-6.1572266,10.6484375-9.1445313,15.6005859-12.0332031
					c4.9970703-2.9150391,9.7158203-5.6679688,14.7050781-11.5532227
					c6.3007813-7.4311523,10.3964844-16.7856445,12.1738281-27.8032227l2.9609375,0.4775391
					c-1.8652344,11.5654297-6.1875,21.4116211-12.8457031,29.2661133
					c-5.3222656,6.2768555-10.4873047,9.2900391-15.4824219,12.2041016
					c-4.7519531,2.7719727-9.6660156,5.6391602-14.8798828,11.4458008
					c-6.7871094,7.5605316-9.5224609,15.7792816-14.9736328,32.1533051
					c-3.6035156,10.8251953-4.9980469,18.1484375-6.2275391,24.609375
					c-1.4658203,7.6972656-2.7314453,14.3447266-7.0996094,24.5205078
					c-5.1650391,12.0361328-10.9716797,20.2919922-13.4511719,23.8173828
					c-16.5771484,23.5693359-37.4052734,35.7392578-57.5478516,47.5078125
					C350.4148865,417.670105,330.4246521,426.6896362,309.6009216,433.6095581z"/>
			</g>
			<g id="XMLID_123_">
				<path id="XMLID_168_" class="st3" d="M501.9136047,223.5618744c2.4231873-2.162262,6.4025574-5.2180939,11.9797058-7.4235535
					c2.3105469-0.9136963,10.7716064-4.259491,12.7463989-1.60112c1.2997437,1.749649-0.593689,5.5839996-2.6091309,7.7377777
					c-3.6655884,3.9172974-9.2096558,3.8518677-11.975769,3.8192444
					C507.887146,226.0450287,504.4212646,224.8249512,501.9136047,223.5618744z"/>
			</g>
			<g id="XMLID_120_">
				<path id="XMLID_167_" class="st3" d="M501.9136047,223.5618744c0.4605408-5.323761-0.5645142-9.3208008-1.4057617-11.6992035
					c-1.3608093-3.8474426-4.7868958-10.6588745-7.8953552-10.2091064
					c-1.1441345,0.1655426-1.8524475,1.2580414-2.3023376,1.9519958c-2.7605896,4.2579651,0.285675,10.344986,0.7328491,11.2384644
					C494.0574646,220.8674622,500.1652222,223.0147705,501.9136047,223.5618744z"/>
			</g>
			<g id="XMLID_117_">
				<path id="XMLID_165_" class="st3" d="M509.2647095,205.1258392c1.3614807-0.2898407,6.6555786-1.5792847,9.4969482-6.3984375
					c1.9145508-3.2471466,2.9831543-8.550766,0.7715454-10.1613007c-1.8447876-1.3434143-5.4296265,0.2779236-7.3712769,1.9785004
					c-3.149231,2.7583466-3.4005127,6.9734955-3.5179138,8.942688
					C508.5003662,201.8962708,508.9096985,203.870636,509.2647095,205.1258392z"/>
			</g>
			<g id="XMLID_114_">
				<path id="XMLID_164_" class="st3" d="M476.2473145,245.2731323c5.5421753-2.9069519,10.4516296-3.9639435,13.5920105-4.3981018
					c8.7728577-1.2128296,13.9757385,1.0202179,15.0752869,1.5158234c2.0123596,0.907074,4.4703674,2.0149994,4.6478577,3.8171997
					c0.2814331,2.8571777-5.3294067,5.8309631-9.4113464,6.9294128c-5.4244385,1.4596863-10.0531311,0.1200256-12.2178345-0.5361481
					C482.0800171,250.8271332,478.2261047,247.3720093,476.2473145,245.2731323z"/>
			</g>
			<g id="XMLID_111_">
				<path id="XMLID_162_" class="st3" d="M476.2473145,245.2731323c1.7171631-5.1208191,2.5161438-9.537674,2.9197083-12.7595978
					c1.1272278-8.9994202-0.2094727-13.6368866-0.6012878-14.8970947c-0.7977905-2.5658112-2.2320862-7.1785583-4.869751-7.4657593
					c-3.3978882-0.3699646-6.3866882,6.7005005-6.5200806,7.023941c-2.4481812,5.9354095-0.9034119,11.6416016-0.1862793,14.1531525
					C469.0853271,238.6672516,473.8086548,243.2360687,476.2473145,245.2731323z"/>
			</g>
			<g id="XMLID_108_">
				<path id="XMLID_161_" class="st3" d="M454.5540466,278.026886c6.1093445-6.1206665,12.1073914-9.6916199,16.2024841-11.7314758
					c5.3598022-2.6698303,12.4618835-6.0898132,20.6832275-4.4210205c2.3229675,0.4715271,5.7209473,1.1612549,6.5832214,3.4673157
					c1.4617615,3.9092102-5.1524353,10.3527832-11.1116333,13.4623108
					c-6.1170044,3.191864-11.984375,3.1005249-16.0079651,2.9909058
					C463.6148682,281.596344,457.9185181,279.5395813,454.5540466,278.026886z"/>
			</g>
			<g id="XMLID_105_">
				<path id="XMLID_159_" class="st3" d="M454.5540466,278.026886c1.5702209-9.3146973,0.567688-16.7438354-0.3968811-21.2210083
					c-0.4848328-2.2503204-2.4681396-10.7550964-8.8607483-17.1965942c-1.1092224-1.117691-2.3151245-2.1369324-3.6517639-1.9591827
					c-3.1758728,0.4223175-5.1337585,7.3419037-5.1843262,12.5270844c-0.0116272,1.1885986,0.043396,5.7316742,3.3513489,12.1070557
					C443.9721985,270.3027649,450.1803894,275.2489319,454.5540466,278.026886z"/>
			</g>
			<g id="XMLID_102_">
				<path id="XMLID_158_" class="st3" d="M445.5918579,310.9367065c6.9384766-8.2426453,14.046814-12.7029114,18.5215759-15.0362549
					c6.8553772-3.574707,11.8094177-4.3890991,16.2806702-3.7650146c2.0280151,0.2830505,5.0995789,0.7117615,6.0918579,2.7738953
					c1.7264709,3.5877991-4.0119934,9.6871033-7.4259338,12.4730835c-6.0196838,4.912384-12.5873413,5.8684082-15.1499634,6.2086792
					C455.6419067,314.6889954,448.9733582,312.400238,445.5918579,310.9367065z"/>
			</g>
			<g id="XMLID_99_">
				<path id="XMLID_156_" class="st3" d="M445.5918579,310.9367065c-0.7741394-8.5982666-2.4490662-15.526062-3.9144287-20.4098816
					c-2.2942505-7.6463013-5.3447266-14.51474-10.2744141-17.156311c-0.8158875-0.4371643-2.6477966-1.3863525-4.4428101-0.7576599
					c-2.151123,0.753479-3.0108948,3.339325-3.4604187,4.7556152c-2.48172,7.8188171,1.6458435,15.8842468,2.1291809,16.7988586
					c2.843811,5.3810425,6.8483276,8.4094543,10.456665,11.1382751
					C439.7592773,308.0838013,443.175415,309.8505554,445.5918579,310.9367065z"/>
			</g>
			<g id="XMLID_96_">
				<path id="XMLID_155_" class="st3" d="M432.8910828,346.5391235c7.0005188-9.9576721,14.381012-15.7607117,19.1567688-18.9337769
					c3.0123901-2.0014954,8.8167114-5.5000916,15.9408875-5.3469849c4.0375366,0.0867615,5.3124695,1.2779846,5.8327637,1.9559937
					c2.085968,2.7182617-0.0917358,7.4373474-0.8051453,8.9832458
					c-3.7231445,8.0678406-12.0799561,11.3939514-14.5614319,12.3816223
					c-6.6587219,2.650238-12.5936279,2.4232788-16.1459656,2.2874451
					C438.4050293,347.7173767,435.1740723,347.1013794,432.8910828,346.5391235z"/>
			</g>
			<g id="XMLID_93_">
				<path id="XMLID_154_" class="st3" d="M432.8910828,346.5391235
					c-0.1940918-11.4959412-2.7258606-20.2200623-4.8543091-25.7952271
					c-1.2043457-3.1545715-6.2987061-16.4984741-12.6843262-16.9107971
					c-1.9414673-0.1253662-3.4566956,0.7468872-3.4567566,0.7469482c-0.7403259,0.426178-2.6459351,1.7614441-3.5278625,6.526001
					c-1.695282,9.1585999,2.8353271,17.7878418,3.2397461,18.5357361c3.4724121,6.4214478,8.254425,9.9228516,10.5273132,11.5488892
					C426.2355957,344.1243286,430.1621094,345.6846313,432.8910828,346.5391235z"/>
			</g>
			<g id="XMLID_53_">
				<path id="XMLID_152_" class="st3" d="M396.0664063,387.899231c7.0913391-5.030426,13.6339111-7.4560242,17.896637-8.6891174
					c2.6525574-0.767334,12.2071838-3.3249207,22.3825989-0.6376953c2.6624756,0.703125,4.809967,1.6181335,5.4624634,3.4403076
					c1.0906372,3.0457764-2.6365356,6.8363953-3.6087646,7.8251953c-6.8244324,6.9405212-17.3875427,6.6524353-19.9732056,6.5819092
					C407.217041,396.1195374,399.3175049,390.52771,396.0664063,387.899231z"/>
			</g>
			<g id="XMLID_47_">
				<path id="XMLID_151_" class="st3" d="M396.0664063,387.899231c2.9958191-10.1225586,4.0409546-18.7203064,4.4078064-24.8696289
					c0.444397-7.4495544,0.0805359-14.4446716-3.9195862-19.6363525c-1.6986389-2.2045898-3.1405029-2.8997803-4.3887634-2.9992981
					c-3.7623291-0.2999573-6.8043823,4.729126-7.4961243,5.8727112c-4.243927,7.0159912-2.5888672,15.1549988-1.6811218,19.6191101
					c1.177948,5.7927246,3.3729553,9.9544067,4.5866699,12.01297
					C390.4146118,382.7144775,393.7426453,385.9576416,396.0664063,387.899231z"/>
			</g>
		</g>
		<g id="XMLID_135_">
			<g id="XMLID_208_">
				<path id="XMLID_153_" class="st1" d="M88.997406,443.2179565c-1.59375-9.1386719-4.1157227-18.0576172-7.4970703-26.5078125
					c-3.8032227-9.5058594-7.3955078-18.4853516-16.0175781-26.6992188
					c-1.2895508-1.2294922-4.3090858-4.1074219-8.9111366-6.9521484c-3.8461914-2.3779297-6.4868164-3.3007813-9.5449219-4.3701172
					c-2.7294922-0.9541016-5.8232422-2.0361328-10.3203125-4.3173828c-6.8740215-3.4882813-10.3242168-5.2392578-13.38867-8.9443359
					c-2.3505859-2.8417969-3.3198242-5.2695313-4.2573242-7.6171875c-0.8930664-2.2373047-1.7368164-4.3505859-3.8232431-6.7324219
					c-2.652832-3.0283203-6.2373047-5.2763672-10.6533203-6.6816406l0.9101563-2.859375
					c4.9438477,1.5742188,8.9814453,4.1191406,12.000001,7.5644531c2.425293,2.7685547,3.4047852,5.2226563,4.3525391,7.5957031
					c0.890625,2.2314453,1.7324219,4.3388672,3.7827148,6.8183594c2.6669922,3.2246094,5.9311523,4.8808594,12.4345684,8.1806641
					c4.3188477,2.1914063,7.3120117,3.2382813,9.953125,4.1611328c3.2236328,1.1269531,6.0078125,2.1005859,10.1318359,4.6494141
					c4.8681641,3.0097656,8.0463905,6.0390625,9.4038124,7.3330078
					c9.0947266,8.6650391,12.9780273,18.3701172,16.7329102,27.7558594
					c3.4584961,8.6435547,6.0380859,17.7646484,7.6669922,27.1074219L88.997406,443.2179565z"/>
			</g>
			<g id="XMLID_205_">
				<path id="XMLID_150_" class="st1" d="M14.0897932,347.8479004c-0.7647257-1.1663208-1.8103113-3.0502625-2.3933916-5.55896
					c-0.2415657-1.0393066-1.1261187-4.8451538,0.128212-5.5153503c0.8255568-0.4411011,2.3340731,0.6062317,3.1210623,1.5988464
					c1.4313765,1.8052979,1.0520248,4.1559143,0.8627634,5.3287354
					C15.5232706,345.4681702,14.7852821,346.8628845,14.0897932,347.8479004z"/>
			</g>
			<g id="XMLID_202_">
				<path id="XMLID_149_" class="st1" d="M14.0897932,347.8479004c-2.2319832-0.5332031-3.9946661-0.3512573-5.0582018-0.1447754
					c-1.7204385,0.3340149-4.830749,1.3572693-4.8368258,2.7060547c-0.002243,0.49646,0.4168649,0.8665771,0.6830859,1.1016541
					c1.6334596,1.4425354,4.4119987,0.534668,4.8198452,0.4013977
					C12.447216,351.0138245,13.7465572,348.5558167,14.0897932,347.8479004z"/>
			</g>
			<g id="XMLID_199_">
				<path id="XMLID_148_" class="st1" d="M6.7254996,343.5565796c-0.0367708-0.5966492-0.2487402-2.927002-2.1154246-4.4394226
					c-1.2577732-1.019104-3.4426477-1.8092957-4.2669387-0.9720459c-0.687582,0.6983643-0.2262585,2.3237915,0.3729176,3.2562866
					c0.9718676,1.5125122,2.7462556,1.8865356,3.5751932,2.0612488
					C5.3053231,343.6764221,6.1698613,343.6277466,6.7254996,343.5565796z"/>
			</g>
			<g id="XMLID_196_">
				<path id="XMLID_147_" class="st1" d="M21.6838055,360.1260071c-0.8832493-2.538269-1.0208797-4.6905212-1.0061398-6.0518799
					c0.0411644-3.8030701,1.3195381-5.8713074,1.5997658-6.3068848c0.5128689-0.7972107,1.1393147-1.7709656,1.9160271-1.7320557
					c1.2313919,0.0616455,2.1386719,2.6333313,2.3463764,4.4367371c0.2760124,2.3964844-0.5865021,4.2775269-1.0024662,5.1553345
					C24.4126453,358.0008545,22.7007523,359.4186401,21.6838055,360.1260071z"/>
			</g>
			<g id="XMLID_183_">
				<path id="XMLID_143_" class="st1" d="M21.6838055,360.1260071c-2.0661049-1.0540466-3.8914375-1.6734924-5.234314-2.0491943
					c-3.7508945-1.0494385-5.8053484-0.7757568-6.3654528-0.6892395c-1.1403818,0.1761475-3.190526,0.4928284-3.4797688,1.5949097
					c-0.3726029,1.4197693,2.4409542,3.1375732,2.5698681,3.2147217c2.3657379,1.4161987,4.8873177,1.1219177,5.9995384,0.976593
					C18.4239006,362.7490845,20.66395,361.0326233,21.6838055,360.1260071z"/>
			</g>
			<g id="XMLID_173_">
				<path id="XMLID_140_" class="st1" d="M34.2198868,371.4168701c-2.212265-2.9829712-3.3486328-5.7569885-3.9553566-7.6256714
					c-0.7940941-2.4458008-1.7963314-5.6791687-0.5662136-9.0652466c0.3475876-0.9567261,0.8559971-2.3562317,1.8901443-2.5762634
					c1.7530689-0.3729553,4.0704784,2.8449097,5.0133152,5.5731812c0.9678192,2.8005066,0.5569611,5.2868042,0.2552643,6.9888
					C36.3105202,367.7947693,35.0757217,370.0838013,34.2198868,371.4168701z"/>
			</g>
			<g id="XMLID_170_">
				<path id="XMLID_136_" class="st1" d="M34.2198868,371.4168701c-3.8567181-1.2575684-7.0757103-1.3028564-9.0384769-1.177063
					c-0.9865379,0.0632324-4.7245827,0.3663025-7.865881,2.6730042c-0.545063,0.4002686-1.0544376,0.8478088-1.0636959,1.4267883
					c-0.0220165,1.3757019,2.7928238,2.6460571,4.9919472,2.9963379c0.5041027,0.0803223,2.4372005,0.3450317,5.3548107-0.6557007
					C30.2681732,375.4215698,32.7626534,373.0983582,34.2198868,371.4168701z"/>
			</g>
			<g id="XMLID_166_">
				<path id="XMLID_134_" class="st1" d="M47.6295547,377.3103027c-3.0609665-3.469696-4.5046539-6.771698-5.2119598-8.8202515
					c-1.0835991-3.1383972-1.1153488-5.2941895-0.5667572-7.153717c0.2488213-0.8434143,0.6256828-2.1208191,1.5644684-2.4115295
					c1.6333504-0.5057983,3.860054,2.3182983,4.8268661,3.9449768c1.7047539,2.8682861,1.6943512,5.7184143,1.6763687,6.8284302
					C49.8605614,373.2796326,48.4655952,375.9668579,47.6295547,377.3103027z"/>
			</g>
			<g id="XMLID_163_">
				<path id="XMLID_133_" class="st1" d="M47.6295547,377.3103027c-3.7010803-0.2164307-6.7497711,0.0556641-8.9170227,0.3683777
					c-3.3931351,0.4895935-6.5038452,1.3497009-7.9384079,3.276001c-0.237421,0.3188171-0.7567387,1.0367126-0.603529,1.8389587
					c0.1836166,0.9614563,1.2274036,1.4906006,1.8004456,1.7713318c3.1635571,1.5498657,6.8509693,0.308197,7.2700901,0.1609192
					c2.4658432-0.8666687,4.0060539-2.3754883,5.3938904-3.7350464
					C46.047966,379.6066895,47.0149879,378.2677612,47.6295547,377.3103027z"/>
			</g>
			<g id="XMLID_160_">
				<path id="XMLID_132_" class="st1" d="M61.9457855,384.9623718c-3.7854576-3.6047974-5.7822189-7.1075439-6.8270912-9.3371887
					c-0.6590881-1.4063721-1.7770042-4.0935364-1.2602196-7.1097107c0.292881-1.7093811,0.8796768-2.175354,1.2006454-2.3533325
					c1.2868195-0.713623,3.1530914,0.5105591,3.7644424,0.9115906c3.1906166,2.0929565,4.0734138,5.853302,4.335556,6.9699097
					c0.7034073,2.9962463,0.2306671,5.5026245-0.0522804,7.0028076
					C62.7958832,382.6950989,62.3293648,384.0283508,61.9457855,384.9623718z"/>
			</g>
			<g id="XMLID_157_">
				<path id="XMLID_131_" class="st1" d="M61.9457855,384.9623718c-4.8950424-0.6465454-8.7610245-0.1244202-11.2639656,0.4260864
					c-1.4162292,0.3114929-7.4068909,1.6290894-7.9869461,4.315155c-0.1763535,0.8166504,0.0980339,1.5155334,0.0980568,1.515564
					c0.1340637,0.3414612,0.580368,1.2355042,2.5481224,1.9122314c3.7824783,1.3008118,7.7349205-0.0763245,8.0782127-0.2006836
					c2.9476051-1.0676575,4.7380142-2.876709,5.572773-3.7389832
					C60.4981041,387.6360779,61.4098091,386.0672913,61.9457855,384.9623718z"/>
			</g>
			<g id="XMLID_142_">
				<path id="XMLID_130_" class="st1" d="M77.1777878,403.2258301c-1.6869278-3.3309326-2.3022842-6.2636108-2.5557251-8.1523438
					c-0.1577148-1.175293-0.6381378-5.3956604,1.1484528-9.5471191c0.4674835-1.0862732,0.9922943-1.9403687,1.8076096-2.1019592
					c1.3628159-0.2700806,2.7364731,1.5533447,3.0947952,2.0289917c2.515152,3.3386841,1.7229691,7.8069458,1.5290451,8.9006958
					C81.3763275,399.0109863,78.500351,402.0116272,77.1777878,403.2258301z"/>
			</g>
			<g id="XMLID_138_">
				<path id="XMLID_129_" class="st1" d="M77.1777878,403.2258301c-4.1094437-1.9143372-7.6949387-2.9034424-10.2835007-3.4491882
					c-3.1359215-0.6611328-6.1300697-0.9501648-8.5888138,0.4196167c-1.0440674,0.581665-1.4307823,1.1499939-1.5522041,1.6738892
					c-0.3659782,1.5789795,1.5771523,3.1899414,2.0190125,3.5562744c2.7108231,2.247406,6.2727013,2.0605774,8.2263374,1.9580994
					c2.5350571-0.1329956,4.4418564-0.8013916,5.3931656-1.1863708
					C74.6172562,405.2975464,76.20578,404.0896912,77.1777878,403.2258301z"/>
			</g>
		</g>
	</g>
	<g id="XMLID_50_">
		<g id="XMLID_13_">
			<g id="XMLID_4_">
				<path id="XMLID_128_" class="st4" d="M630.6531372,284.8458862c-3.4564819-0.454071-7.1584473-0.8063049-11.083313-1
					c-6.9276733-0.3418884-13.2772217-0.1270142-18.916687,0.375c0.0343628-1.9975891,0.0029297-5.0144653-0.375-8.6666565
					c-0.303833-2.93573-0.6879272-4.8944397-2-11.666687c-0.4381714-2.2615051-1.4362793-7.421814-1.958313-10.1249847
					c0.375061-0.201416,0.949707-0.5717163,1.458313-1.208313c0.9797363-1.2263184,1.0317383-2.5866089,1.041687-3
					c0.0385742-1.6078796-0.7122192-1.6319275-0.791687-3.2083435c-0.1046143-2.0752563,1.1170044-3.6116028,0.583313-4
					c-0.1691895-0.1231384-0.4106445-0.0550842-0.458313-0.0416565c-0.414856,0.1169128-0.5786743,0.6406555-0.916687,1.7916565
					c-0.2398682,0.816925-0.4268799,1.4709473-0.541626,1.875c-0.3944702,0.1274414-0.9860229,0.2764282-1.708374,0.2916565
					c-1.8858643,0.0397949-2.5761108-0.8760681-3.25-0.5c-1.0283203,0.5738525-0.6119995,3.3707886-0.125,4.9583435
					c0.3640747,1.1869812,0.8840942,2.0773926,1.25,2.625c-0.1019897,2.1376953-0.2303467,5.1446686-0.333313,8.7499847
					c-0.1187744,4.1572876-0.2133789,7.4701538-0.166687,10.7916565c0.052124,3.707428,0.3005371,8.8602905,1.166687,15.125
					c2.8553467,1.4449768,6.4285889,2.9455872,10.666687,4.0833435c6.7841797,1.8212585,12.7550049,2.0369568,17.083313,1.8333435
					C624.4031372,290.9014587,627.5281372,287.8736572,630.6531372,284.8458862z"/>
			</g>
			<g id="XMLID_5_">
				<path id="XMLID_127_" class="st5" d="M631.5906372,285.5333862c0.8555298-0.6255188,2.3985596-1.9317627,3.5-4.125
					c0.8709717-1.7343445,1.1148071-3.3244324,1.1875-4.3125c-0.1534424,0.1226807-2.0419312,1.5909729-3.6875,0.875
					c-1.1931152-0.519104-1.5697632-1.8867493-1.875-3.0625c-0.4945068-1.9048462-0.4285889-3.6978455,0.1875-6.875
					c0.9683228-4.993866,1.4934692-7.5359802,3.5-9.75c1.1311035-1.2480774,2.3280029-2.0058289,3.125-2.4374847
					c4.354187,2.4374847,8.708313,4.8749847,13.0625,7.3124847c-3.208313,4.9791565-6.416687,9.9583435-9.625,14.9375
					c-0.5476685,0.9981689-1.1621094,2.3650818-1.5625,4.0625c-0.6009521,2.5475159-0.4578857,4.729126-0.25,6.125
					c-0.4171143,0.1734314-2.1779175,0.8501892-4.25,0.125C632.744812,287.6529846,631.7893677,285.9157104,631.5906372,285.5333862
					z"/>
			</g>
			<g id="XMLID_7_">
				<path id="XMLID_125_" class="st4" d="M647.8614502,298.5958862c0.9478149,2.7695923,2.5897217,6.5068665,5.5,10.3333435
					c1.3476563,1.7719116,2.7295532,3.2503967,4.0237427,4.4685669c0.5756836,0.5418701,0.4945068,1.4711304-0.1737061,1.8936768
					c-2.7319336,1.7276306-6.3614502,3.6481018-10.8500366,5.1377563c-5.7050171,1.8933716-10.7459106,2.40979-14.333313,2.5
					c-0.055542-1.8333435-0.111145-3.6666565-0.166687-5.5c2.8242188,0.2250671,7.9088135,0.1937866,13.166687-2.5
					c1.6392212-0.8398132,3.0067749-1.7906189,4.125-2.7083435c-1.652771-2.0416565-3.305542-4.0833435-4.958313-6.125
					C645.4170532,303.5958862,646.6392212,301.0958862,647.8614502,298.5958862z"/>
			</g>
			<g id="XMLID_8_">
				<path id="XMLID_124_" class="st6" d="M636.7781372,387.0958862c-0.1690674,4.2797852-0.4872437,8.7888794-1,13.5
					c-0.2901001,2.6650391-0.6266479,5.2495117-1,7.75c1.355957,2.4358521,3.1691895,6.3429565,3.875,11.375
					c0.7994995,5.7002563-0.329834,9.223877-0.875,15.375c-0.3632813,4.098877-0.5408936,10.1965942,0.625,17.875
					c-2.541687,0.958313-5.083313,1.916687-7.625,2.875c0.6218262-1.0650635,1.4354858-2.6774292,2-4.75
					c1.0428467-3.8289185,0.713562-7.3131714-0.5-12.625c-1.4404907-6.3052979-2.6690063-8.8045044-4.75-15.5
					c-1.4987793-4.8223877-2.3609619-8.3504639-3.375-12.5c-1.4050293-5.7496338-3.0802002-13.6505737-4.375-23.375
					C625.4448242,387.0958862,631.1114502,387.0958862,636.7781372,387.0958862z"/>
			</g>
			<g id="XMLID_9_">
				<path id="XMLID_122_" class="st6" d="M621.6114502,389.3458862c-1.0826416,4.2764282-2.4450684,8.8286743-4.166626,13.583313
					c-0.8074951,2.2301636-1.6448975,4.3693237-2.5,6.416687c1.7206421,9.3260498,0.4297485,15.8411255-1.083374,20.083313
					c-1.4790039,4.1466064-3.8023071,7.8933105-5.5,15.166687c-0.815979,3.4958496-1.1655884,6.4274292-1.333313,8.333313
					c-3.111084,0.944458-6.222229,1.888916-9.333313,2.833374c1.1480103-0.9656372,2.4125366-2.1748047,3.666626-3.666687
					c0.774231-0.9210205,1.4358521-1.8204956,2-2.666687c0.3303833-4.8966675,0.7081299-12.3313599,0.666687-21.458313
					c-0.0383301-8.4442139-0.4024048-11.0458984-0.166687-15.541687c0.3334351-6.3595581,1.8118286-15.4552002,7.166687-26.5
					C614.5559082,387.0681152,618.0836792,388.2069702,621.6114502,389.3458862z"/>
			</g>
			<g id="XMLID_3_">
				<path id="XMLID_121_" class="st7" d="M633.1948242,283.0125427c0.4012451,0.446991-0.4866943,1.440094,0.083313,2.3333435
					c0.5041504,0.7900391,1.7425537,0.865448,2.583313,0.9166565c1.5874023,0.0966797,1.7612915-0.3955994,3.333374-0.4166565
					c1.6799316-0.0224915,2.9907227,0.5194397,3.75,0.8333435c0.0001221,0.000061,1.5150146,0.62677,2.583313,1.5
					c2.7459717,2.2445068-3.6873779,15.0985107-6.166687,26.583313c-1.4316406,6.6319275-4.2647095,19.7554626,1,32.3333435
					c1.7723389,4.2343445,3.9031982,7.0706787,3.333374,11.6666565c-0.7525024,6.0696411-5.3004761,7.830658-7,13.6666565
					c-0.9953613,3.4180908-1.1655273,8.7555542,3.333313,16.666687c-2.361145,1.5723877-6.595459,3.9157715-12.333313,4.666687
					c-10.0596924,1.3165283-17.696228-3.1837158-20-4.666687c5.027771-19.2937622,5.8914185-30.1959839,5.666626-36.6666565
					c-0.0667114-1.9206543-0.3577881-7.1486816,0.666687-14.0833435c0.628479-4.2541809,1.1141968-4.8329163,2.666687-11.9166565
					c3.5028076-15.9826965,2.223938-18.4833679,1-19.666687c-1.8738403-1.8115845-4.362854-1.2548218-5.916687-3.9166565
					c-1.3150635-2.2527771-0.7409058-4.7221375-0.6875-4.9375c0.2670288-1.0767517,0.8927612-2.3458252,7.0625-6.75
					c3.06604-2.1886292,4.9830322-3.3539429,7.5-4.875C630.0057373,283.6530457,632.6112061,282.3624268,633.1948242,283.0125427z"
					/>
			</g>
			<g id="XMLID_6_">
				<path id="XMLID_119_" class="st8" d="M636.9031372,257.5333862c-0.2941284,0.0058289-0.263855,1.0498657-1.125,1.5625
					c-0.4719238,0.2809448-0.7822876,0.1467285-1.1875,0.3125c-0.5314941,0.2174377-1.1062012,0.901825-1.3125,2.9375
					c-0.4190063-0.3462524-1.0293579-0.9558105-1.375-1.875c-0.9584961-2.5488586,0.7425537-5.817215,2.0625-5.8749847
					c0.4769897-0.020874,0.6032715,0.3906555,1.125,0.375c1.0939941-0.0328674,1.3896484-1.8679199,2.375-2.8125
					c2.5501709-2.4445801,9.6369019,1.1548767,10.5625,1.625c1.3479004,0.6846008,3.7149048,1.9165344,5.9375,4.4999847
					c0.8442993,0.9814148,3.3091431,3.9209595,4,8.375c0.8944702,5.7666626-1.5910034,11.4520569-2.75,11.375
					c-0.4082031-0.0271301-0.5001221-0.7590332-0.9375-0.75c-0.8574829,0.0177002-1.680481,2.8552856-1.75,5.4375
					c-0.0772095,2.8661804,0.7606201,5.9128113,1.625,5.9375c0.5613403,0.0160217,0.791687-1.2519531,1.25-1.1875
					c0.7053223,0.0991821,0.8205566,3.1950684,0.6875,5.3125c-0.0565796,0.9009399-0.2353516,3.7457581-1.0625,3.875
					c-0.4013672,0.0627136-0.5270386-0.5808411-1-0.625c-1.1965942-0.1117249-1.5233765,3.9015808-4.5,7.125
					c-1.6776733,1.8167725-2.2749023,1.3011169-2.9375,2.5625c-1.6622925,3.1646118,2.2600098,6.1003113,0.9375,9.375
					c-1.0027466,2.4828796-4.4682007,3.7928467-7.166687,3.5c-1.6611328-0.1802673-4.1812134-1.0926819-4.666626-2.8333435
					c-0.3598022-1.2902832,0.5053711-2.6520081,0.166626-2.833313c-0.3950806-0.2114563-1.4394531,1.7118835-2.166626,1.5
					c-0.4830322-0.1407471-0.5757446-1.1508179-0.666687-3.8333435c-0.1751099-5.1644897,0.0137329-5.9859009,0.5-6.1666565
					c0.6624146-0.2462158,1.1794434,0.9554749,1.916687,0.7916565c1.475647-0.3279114,0.1185913-5.301239,2.5-10.2916565
					c1.4619751-3.0636597,2.814209-2.9512634,3.208313-5.4583435c0.3174438-2.0194397-0.4453125-2.8217773-0.833313-6.7083435
					c-0.2000732-2.0040283-0.3360596-3.3658142-0.125-5.0416565c0.569397-4.521698,2.9051514-5.2966003,2.916626-9.375
					c0.0033569-1.2012024-0.0139771-2.8158875-1.083313-4.0833435c-1.1243286-1.3325806-2.2512207-0.9060974-3.416687-2.25
					C637.0588379,260.2221985,637.3753052,257.5240173,636.9031372,257.5333862z"/>
			</g>
			<g id="XMLID_10_">
				<path id="XMLID_118_" class="st9" d="M591.2781372,457.0958862c5.7930298,0,11.5859985,0,17.3790283,0
					c0.3807373-0.6387939,1.0194702-1.9174805,1.0584717-3.625c0.0661011-2.8939209-1.6400146-4.8532104-2.0625-5.3125
					c-0.0849609,1.0671997-0.3848877,2.5610962-1.4375,3.8125c-1.7113037,2.0345459-4.552002,2.4056396-7.1875,2.75
					c-3.7915649,0.4953613-6.4200439-0.0656738-7.4375,1.5625
					C591.3948364,456.5966797,591.3150024,456.901001,591.2781372,457.0958862z"/>
			</g>
			<g id="XMLID_12_">
				<path id="XMLID_116_" class="st9" d="M623.4968872,458.7373657c5.6600952-1.2340088,11.3201294-2.4679565,16.9802246-3.7019043
					c0.2359009-0.7052612,0.5875854-2.0906372,0.2620239-3.7672729c-0.5518799-2.8416138-2.6361694-4.3925171-3.1467896-4.7512817
					c0.1442871,1.0608521,0.1694946,2.5843506-0.5924072,4.03125c-1.2386475,2.352356-3.9351196,3.3200073-6.4367676,4.2178955
					c-3.5990601,1.291626-6.2867432,1.3033447-6.934021,3.1108398
					C623.5045776,458.2247314,623.491394,458.5390625,623.4968872,458.7373657z"/>
			</g>
		</g>
		<g id="XMLID_49_">
			<g id="XMLID_16_">
				<path id="XMLID_115_" class="st9" d="M522.4031372,448.4708862c0.1287842,1.6693115,0.2167358,3.4213867,0.25,5.25
					c0.0202637,1.1127319,0.019165,2.1965942,0,3.25c-4.7918091,0-9.5836792,0-14.3755188,0
					c0.1741943-0.3529053,0.512146-0.9248657,1.1255493-1.375c1.6618958-1.2195435,3.5235291-0.2072144,5.2499695-0.75
					c1.1077271-0.3482666,2.5541992-1.4606934,3.625-5.125
					C519.6531372,449.3041992,521.0281372,448.8875732,522.4031372,448.4708862z"/>
			</g>
			<g id="XMLID_20_">
				<path id="XMLID_113_" class="st9" d="M578.9864502,449.0125732c0.2094116,1.3260498,0.3757324,2.789978,0.458374,4.375
					c0.0615234,1.1793213,0.0698242,2.2935181,0.041626,3.333313c-8.2929077,0.5328369-10.2071533,0.3252563-10.250061,0
					c-0.0145874-0.1107788,0.1916504-0.2069702,0.9584351-0.666687c1.0853882-0.6506958,2.3566895-1.4678955,2.708313-1.75
					c0.7396851-0.5934448,1.3626099-1.9907837,0.708313-5.583313
					C575.4031372,448.8181152,577.1947632,448.9153442,578.9864502,449.0125732z"/>
			</g>
			<g id="XMLID_24_">
				<path id="XMLID_112_" class="st10" d="M523.2781372,381.0958862c-0.9899292,7.4909668-0.8825684,9.1051636-2.25,22.5
					c-1.5491943,15.1759033-2.0205078,16.3702393-2.5,23.75c-0.5446777,8.3829346-0.5282593,15.9481812-0.25,22.5
					c1.916687,0.25,3.833374,0.5,5.75,0.75c1.7392578-6.3494873,3.3480835-11.4783936,4.5-15
					c2.5963745-7.9376221,3.9452515-10.9920044,4.75-16.25c0.8362427-5.4639893,0.5880737-10.0618286,0.25-13.083313
					c3.4858398-5.2814941,6.0970459-10.0388794,8-13.833374c5.8181763-11.6014404,8.4561157-21.0245972,9.166687-23.666626
					c1.2017822-4.4683838,1.9622192-8.3531494,2.4541626-11.3347168
					c-8.8180542,1.2226563-17.6361084,2.4453125-26.4541626,3.6680298
					C525.7678833,365.4932861,524.4215698,372.4437866,523.2781372,381.0958862z"/>
			</g>
			<g id="XMLID_23_">
				<path class="st11" d="M577.5281372,437.0958862c-1.1730957-9.1008911-0.9713135-12.2827759-2.25-17.75
					c-0.8029175-3.4331665-2.3677368-8.5288696-5.75-14.5c0.6333008-7.2539673,0.8891602-15.7672729,0.25-25.25
					c-0.6109009-9.0630493-1.9122925-17.1277466-3.416687-24c-9.1008301,1.2618408-18.2017212,2.5237427-27.3024902,3.7856445
					c2.0740967,8.3323364,4.4289551,14.7988892,6.1358643,19.0476685c4.3187866,10.7498779,6.8827515,13.2272339,9.833313,22.416687
					c1.3673706,4.258667,1.3575439,4.2589722,4.6948242,13.8846436c1.7092896,4.9301147,3.2886963,9.4857178,5.1384888,14.3653564
					c1.9492798,5.1420898,4.7756958,12.1661987,8.645874,20.5c2.006958,0,4.013855,0,6.020813,0
					C579.0120239,446.9083252,578.2300415,442.5411377,577.5281372,437.0958862z"/>
			</g>
			<g id="XMLID_28_">
				<path id="XMLID_110_" class="st12" d="M478.3615112,317.5125427c-1.6388855,0.3333435-3.2778015,0.6666565-4.916687,1
					c0.3055725,1.472229,0.6111145,2.944458,0.916687,4.416687c1.75-0.444458,3.5-0.8888855,5.25-1.3333435
					C479.1948547,320.2347717,478.7781677,318.8736572,478.3615112,317.5125427z"/>
			</g>
			<g id="XMLID_14_">
				<path id="XMLID_109_" class="st13" d="M542.5281372,283.5958862c-2.5183105-2.4790955-12.7235107,4.0393982-17.75,7.25
					c-7.4069824,4.7311707-12.8760986,9.6336975-16.4999695,13.25c-5.6111145,2.9815979-11.863739,5.9614563-18.75,8.75
					c-4.2299194,1.7128906-8.3249207,3.2021179-12.25,4.5c0.5,1.6666565,1,3.3333435,1.5,5
					c8.7475281-1.6040955,16.0717468-2.9753723,21.5-4c13.5913391-2.5654602,16.1804504-3.1244202,19.9999695-5
					c10.2651978-5.040741,15.4343872-12.7247314,17.25-15.5
					C538.2566528,296.7322693,545.1047974,286.1324158,542.5281372,283.5958862z"/>
			</g>
			<g id="XMLID_18_">
				<path id="XMLID_107_" class="st14" d="M548.4031372,273.4083862c0.0490112,1.0172119,0.0164185,2.2998047-0.25,3.75
					c-0.3679199,2.0027466-1.0467529,3.5896606-1.625,4.6875c0.5053711,0.2986755,2.4725952,1.3807373,4.875,0.8125
					c1.1246948-0.2660217,1.944519-0.7991028,2.4375-1.1875c-0.3400269-1.5570068-0.6322632-3.5521545-0.625-5.875
					c0.0078125-2.4986877,0.3599243-4.6252136,0.75-6.25c-0.9821777,0.5155334-2.093689,1.1875916-3.25,2.0625
					C549.8184814,272.0871887,549.0510254,272.7695923,548.4031372,273.4083862z"/>
			</g>
			<g id="XMLID_17_">
				<path id="XMLID_92_" class="st4" d="M541.6531372,255.0959015c-0.7935791,3.3133392-0.8187866,6.1862946-0.6875,8.4374847
					c0.3049316,5.2276611,0.4946289,8.4799805,2.9375,10.4375c0.3580933,0.2869263,2.1646118,1.6679077,4.375,1.375
					c1.5606689-0.2068176,2.6327515-1.1566162,3.9375-2.3125c1.0178833-0.9017639,1.5372925-1.5910034,2.875-3.3125
					c3.7310791-4.8016663,3.7619629-4.6801147,3.9375-5.1875c1.0904541-3.1523743-0.6124268-6.3711243-1.375-7.8125
					c-0.588623-1.1125336-2.4976807-4.339798-6.4375-5.9999847c-1.3353882-0.5627136-4.9802856-2.0986023-7.375-0.375
					C542.5975342,251.2406464,542.2478027,252.613205,541.6531372,255.0959015z"/>
			</g>
			<g id="XMLID_11_">
				<path id="XMLID_91_" class="st15" d="M547.8614502,277.9292297c0.3999023,0.4474182-0.3025513,1.2763672,0.166687,2
					c0.4260864,0.6571045,1.4509277,0.660675,3.166687,0.6666565c1.1691895,0.0040894,1.946167-0.0033569,2.270813-0.5
					c0.362793-0.5549316-0.1680298-1.2175598,0.09375-1.46875c0.6057129-0.5812073,4.1940918,2.2503662,4.46875,2.46875
					c1.9822388,1.5761719,4.6416016,3.9111023,5.666687,5.1666565c3.7648315,4.6113892,1.0459595,13.7241516,0.333313,25.5
					c-0.0949097,1.5679932,0.4367676,10.9342346,1.5,29.666687c0.3388062,5.968811,0.6331787,10.881073,0.833313,14.1666565
					c-2.8214722,2.2434998-8.9268188,6.4732361-17.833313,8c-10.3331909,1.7713318-18.5075073-1.1120605-21.833313-2.5
					c-0.5575562-11.0932312-0.4346924-20.4084778-0.166687-27.3333435
					c0.3300781-8.5288086,0.9761353-15.9086609,2.166687-23.6666565c0.1953125-1.2727051,2.3051147-14.4797974,7.833313-24
					c0.000061-0.0000916,2.6978149-4.6459351,7.666687-7.3333435
					C544.3642578,278.6708984,547.1824951,277.1696472,547.8614502,277.9292297z"/>
			</g>
			<g id="XMLID_15_">
				<path id="XMLID_90_" class="st16" d="M556.7781372,273.0958862c0-1.1666565,0-2.3333435,0-3.5
					c1.6915283-1.9364014,4.3479004-5.6018372,5.125-10.75c0.3693848-2.4470825,1.0133667-6.7137299-1.5-9.7499847
					c-1.2224731-1.4767761-2.9169922-2.3303833-3.75-2.75c-2.1984863-1.1074524-2.9599609-0.7475281-5.875-2
					c-2.0637207-0.8867188-3.5664063-1.8767395-3.75-1.625c-0.1984863,0.2722168,1.5296021,1.4690857,1.25,2.125
					c-0.2766113,0.6489563-2.2313232,0.0948486-5,0.125c-3.3018188,0.0359802-6.7337646,0.8916931-6.75,1.625
					c-0.0133667,0.6028442,2.2802124,1.1944885,2.5,1.25c1.2627563,0.3189392,2.1109619,0.2168274,2.125,0.375
					c0.0177612,0.200531-1.322937,0.6196899-2.75,0.6875c-0.8846436,0.0420227-1.4031982-0.0699463-1.4375,0.0625
					c-0.0471191,0.1819458,0.8466187,0.7208862,1.875,0.875c0.8795776,0.1318054,1.4896851-0.0730286,1.5625,0.125
					c0.0615234,0.1673889-0.3519897,0.3747253-0.9375,1.0625c-0.3586426,0.4212952-0.7369995,0.8657837-0.625,1.0625
					c0.1876221,0.3294373,1.4810791-0.5096436,2.25-0.0625c0.43396,0.2523499,0.8118286,0.9790039,0.5625,3.0625
					c0.1618042-0.7007446,0.5036011-1.657074,1.3125-2.0625c1.1448364-0.573822,2.2334595,0.453125,4.8125,1.25
					c3.4405518,1.0630798,4.718811,0.2290649,5.4375,1.3125c0.7369385,1.1109161-0.3952026,2.3070526-0.6875,5.5624847
					c-0.1588745,1.7697754,0.0109863,3.2510986,0.1875,4.25c0.236145-0.4534912,0.8092041-1.3958435,1.9375-2
					c0.2697754-0.1444397,1.8377686-0.9840393,2.5625-0.375c0.7088013,0.5956726,0.3147583,2.3280334-0.4375,3.375
					c-1.1243286,1.5648193-3.1032104,1.6742554-3.4375,1.6875c-0.1237793,0.7902527-0.2866211,2.5377502,0.6875,3.4375
					c0.2680054,0.2475281,0.6937866,0.4971924,1.125,0.75C555.809021,272.6679382,556.3810425,272.929657,556.7781372,273.0958862z"
					/>
			</g>
		</g>
		<g id="XMLID_42_">
			<g id="XMLID_55_">
				<path id="XMLID_89_" class="st17" d="M500.1910095,290.0157471l-0.0001831,0.0003052l-16.9313354-9.9129028l0.0001221-0.0002441
					l-17.31604-10.1381226l-42.3545532,72.3424072c-1.2832031,2.1917114-0.5466919,5.008667,1.6449585,6.2918091l9.3792725,5.491333
					c2.1917114,1.2832031,5.008667,0.5466919,6.2918091-1.6450195l20.9098511-35.7144165
					c0.9176636-1.5673828,2.9321289-2.0940552,4.4995117-1.1763916l11.2554932,6.5897217
					c1.5673218,0.9176636,2.0940552,2.9321899,1.1763916,4.4995117l-8.0682373,13.7807617
					c-1.2832031,2.1916504-0.5466919,5.008606,1.6450195,6.2918091l9.3792725,5.491272
					c2.1916504,1.2832031,5.008606,0.5466919,6.2918091-1.6450195l29.5129089-50.4086914L500.1910095,290.0157471z"/>
			</g>
			<g id="XMLID_71_">
				<g id="XMLID_144_">
					<path class="st18" d="M698.0159302,312.4776611c-27.119873-15.5266724-61.7548828-5.7573242-77.5438843,21.2106323
						l-4.9041748,8.3764038l-147.0621643-86.1009369c-2.7827759-1.6292114-6.359436-0.6940918-7.9887085,2.0886688
						l-7.6174316,13.0107422c-1.6292114,2.7827759-0.6940918,6.359436,2.0886841,7.9887085L602.050415,365.152832
						l-4.904541,8.3769531c-15.7890015,26.9679565-7.3561401,61.9524536,19.4573975,78.0023193
						c27.0760498,16.2069702,62.2374268,7.151062,78.1454468-20.0201416l24.0571899-41.0901489
						C734.7139282,363.2506104,725.4012451,328.156311,698.0159302,312.4776611z M695.7177734,376.9042969l-24.0571899,41.09021
						c-8.3602905,14.2796021-26.7783813,19.0950317-41.0576782,10.7349243
						c-14.2792969-8.3601685-19.0947266-26.7782593-10.734436-41.0578003l24.0571899-41.09021
						c8.3603516-14.279541,26.7783813-19.0950317,41.0576782-10.7348633
						C699.2626343,344.206665,704.078125,362.6247559,695.7177734,376.9042969z"/>
				</g>
			</g>
		</g>
		<g id="XMLID_19_">
			<g id="XMLID_21_">
				<path id="XMLID_88_" class="st13" d="M587.7781372,353.0958862c0.8425903,0.4848022,1.9898682,0.3412476,2.875-0.375
					c-0.164917-7.6672974-0.4879761-15.5899048-1-23.75c-0.3476563-5.5408325-0.7678223-10.9589844-1.25-16.25
					c-3.2391357-3.9989624-7.2782593-8.9147339-12-14.5c-3.6721191-4.343689-11.9563599-14.0108032-17-13.5
					c-2.1724854,0.2199707-3.999939,1.249939-4,1.25c-0.6654053,0.375-1.954834,1.1017456-2.875,2.5
					c-1.4506836,2.2044067-1.0805054,4.7058716-1,5.25c0.4403687,2.9755859,2.5751953,4.2669067,10.375,10.5
					c5.2127686,4.1656494,5.3754883,4.480896,8.75,7c2.984375,2.2277832,5.6016846,4.0300903,7.625,5.375
					c0.2144165,4.0357666,0.6992188,8.5324707,1.625,13.375c1.6703491,8.7373657,4.2962646,16.090271,6.875,21.875
					C586.8635254,352.0873413,587.1254272,352.7203369,587.7781372,353.0958862z"/>
			</g>
			<g id="XMLID_22_">
				<path id="XMLID_87_" class="st19" d="M590.6531372,352.7208862c-0.541687-0.2708435-1.083313-0.5416565-1.625-0.8125
					c-0.75-0.0208435-1.5-0.0416565-2.25-0.0625c-2.083313-0.041687-4.166687-0.083374-6.25-0.125
					c0.960083,0.5843506,2.0901489,1.4511719,2,2.375c-0.071167,0.729248-0.8446045,0.899292-0.875,1.5
					c-0.0617676,1.2216797,2.9985352,3.2681885,5.75,2.5c1.5004883-0.4189453,3.059082-1.7167969,3.375-3.5
					C590.9161987,353.8168335,590.781311,353.1466064,590.6531372,352.7208862z"/>
			</g>
			<g id="XMLID_25_">
				<path id="XMLID_86_" class="st19" d="M470.8615112,317.3458862c-0.5240784,0.0771484-1.0184326,2.0629883-0.416687,3.8333435
					c0.1471558,0.4328918,0.5834045,1.6569214,1.8333435,2.4166565c2.1948853,1.3341064,4.9353027,0.0432739,4.9166565-0.25
					c-0.012146-0.1909485-1.2069092-0.1609802-1.25-0.5c-0.0519409-0.408783,1.6390991-0.8165894,1.5833435-1.25
					c-0.0446777-0.347168-1.1592102-0.3153687-1.25-0.75c-0.0936279-0.4481201,1.0114746-0.8641663,0.9166565-1.25
					c-0.0834961-0.3397522-0.9572754-0.0859985-1.833313-0.5833435c-1.1052856-0.6275024-1.1223145-1.8308105-1.75-1.833313
					c-0.6199341-0.0024719-0.8305054,1.1703491-1.5,1.1666565
					C471.4773254,318.3424072,471.2565918,317.2877197,470.8615112,317.3458862z"/>
			</g>
		</g>
	</g>
	<g id="XMLID_52_">
		<g id="XMLID_54_">
			<path id="XMLID_85_" class="st20" d="M419.8735657,208.8257599c0-70.7055359-57.5683289-127.9652252-128.3898926-127.4640198
				c-69.998642,0.4953766-126.8941803,58.117569-126.542984,128.1170959
				c0.22995,45.833374,24.6522522,85.940506,61.1493378,108.2164764
				c18.3929596,11.2261353,29.6496124,31.1819153,29.6496124,52.7301636v6.9472046h73.3333282v-6.9407959
				c0-21.3765259,10.9455261-41.4171143,29.2342529-52.4841309
				C395.2079773,295.618103,419.8735657,255.1049042,419.8735657,208.8257599z"/>
		</g>
		<g id="XMLID_56_">
			<path id="XMLID_84_" class="st21" d="M323.0331421,189.7884674c0-16.9147339-13.7120972-30.6268311-30.6268311-30.6268311
				S261.77948,172.8737335,261.77948,189.7884674c0,13.0361938,8.1484375,24.1627197,19.6268311,28.583313v59.7056122
				c0,3.8097534,3.0884399,6.8981934,6.8981934,6.8981934h8.2036133c3.8097534,0,6.8981934-3.0884399,6.8981934-6.8981934
				v-59.7056122C314.8847046,213.9511871,323.0331421,202.8246613,323.0331421,189.7884674z"/>
		</g>
		<g id="XMLID_48_">
			<g id="XMLID_45_">
				<path id="XMLID_83_" class="st7" d="M288.3615112,364.4292297c11.8625488-0.4334412,9.9439697-0.556427,19.1666565-0.8333435
					c0.0000916,0,11.7120361-0.3516846,26.9907837,2.7223816c2.7135925,0.5459595,4.0636597,1.1034851,5.3842163,2.2776184
					c3.2107544,2.8546753,0.4789124,12.7055664-6.0741577,23.8936157c7.5950623,7.6126099,7.2876282,20.027832-0.6749268,27.255188
					l-0.2513123,0.2280884c0.289917,0.4746704,0.6899109,1.1569824,1.1253967,1.9981079
					c2.2523499,4.3502808,4.9691162,9.5975952,2.9466248,13.0615234c-1.7165222,2.9398193-6.644989,4.258728-7.6007385,4.5064087
					c-0.0734863,0.019043-0.1471252,0.0380859-0.2208862,0.0570679c-17.9631653,4.626709-32.1865234,4.8613892-45.875,5
					c-12.887146,0.1304932-23.3417969,0.1713257-37.125-2.875c-0.0724182-0.0159912-0.1447144-0.0320435-0.2168732-0.0480957
					c-0.9012451-0.2005005-5.8122101-1.3492432-7.756897-5.4717407c-1.915741-4.0611572-0.0283966-9.0605469,2.6820984-11.2718506
					c1.199173-0.9783325,1.7764282-0.7720947,3.0833435-1.833313c2.4607239-1.9981689,3.2972565-5.0703125,3.6068268-7.4622803
					c-0.065918-0.0380249-0.1318207-0.0760803-0.1977386-0.1141052
					c-9.6553345-5.5728455-11.0517883-18.9498291-2.7555542-26.3966064l2.7631226-2.4801941
					c-2.011261-1.9309998-4.022522-3.8620605-6.033783-5.7930908c-4.5282593-4.3476257-2.1821747-12.0057678,4.0081329-13.0483704
					c1.427063-0.2403259,2.9091339-0.4766846,4.4423218-0.7053528c0.6103821-0.0910339,1.2433167-0.1829529,1.9723816-0.2778931
					C264.052948,365.2159424,277.0682068,364.8418884,288.3615112,364.4292297z"/>
			</g>
			<g id="XMLID_137_">
				<path id="XMLID_82_" class="st22" d="M333.82901,392.489502c0.6464233-1.1036987,1.2442017-2.1889648,1.81427-3.2611694
					c-15.7750244-2.2983398-31.7235718-3.9696655-47.5633545-4.9586182
					c-14.6850586-0.9162598-29.5663452-1.2679443-44.2955933-1.0614624
					c1.1923828,1.1448364,2.3847656,2.2896118,3.5771484,3.4344482l-2.7631226,2.4801636
					c-0.3891602,0.3493042-0.749939,0.7155151-1.0966187,1.0895386c14.6735229-0.2171021,29.5061035,0.1293945,44.1416626,1.0436401
					c16.3892212,1.0233765,32.8973389,2.7818604,49.2015381,5.2229004
					C336.0334778,395.0566406,335.0436707,393.7069702,333.82901,392.489502z"/>
			</g>
			<g id="XMLID_139_">
				<path id="XMLID_81_" class="st22" d="M335.6362,416.9904175c-16.0084229-3.3822632-32.3203735-5.4321899-48.6402588-6.0585938
					c-14.4432373-0.5574951-28.9967041,0.0029297-43.3955078,1.6224976c1.0665283,1.1300659,2.3162231,2.1356201,3.753479,2.9651489
					c0.065918,0.0380249,0.1318359,0.0760498,0.1977539,0.1141357c-0.1448364,1.1192017-0.4141235,2.3862915-0.9020996,3.6236572
					c13.3084106-1.3870239,26.7401733-1.8406982,40.0778198-1.3312988
					c16.2254028,0.6235352,32.4437256,2.6842041,48.3485718,6.0984497
					c-0.3480225-0.6986694-0.7028198-1.3873291-1.0477905-2.0535278c-0.4354858-0.8411255-0.8354492-1.5234375-1.1253662-1.9981079
					l0.2512817-0.2280884C334.0906067,418.8946533,334.9118958,417.9677734,335.6362,416.9904175z"/>
			</g>
			<g id="XMLID_97_">
				<path id="XMLID_80_" class="st22" d="M265.83255,444.3900146c4.4146118,3.727478,10.772644,7.8662109,19.0706177,9.9558716
					c4.7591553,1.1984863,10.3584595,2.6085205,16.625,0.25c5.8912964-2.2173462,9.4325562-6.6589966,11-8.625
					c0.9292603-1.1655884,1.7015991-2.3208618,2.3678589-3.4388428
					c-11.6124878,1.8049316-21.7581177,1.9639893-31.6178589,2.0638428
					C277.1170959,444.6582642,271.5112,444.696167,265.83255,444.3900146z"/>
			</g>
		</g>
	</g>
	<g id="XMLID_252_">
		<g id="XMLID_251_">
			<path id="XMLID_75_" class="st23" d="M84.9344177,457.4083862c-1.2113647-0.4799194-0.9218597-0.5749512-2.572937-1.3125
				c-1.3878326-0.6199951-1.6902161-0.590271-2-1c-0.5524292-0.7307129-0.3944092-1.7888794-0.166626-2.583313
				c-1.444458,0-2.888916,0-4.333374,0c-0.0796509,0.8929443-0.286438,2.1260376-0.833313,3.5
				c-0.4845581,1.2174072-1.0836792,2.1624146-1.583313,2.833313c4.416748,0,8.8334961,0,13.2502441,0
				c0.0767136-0.0975342,0.1638947-0.243042,0.1455688-0.40625
				C86.7899399,457.987854,85.9779968,457.8218384,84.9344177,457.4083862z"/>
		</g>
		<g id="XMLID_238_">
			<path id="XMLID_74_" class="st23" d="M122.9031677,451.6583862c-1.4583359,0.284729-2.9166641,0.569458-4.375,0.854187
				c-0.4362259,0.7108154-1.0498657,1.913208-1.3125,3.520813c-0.210289,1.2871704-0.1212234,2.3793335,0,3.125
				c6.0217361,0,12.043457,0,18.0652008,0c0.0153046-0.336731-0.0204926-0.8076782-0.3152008-1.1875
				c-0.7900543-1.0182495-2.4820404-0.1460571-4.8125-0.625c-1.9170074-0.3939819-3.2271271-1.4886475-4.4375-2.5
				C124.3495178,453.7044067,123.4537048,452.5139771,122.9031677,451.6583862z"/>
		</g>
		<g id="XMLID_79_">
			<path id="XMLID_73_" class="st24" d="M75.7781677,273.5958862c-1.3706436-0.4295044-3.6184921-0.4227905-13.1250038,7.75
				c-2.474781,2.127594-5.1897659,4.5921631-13.75,13.5c-7.5898247,7.8980103-9.4163666,10.0822449-9,12.875
				c0.2250175,1.5092773,1.0285301,2.6827393,5,6.375c6.9845123,6.4934387,11.4999161,9.624939,11.5,9.625
				c4.178566,2.8978882,10.0997658,7.2389526,17.3750038,13.375c-0.125-2.1666565-0.25-4.3333435-0.375-6.5
				c-1.9711761-3.9024658-4.8441544-8.6914673-9-13.625c-3.4267387-4.0679932-6.8788414-7.2289429-9.8750038-9.625
				c2.132206-1.3219604,5.134182-3.2542114,8.625-5.75c8.3268852-5.9533386,11.1682014-9.2025757,12.2500038-10.5
				c3.2531204-3.9015808,5.4251251-6.5885925,5.125-10.25C80.2988739,278.0486145,78.6103287,274.4833679,75.7781677,273.5958862z"
				/>
		</g>
		<g id="XMLID_141_">
			<path id="XMLID_72_" class="st24" d="M71.2781677,339.1792297c-0.7634506,7.879364-1.1083221,17.0276794-0.5,27.1666565
				c0.8465042,14.1088867,3.3068314,26.2702637,6,36c-0.7782288,1.550415-1.8233795,3.8994141-2.625,6.875
				c-2.3401031,8.6863403-0.603302,15.2824097,0.375,23.625c0.5897598,5.0292969,1.0765533,12.1658936,0.5,21
				c1.9166641,0,3.8333282,0,5.75,0c1.9745026-7.2373047,3.8129425-15.348877,5.25-24.25
				c1.4107819-8.7383423,2.2145081-16.8735962,2.625-24.25c1.7068634-4.1903076,3.7050323-9.953186,5.125-17
				c2.0233383-10.0411377,1.885849-17.8613281,1.75-23.75c-0.1677322-7.2707825-0.9975662-17.2151794-3.8333359-28.8333435
				C84.8892746,336.9014282,78.0837173,338.0403442,71.2781677,339.1792297z"/>
		</g>
		<g id="XMLID_95_">
			<path id="XMLID_70_" class="st25" d="M109.2781677,338.3458862c3.2678375,11.9328918,5.5819092,22.5869141,7.25,31.5
				c3.7185059,19.8690796,4.9814682,35.1186523,5.25,38.5c0.6829529,8.5996704,1.0162201,17.0228271,1.5,29.25
				c0.2419128,6.1142578,0.3999557,11.2007446,0.5,14.75c-2.1666641,0.5-4.3333359,1-6.5,1.5
				c-0.7154999-4.4656372-1.588829-8.0570679-2.25-10.5c-3.6780777-13.5900269-8.1189423-18.7148438-8.3333359-28.916687
				c-0.077034-3.6655884,0.4192886-6.6679077,0.8333359-8.583313c-3.1151886-4.3766479-5.5241623-8.2015991-7.25-11.083313
				c-5.866539-9.7957153-9.1885681-17.6239624-12.25-24.916687c-3.1927719-7.6056213-3.6506195-9.739624-3.8333359-10.6666565
				c-1.4001617-7.1040955-0.4249344-13.2566833,0.5833359-17.25
				C92.9448318,340.7347717,101.1115036,339.5403442,109.2781677,338.3458862z"/>
		</g>
		<g id="XMLID_78_">
			<path id="XMLID_69_" class="st26" d="M91.7156677,264.7208862c0.7127075,0.3121338,1.7403641,0.8076172,2.8958359,1.5416565
				c5.7395096,3.6462097,9.5126572,9.9264832,13.25,26c1.0329819,4.442627,3.1182404,14.1707764,4.6666641,31.8333435
				c0.663887,7.5728149,0.9913788,13.8927002,1.1666641,18.3333435c-6.4244232,2.7039185-12.0562897,4.9931335-16.6666641,6.833313
				c-8.1634979,3.2583618-13.1635361,5.1244812-14.6666641,3.3333435c-0.8949814-1.0664673,0.283371-2.4360962,0-6.5
				c-0.2703552-3.8772888-1.653183-7.0791626-2.1666718-7c-0.9332428,0.1438599,1.3182983,11.0771179-2.1666641,12.6666565
				c-0.2268143,0.1034546-0.5102997,0.1820984-3.5-0.333313c-3.9256897-0.6767578-5.8885269-1.0151367-6.5-1.5
				c-2.7046204-2.1445923-0.01017-9.5105286,1.1666641-13.5c2.2494659-7.6256714,1.72052-15.695282,0.6666641-31.8333435
				c-0.0000076-0.0000916-1.3078613-20.0278015,0.6666718-28.6666565c0.5976257-2.6147156,1.6321182-4.393158,2.0625-5.0833435
				c1.4865723-2.3839417,3.3283997-3.9119568,4.625-4.8125c2.1746979-0.6796265,5.0231857-1.3355713,8.3958359-1.5208435
				C87.9201202,264.3857422,89.9804459,264.5065918,91.7156677,264.7208862z"/>
		</g>
		<g id="XMLID_280_">
			<g id="XMLID_279_">
				<path id="XMLID_68_" class="st11" d="M125.2781677,245.0959015c0.4722214,3.5833435,0.9444427,7.1666565,1.4166641,10.75
					c2.2695694-0.4418945,5.7517776-0.8104248,9.8333359,0c7.3290558,1.4552155,11.9635162,5.7930145,13.75,7.6666412
					c1.0718079-1.8432312,4.7427063-8.6673737,3.1666718-17.5832977c-1.3487244-7.6299744-5.759613-12.3771973-7.4166718-14
					c-1.3202515,2.1639099-4.2306519,6.2766418-9.5,9.4166565
					C131.9926758,244.0485992,127.7194748,244.8329926,125.2781677,245.0959015z"/>
			</g>
			<g id="XMLID_282_">
				<path id="XMLID_67_" class="st11" d="M125.1948547,259.7625122v-4.4999847
					c-2.2973099,0.1937256-4.5945663,0.3875122-6.8918152,0.5812683c0.1099167,2.6140594,0.0618668,1.4713287,0.1717834,4.0854034
					h0.0000534c1.0988007,0.6927185,2.1976089,1.3854675,3.2964096,2.078186l3.8187103,7.9909668
					c1.058075-0.4658203,2.1161423-0.9316406,3.1742096-1.3974609
					C127.5744247,265.6547546,126.3846436,262.7086487,125.1948547,259.7625122z"/>
			</g>
			<g id="XMLID_286_">
				<path id="XMLID_66_" class="st27" d="M155.3614807,245.8459015c-0.40271-1.1978149-1.3548584-2.1517334-2.5632324-2.6693115
					c0.2564087,0.87146,0.4761963,1.7886963,0.6466064,2.7526245c0.3048706,1.7246094,0.40979,3.3682861,0.3787842,4.9154663
					C155.3110657,249.5668488,155.941803,247.5717926,155.3614807,245.8459015z"/>
			</g>
			<g id="XMLID_281_">
				<path id="XMLID_65_" class="st27" d="M125.2781677,245.0959015l1.4166641,10.75
					c-1.5887375,0.5800018-3.7391739,1.1835175-6.3333282,1.4166412c-1.2817764,0.1152039-2.4646835,0.1213379-3.5229721,0.0664368
					c-0.9396133-0.0487366-1.697998-0.7810059-1.7456055-1.7206879c-0.0470123-0.9278717-0.1638947-1.9707184-0.3980942-3.0957336
					c-0.272583-1.3093567-0.64785-2.4599304-1.0414047-3.4363861c-0.3723526-0.9238434,0.0439758-1.9742126,0.9590836-2.3675385
					c1.0400543-0.4470215,2.266655-0.8763733,3.665657-1.1960754
					C121.1393967,244.8587189,123.6019287,244.9194794,125.2781677,245.0959015z"/>
			</g>
		</g>
		<g id="XMLID_249_">
			<path id="XMLID_64_" class="st28" d="M118.6115036,270.4292297c-0.288475-1.1940308-0.6163254-3.3552856,0.25-5.666687
				c0.3421326-0.9128418,1.0382996-1.8432007,2.4166641-3.6666565c3.5310516-4.6712952,4.2618484-4.5951843,4.5-4.5
				c0.6112442,0.2442627,0.2534637,1.5235901,1.25,2.1666565c0.7812119,0.5041199,1.5095062,0.0460205,1.8333282,0.5
				c0.4763794,0.6678467-0.962532,1.8515625-0.5,3c0.2620544,0.6506348,0.8194427,0.5079041,1.3333282,1.25
				c0.7427216,1.0725403,0.6624908,2.9362793-0.1666565,3.5c-0.6034088,0.4102478-1.1278687-0.1913147-3.1666641-0.25
				c-1.1528854-0.0331726-1.9832687-0.0455933-2.5833359,0.5c-0.7579422,0.6891174-0.7012787,1.8619385-0.6666641,2.25
				C121.6115036,269.8181152,120.1115036,270.1236572,118.6115036,270.4292297z"/>
		</g>
		<g id="XMLID_77_">
			<path id="XMLID_63_" class="st25" d="M90.3615036,268.5958862c-2.1122818,1.5357666-2.8557892,3.6777649-3.0833359,4.3333435
				c-0.8537445,2.4596252-0.6656342,5.6437073,4.9166641,16c3.5539398,6.5932617,6.3911362,10.7077332,9.0833359,14.583313
				c5.2299347,7.5288086,8.1090012,10.5012207,12.1666641,11.25c1.1080322,0.2044678,1.6764908,0.3093567,2.4166718,0.0833435
				c4.2326202-1.2924805,4.4194794-10.4559326,5.5833282-24.1666565c0.4645767-5.4729004,1.2072754-13.1129761,2.4166718-22.3333435
				c-0.6578598-0.2619019-1.8813553-0.6433105-3.4166718-0.5c-0.9505005,0.0887146-1.717598,0.3502808-2.25,0.5833435
				c-1.8900146,5.8221436-3.6305923,12.1347961-5.0833282,18.9166565c-0.4970932,2.3205872-0.9397888,4.5995483-1.3333359,6.8333435
				c-1.8594284-5.5181274-3.7773514-9.9481201-5.25-13.0833435c-6.1612625-13.1170654-9.3985214-13.9380188-10.6666641-14.0833435
				C94.1307907,266.8141785,91.9959106,267.4075928,90.3615036,268.5958862z"/>
		</g>
		<g id="XMLID_284_">
			<path id="XMLID_62_" class="st28" d="M83.7156677,258.1583862c0.2541275,0.1720581,0.5765839,0.3141174,3.9375,0.125
				c2.6428146-0.1487122,3.5527115-0.2989807,4.5625-0.875c0.1200562-0.0684814,0.7235947-0.4179688,1.1875-0.875
				c1.7661591-1.7399139,0.9662476-4.5040436,0.8125-10.2499847c-0.108284-4.0468445,0.2392807-4.5152588-0.1875-7.1875
				c-0.483902-3.0299683-0.7615585-4.7684631-2.125-5.875c-2.3684845-1.9222107-6.9152222-1.0460815-9.5625,1.25
				c-4.1881104,3.6325378-3.1003952,10.3665466-2.9375,11.375c0.6128235,3.7939453,2.2426834,3.9146118,2.9375,8.75
				C82.5342178,255.9428558,82.6209412,257.4171448,83.7156677,258.1583862z"/>
		</g>
		<g id="XMLID_283_">
			<path id="XMLID_51_" class="st29" d="M80.2781677,261.5958862c0.1967697-0.7624512,0.4021149-1.9450989,0.25-3.375
				c-0.1997986-1.8780823-0.9182587-3.2614288-1.375-3.9999847c2.2916641-0.6875,4.5833359-1.375,6.875-2.0625
				c0.2257385,1.2631836,0.4102859,2.6872559,0.5,4.2499847c0.1063614,1.8527832,0.0583954,3.5341797-0.0625,5
				C84.4031677,261.4708862,82.3406677,261.5333862,80.2781677,261.5958862z"/>
		</g>
		<g id="XMLID_76_">
			<path id="XMLID_44_" class="st25" d="M78.4448318,260.1792297c0.9775314-0.3749084,2.6078186-0.8606567,4.6666718-0.8333435
				c1.8872757,0.0250244,3.3896408,0.4713135,4.3333282,0.8333435c-0.2444382,0.4649353-0.5125961,1.1576538-0.25,1.75
				c0.3171616,0.7154236,1.2420349,0.7218628,2.5833359,1.4166565c0.8867416,0.4593201,1.5297241,0.9924011,1.9375,1.375
				c-1.5242767,0.8079834-4.3430557,2.0393066-8.0625,2.1875c-2.7372665,0.1090698-4.9726944-0.407959-6.4375-0.875
				c0.3688202-0.4782715,0.9540405-1.366394,1.25-2.625C78.8028793,261.9743042,78.5942841,260.7832947,78.4448318,260.1792297z"/>
		</g>
		<g id="XMLID_285_">
			<path id="XMLID_1_" class="st30" d="M77.7156677,255.9709015c0.8486786,0.1985016,2.2606125,0.4186859,3.9375,0.1249847
				c1.9551773-0.3424225,5.2120285-1.5483856,5.4375-3.4374847c0.1387939-1.1628723-0.8764954-2.5393372-2-4.0625
				c-0.5733261-0.7772827-1.2149582-1.4824829-1.125-2.4375c0.0196381-0.2084351,0.1142426-0.8547058,0.625-1.1875
				c0.6276474-0.4089661,1.6349258-0.1825256,2.0625,0.375c0.4735489,0.6174622-0.0618973,1.252594,0.4375,2.0625
				c0.3485565,0.5652771,1.0624542,0.9906616,1.375,0.8125c0.5913162-0.3370972-0.2400894-2.8425903-0.4375-3.4375
				c-1.1204987-3.3766785-2.4386139-3.8514099-2.375-5.6875c0.0445633-1.2862549,0.7537003-2.8504333,2-3.5625
				c2.2889099-1.3077698,4.6938553,1.227356,6.25,0c1.2334137-0.9728088,1.1098251-3.6596375,0.125-5.375
				c-0.4740524-0.8257141-1.1118927-1.3640137-1.6875-1.75c-4.2927704-2.8785095-10.7395172-1.0491943-11.9375-0.6875
				c-2.9589844,0.8933716-5.1617126,1.5584106-6.8125,3.6875c-3.5238571,4.5448914-1.0500336,11.2693481-0.9375,11.5625
				c1.1385422,2.9659424,2.6056671,3.4325256,3.9375,7.1875C77.4252396,252.5114288,77.6525269,254.593277,77.7156677,255.9709015z"
				/>
		</g>
	</g>
</g>
</svg>
