<?xml version="1.0" encoding="utf-8"?>
<!-- Generator: Adobe Illustrator 19.0.0, SVG Export Plug-In . SVG Version: 6.00 Build 0)  -->
<svg version="1.1" id="Layer_1" xmlns="http://www.w3.org/2000/svg" xmlns:xlink="http://www.w3.org/1999/xlink" x="0px" y="0px"
	 width="188px" height="97.8566132px" viewBox="-273 330.8786926 188 97.8566132"
	 style="enable-background:new -273 330.8786926 188 97.8566132;" xml:space="preserve">
<style type="text/css">
	.st0{fill:#1FB6FF;}
	.st1{fill:#FFFFFF;}
</style>
<g>
	<g>
		<path class="st0" d="M-178.7934265,340.4298096l11.6771698-9.5511169l11.5335693,7.0904541l0.0350342,26.6110535
			l-23.2457733,14.1604309l-23.6589203-14.1604309v-26.571106l11.7720795-7.1304016L-178.7934265,340.4298096z"/>
		<path class="st1" d="M-176.6072845,348.1091614c0,1.0566101-0.8555756,1.9143066-1.9137115,1.9143066
			c-1.0598602,0-1.9152527-0.8576965-1.9152527-1.9143066c0-1.0580139,0.8553925-1.9146423,1.9152527-1.9146423
			C-177.4628601,346.194519-176.6072845,347.0511475-176.6072845,348.1091614z"/>
		<path class="st1" d="M-176.6072845,354.8079529c0,1.059082-0.8574982,1.9161987-1.9144745,1.9161987
			c-1.0571747,0-1.9144897-0.8571167-1.9144897-1.9161987c0-1.0560303,0.8573151-1.9127808,1.9144897-1.9127808
			C-177.4647827,352.8951721-176.6072845,353.7519226-176.6072845,354.8079529z"/>
		<path class="st1" d="M-176.6072845,361.5097656c0,1.0594788-0.8576813,1.9150391-1.9146729,1.9150391
			c-1.0567932,0-1.9142914-0.8555603-1.9142914-1.9150391c0-1.0569763,0.8574982-1.9139099,1.9142914-1.9139099
			C-177.4649658,359.5958557-176.6072845,360.4527893-176.6072845,361.5097656z"/>
	</g>
	<g>
		<path class="st0" d="M-200.7566071,402.3568726c4.052948,0,5.404953,2.8984985,5.404953,2.8984985h0.0685425
			c0,0-0.0685425-0.5431519-0.0685425-1.2312317v-8.4794922h3.3599091v25.5811768h-3.187027v-1.7392883
			c0-0.7236633,0.0338898-1.230835,0.0338898-1.230835h-0.068924c0,0-1.420166,3.4056702-5.7512817,3.4056702
			c-4.7463837,0-7.7260742-3.9131775-7.7260742-9.6026306
			C-208.6911621,406.1252441-205.3995972,402.3568726-200.7566071,402.3568726z M-200.3053589,418.5179443
			c2.5975494,0,5.0574646-1.9206238,5.0574646-6.5951843c0-3.261322-1.6293945-6.5224915-4.9542694-6.5224915
			c-2.7715912,0-5.0584412,2.3921814-5.0584412,6.5588684
			C-205.2606049,415.9443054-203.2163239,418.5179443-200.3053589,418.5179443z M-253.3787079,409.677063h0.762146v-0.3262329
			c0-3.0069275-1.628067-4.021698-3.8463593-4.021698c-2.702301,0-4.884613,1.7748718-4.884613,1.7748718l-1.3866577-2.5722656
			c0,0,2.5296021-2.1744385,6.5482788-2.1744385c4.4345093,0,6.9284973,2.5375671,6.9284973,7.174469v11.5948181h-3.1175232
			v-1.7392883c0-0.8327942,0.0693054-1.4484863,0.0693054-1.4484863h-0.0693054c0,0-1.4205475,3.6225586-5.6121216,3.6225586
			c-3.0145264,0-5.9595642-1.92099-5.9595642-5.5797424C-263.946228,409.9299622-256.3229675,409.677063-253.3787079,409.677063z
			 M-257.2583923,418.7340698c2.8404999,0,4.6759186-3.1159973,4.6759186-5.8330383v-0.5783386h-0.865921
			c-2.5282593,0-7.1023254,0.1809082-7.1023254,3.4776306C-260.550354,417.2857666-259.4416809,418.7340698-257.2583923,418.7340698
			z M-246.0269165,402.7915649h3.3608551v10.9424744c0,2.5374451,0.4849396,4.5652466,3.2906036,4.5652466
			c3.5691681,0,5.6829376-3.2976685,5.6829376-6.9202576v-8.5874634h3.3595276v18.334259h-3.2567139v-2.4266052
			c0-0.7600403,0.0702667-1.3418274,0.0702667-1.3418274h-0.0702667c-0.7271271,1.8126221-3.0139618,4.2039795-6.4443207,4.2039795
			c-3.9491882,0-5.9932709-2.1748352-5.9932709-7.0305176L-246.0269165,402.7915649z M-223.8467407,402.9004822h-3.2572937
			l-0.0003815,18.3354492h3.3612518v-8.5883484c0-0.9049988,0.0693054-1.7396851,0.2766418-2.4637451
			c0.7271118-2.6446838,2.8755341-4.4924622,5.5435638-4.4924622c2.8054657,0,3.3258209,2.0281372,3.3258209,4.6013794v10.9427795
			h3.3608704v-11.7397766c0-4.6742249-1.9049072-7.0291138-6.0285034-7.0291138
			c-3.8109436,0-5.8894958,2.6086731-6.5819702,4.2026367h-0.0695038c0,0,0.0695038-0.6165161,0.0695038-1.3410339V402.9004822z
			 M-185.5062561,402.9000549h-3.2563477l0.0007782,18.3347168h3.3600922v-7.5007324
			c0-1.1228333,0.1035767-2.24646,0.4148712-3.2963562c0.7969971-2.7181702,2.7715759-4.3128967,4.9202118-4.3128967
			c0.5193939,0,0.969101,0.1088867,0.969101,0.1088867v-3.4789734c0,0-0.4154358-0.0720215-0.865921-0.0720215
			c-2.7022858,0-4.74617,2.1019897-5.5427856,4.7835388h-0.068924c0,0,0.068924-0.6169128,0.068924-1.3778687V402.9000549z
			 M-175.5567169,424.9310608c0,0,0.9704437,0.7604065,2.0444794,0.7604065c1.3498993,0,2.4941711-1.0142822,3.1523743-2.6816101
			l0.866684-2.1001587l-7.3447113-18.1181335h3.7747803l4.4011993,11.9940796
			c0.3455505,0.9423218,0.6572418,2.2095032,0.6572418,2.2095032h0.06987c0,0,0.2770233-1.2321472,0.5892792-2.1738892
			l4.2614288-12.0296936h3.6367493l-8.2094879,21.6327209c-1.0730438,2.8269348-3.2230072,4.3110352-5.681015,4.3110352
			c-1.9765015,0-3.3960876-1.1226501-3.3960876-1.1226501L-175.5567169,424.9310608z M-154.1126556,395.5446472h-3.3600922
			v25.5815735h3.3600922v-8.5883484c0-0.8693542,0.068924-1.7033081,0.2778015-2.4269714
			c0.7272949-2.6460266,2.9099884-4.5284119,5.5441284-4.5284119c2.8041229,0,3.3248749,2.028656,3.3248749,4.6013489v10.9419861
			h3.3600922v-11.7393799c0-4.6746826-1.9045105-7.0295715-6.0284882-7.0295715
			c-3.5004272,0-5.716629,2.3188782-6.4784088,4.0941772h-0.0695038c0,0,0.0695038-0.6520691,0.0695038-1.5214844V395.5446472z
			 M-129.8964233,402.3568726c4.9546585,0,7.5870667,3.8412476,7.5870667,8.5879517
			c0,0.4715576-0.1033707,1.5218201-0.1033707,1.5218201h-12.7841263c0.1734467,4.0223389,2.9111633,6.0516663,6.0279236,6.0516663
			c3.0153122,0,5.1978149-2.1382751,5.1978149-2.1382751l1.3860779,2.5730591c0,0-2.5998611,2.6082764-6.7906494,2.6082764
			c-5.5085297,0-9.2855988-4.1679993-9.2855988-9.6026306
			C-138.6612854,406.1252441-134.8851624,402.3568726-129.8964233,402.3568726z M-125.740097,409.820282
			c-0.1033859-3.151001-1.9738235-4.6720581-4.2252502-4.6720581c-2.5634918,0-4.6429901,1.6659546-5.1277313,4.6720581H-125.740097
			z M-109.179863,409.677063h-0.7638779c-2.944458,0-10.5660019,0.2528992-10.5679169,6.3045654
			c0,3.6587524,2.9463882,5.5797424,5.9597702,5.5797424c4.1927109,0,5.6132507-3.6225586,5.6132507-3.6225586h0.068924
			c0,0-0.068924,0.6156921-0.068924,1.4484863v1.7392883h3.1186905v-11.5948181c0-4.6369019-2.4945679-7.174469-6.9304123-7.174469
			c-4.018486,0-6.5475082,2.1744385-6.5475082,2.1744385l1.3860779,2.5722656c0,0,2.1825027-1.7748718,4.8838196-1.7748718
			c2.2188873,0,3.8481064,1.0147705,3.8481064,4.021698V409.677063z M-109.1473236,412.9010315
			c0,2.717041-1.8340683,5.8330383-4.6751404,5.8330383c-2.184433,0-3.2909927-1.4483032-3.2929001-2.9337463
			c0-3.2967224,4.5736847-3.4776306,7.1027069-3.4776306h0.8653336V412.9010315z M-101.66362,402.7915649h3.0842285v1.5579529
			c0,0.7245178-0.0708466,1.3418579-0.0708466,1.3418579h0.0708466c0,0,1.4894562-3.3345032,5.8870087-3.3345032
			c4.711525,0,7.6923828,3.913269,7.6923828,9.6018677c0,5.8341675-3.3599167,9.6026306-7.9336014,9.6026306
			c-3.8461838,0-5.3682022-3.0082092-5.3682022-3.0082092h-0.0708237c0,0,0.0708237,0.6520691,0.0708237,1.5943604v8.2247925
			h-3.3618164V402.7915649z M-93.4543381,418.5535278c2.7721634,0,5.059967-2.3913574,5.059967-6.5580444
			c0-3.9874573-2.0446701-6.5592041-4.9546661-6.5592041c-2.6324081,0-5.0580597,1.9210205-5.0580597,6.5957947
			C-98.4070969,415.2928162-96.6764145,418.5535278-93.4543381,418.5535278z M-269.4595642,395.54599h-3.5400391L-273,416.2745361
			c0,4.6351624,2.9563293,5.182312,4.9634705,5.182312c0.6204834,0,1.1680298-0.072937,1.1680298-0.072937v-3.1382141
			c0,0-0.2919617,0.036377-0.6204834,0.036377c-1.094696,0-1.9705811-0.4009094-1.9705811-2.6270447V395.54599z"/>
	</g>
</g>
</svg>
