<?xml version="1.0" encoding="utf-8"?>
<!-- Generator: Adobe Illustrator 19.0.0, SVG Export Plug-In . SVG Version: 6.00 Build 0)  -->
<svg version="1.1" id="Layer_1" xmlns="http://www.w3.org/2000/svg" xmlns:xlink="http://www.w3.org/1999/xlink" x="0px" y="0px"
	 width="300px" height="300px" viewBox="-155 247 300 300" style="enable-background:new -155 247 300 300;" xml:space="preserve">
<style type="text/css">
	.st0{fill:none;stroke:#016ECF;stroke-width:8;stroke-linecap:round;stroke-linejoin:round;stroke-miterlimit:10;}
</style>
<g>
	<path class="st0" d="M127,341.7485352l-44-12.3200073l-183.3333435-51.333313L83,329.4285278V304.285675
		c0-12.1502686,9.8497238-21.9999695,21.9999771-21.9999695h0.0000458C117.1502762,282.2857056,127,292.1354065,127,304.285675
		v176.1667175c0,19.5798035-15.8725739,35.4523926-35.4523849,35.4523926H-64.7142868h-36.8333282
		C-121.1274261,515.9047852-137,500.032196-137,480.4523926V416.776062c0-11.9132996,7.3400726-22.5950928,18.4613571-26.8663025
		l53.8243561-20.6716614v-81.1695557v227.8362427"/>
	<path class="st0" d="M27.9999714,441.5238037h0.0000534c14.7538776,0,26.7142582,11.9603577,26.7142582,26.7142334v47.666748
		H1.2857143v-47.666748C1.2857143,453.4841614,13.2460947,441.5238037,27.9999714,441.5238037z"/>
</g>
</svg>
