<?xml version="1.0" encoding="utf-8"?>
<!-- Generator: Adobe Illustrator 19.0.0, SVG Export Plug-In . SVG Version: 6.00 Build 0)  -->
<svg version="1.1" id="Layer_1" xmlns="http://www.w3.org/2000/svg" xmlns:xlink="http://www.w3.org/1999/xlink" x="0px" y="0px"
	 width="300px" height="300px" viewBox="-155 247 300 300" style="enable-background:new -155 247 300 300;" xml:space="preserve">
<style type="text/css">
	.st0{fill:none;stroke:#016ecf;stroke-width:8;stroke-linecap:round;stroke-linejoin:round;stroke-miterlimit:10;}
</style>
<g>
	<polyline class="st0" points="-70.5817566,499.6864929 -70.5817566,510.8872986 60.5817604,510.8872986 60.5817604,367.7998657 
		-70.5817566,367.7998657 -70.5817566,477.644165 	"/>
	<path class="st0" d="M-55.5413132,283.1127014l-68.9968109,43.4760437
		c-6.6909256,4.2160645-8.3152695,13.2684021-3.507637,19.54776l0.0000153,0.0000305"/>
	<path class="st0" d="M-118.4083176,358.7241821l13.9227448,18.1848145
		c4.5250854,5.9103394,12.9912033,7.0190125,18.8855743,2.473175l15.0182419-11.5823059H60.5817604l15.0182381,11.5823059
		c5.894371,4.5458374,14.3604889,3.4371338,18.8855743-2.473175l23.5601883-30.7724915
		c4.8076324-6.2793579,3.1832886-15.3316956-3.507637-19.54776l-68.9968109-43.4760437"/>
	<path class="st0" d="M-55.5413132,283.1127014c27.9132309,18.4881287,73.1693954,18.4881287,101.0826263,0"/>
	<path class="st0" d="M-55.5413132,283.1127014c27.9132309,54.3804321,73.1693954,54.3804321,101.0826263,0"/>
</g>
</svg>
