<?xml version="1.0" encoding="utf-8"?>
<!-- Generator: Adobe Illustrator 19.0.0, SVG Export Plug-In . SVG Version: 6.00 Build 0)  -->
<svg version="1.1" id="Layer_1" xmlns="http://www.w3.org/2000/svg" xmlns:xlink="http://www.w3.org/1999/xlink" x="0px" y="0px"
	 width="300px" height="300px" viewBox="-155 247 300 300" style="enable-background:new -155 247 300 300;" xml:space="preserve">
<style type="text/css">
	.st0{fill:none;stroke:#016ECF;stroke-width:8;stroke-linecap:round;stroke-linejoin:round;stroke-miterlimit:10;}
	.st1{fill:#016ECF;stroke:#016ECF;stroke-width:8;stroke-linecap:round;stroke-linejoin:round;stroke-miterlimit:10;}
</style>
<g id="XMLID_9_">
	<path id="XMLID_12_" class="st0" d="M127,384.9424133c0-44.6873779-36.2262726-80.9135437-80.913414-80.9135437h-91.5186615
		c-9.9435921,0-18.8230171,7.269928-19.7668037,17.1686707c-1.0827637,11.3551941,7.8173409,20.9082336,18.9489784,20.9082336
		h86.9421768c23.1322289,0,41.884594,18.7523804,41.884594,41.884613v28.5576477
		c-11.2397079-3.9866333-28.7626572-9.2807617-50.7691269-12.0576477
		c-28.7352314-3.625946-64.9805679-8.1995239-98.999939,10.7885132
		c-20.3633804,11.3659973-33.5929184,27.6374817-45.6922836,42.519165
		C-124.1190643,467.6159363-131.8817902,480.4592285-137,489.9711304h264V384.9424133z"/>
	<path id="XMLID_11_" class="st1" d="M-112.8847046,453.7981873C-124.1193008,467.6161499-131.8817902,480.4592285-137,489.9710083
		h264v-36.172821H-112.8847046z"/>
	<path id="XMLID_10_" class="st1" d="M31.8077488,400.4902954c0.3251324,0.0411377,0.6270237,0.0941162,0.9500637,0.1361694
		c-2.647768-10.3338013-9.7067757-19.486969-19.9885139-25.1806335c-13.1065969-7.2581482-30.526825-8.4139099-45.0578232-1.12854
		c-12.7047691,6.3697205-20.8753624,18.0437622-22.1596222,30.9402771
		C-24.2961845,393.4147644,6.6368809,397.3140259,31.8077488,400.4902954z"/>
</g>
</svg>
