<?xml version="1.0" encoding="utf-8"?>
<!-- Generator: Adobe Illustrator 19.0.0, SVG Export Plug-In . SVG Version: 6.00 Build 0)  -->
<svg version="1.1" id="Layer_1" xmlns="http://www.w3.org/2000/svg" xmlns:xlink="http://www.w3.org/1999/xlink" x="0px" y="0px"
	 width="300px" height="300px" viewBox="-155 247 300 300" style="enable-background:new -155 247 300 300;" xml:space="preserve">
<style type="text/css">
	.st0{fill:none;stroke:#016ecf;stroke-width:8;stroke-linecap:round;stroke-linejoin:round;stroke-miterlimit:10;}
</style>
<g>
	<path class="st0" d="M126.9999466,396.999939c0-11.2818909-5.6656647-21.8943787-15.6113663-31.1862793
		c3.9673615-13.0198669,3.5677567-25.0432129-2.0731888-34.8136292
		c-5.6409531-9.7705078-15.8539505-16.1283264-29.1129837-19.2023926
		c-3.0740662-13.2592468-9.4319763-23.4720154-19.2023811-29.1129761
		c-9.7705116-5.6409607-21.7939758-6.0405579-34.8137474-2.0733032C16.8943958,270.6656494,6.2819996,265-5,265
		s-21.8943958,5.6656494-31.1862793,15.6113586c-13.0197716-3.9672546-25.0432358-3.5676575-34.8137436,2.0733032
		c-9.7704086,5.6409607-16.1283188,15.8537292-19.2023849,29.1128845
		c-13.2591324,3.0740662-23.4720306,9.4319763-29.1129837,19.2024841
		c-5.6409454,9.7704163-6.0405502,21.7937622-2.0731888,34.8136292
		c-9.9457092,9.2919006-15.6113739,19.9043884-15.6113739,31.1862793c0,11.2820129,5.6656647,21.8944092,15.6113739,31.1862793
		c-3.9673615,13.0197754-3.5677567,25.043335,2.0731888,34.8137512
		c5.6409531,9.7704163,15.8538513,16.1283264,29.1129837,19.2023926
		c3.0740662,13.2591248,9.4319763,23.4720154,19.2023849,29.1129761c9.7705078,5.6409607,21.793972,6.0405579,34.8137436,2.0732727
		C-26.8943958,523.3343506-16.2819996,529-5,529s21.8943958-5.6656494,31.1862793-15.6113892
		c13.0197716,3.9672852,25.0432358,3.567688,34.8137474-2.0732727c9.7704048-5.6409607,16.128315-15.8538513,19.2023811-29.1129761
		c13.2591324-3.0740662,23.4720306-9.4319763,29.1129837-19.2023926c5.6409454-9.7704163,6.0405502-21.7939758,2.0731888-34.8137512
		C121.3342819,418.8943481,126.9999466,408.2819519,126.9999466,396.999939z"/>
	<g>
		<path class="st0" d="M39.8750305,352.1249695l-89.750061,89.750061L39.8750305,352.1249695z"/>
		<circle class="st0" cx="-34.7749023" cy="368.0758057" r="18.2902966"/>
		<circle class="st0" cx="24.7749004" cy="425.9241943" r="18.2902966"/>
	</g>
</g>
</svg>
