<?xml version="1.0" encoding="utf-8"?>
<!-- Generator: Adobe Illustrator 19.0.0, SVG Export Plug-In . SVG Version: 6.00 Build 0)  -->
<svg version="1.1" id="Layer_1" xmlns="http://www.w3.org/2000/svg" xmlns:xlink="http://www.w3.org/1999/xlink" x="0px" y="0px"
	 width="300px" height="300px" viewBox="-155 247 300 300" style="enable-background:new -155 247 300 300;" xml:space="preserve">
<style type="text/css">
	.st0{fill:none;stroke:#016ECF;stroke-width:8;stroke-linecap:round;stroke-linejoin:round;stroke-miterlimit:10;}
</style>
<g>
	<path class="st0" d="M89.4482727,349.8492126v123.4462585c0,18.8552856-15.2852402,34.1405334-34.1405487,34.1405334H-65.307724
		c-18.8553085,0-34.1405487-15.2852478-34.1405487-34.1405334V349.8492126"/>
	<path class="st0" d="M127,377.7118835L11.5091152,292.0198059c-9.8040714-7.2744446-23.214159-7.2744446-33.0182304,0
		L-137,377.7118835"/>
	<path class="st0" d="M-60.1896362,320.7200623v-13.559906c0-6.9130859-5.6041565-12.5172424-12.5172272-12.5172424h-0.0000305
		c-6.9130707,0-12.5172272,5.6041565-12.5172272,12.5172424v32.1349792"/>
	<path class="st0" d="M22.0258884,429.4877319H22.025835C7.0998783,429.4877319-5,441.587616-5,456.5135803v50.9224243h54.0517235
		v-50.9224243C49.0517235,441.587616,36.9518471,429.4877319,22.0258884,429.4877319z"/>
</g>
</svg>
