<?xml version="1.0" encoding="utf-8"?>
<!-- Generator: Adobe Illustrator 19.0.0, SVG Export Plug-In . SVG Version: 6.00 Build 0)  -->
<svg version="1.1" id="Layer_1" xmlns="http://www.w3.org/2000/svg" xmlns:xlink="http://www.w3.org/1999/xlink" x="0px" y="0px"
	 width="64px" height="48px" viewBox="0 0 64 48" style="enable-background:new 0 0 64 48;" xml:space="preserve">
<style type="text/css">
	.st0{clip-path:url(#SVGID_2_);}
	.st1{fill:#DCE1E5;}
	.st2{fill:#1FB6FF;}
	.st3{fill:#A5E1FF;}
	.st4{fill:#EEEEEE;}
	.st5{opacity:0.5;fill:#016ECF;}
</style>
<g>
	<g id="XMLID_28_">
		<g id="XMLID_29_">
			<g>
				<g>
					<g>
						<defs>
							<rect id="SVGID_1_" width="64" height="48"/>
						</defs>
						<clipPath id="SVGID_2_">
							<use xlink:href="#SVGID_1_"  style="overflow:visible;"/>
						</clipPath>
						<g id="XMLID_30_" class="st0">
							<path id="XMLID_59_" class="st1" d="M6.7234497,46.0671997c0.0618896-0.0438843,0.1099854-0.1044922,0.1387329-0.1746826
								l0.6725159-1.6440125C7.5961914,44.0982056,7.7424927,44,7.9049072,44h7.9761963
								c0.7825012,0,1.5410767,0.2698975,2.1477051,0.7641907l3.0996704,2.5257263
								C21.4202881,47.5275879,21.2521973,48,20.8759155,48H5.2547913c-0.3897705,0-0.5493469-0.5006104-0.2315063-0.7261963
								L6.7234497,46.0671997z"/>
							<ellipse id="XMLID_58_" class="st1" cx="36" cy="47" rx="4" ry="1"/>
							<path id="XMLID_55_" class="st2" d="M28.091095,37.4316101C26.8225098,39.0353088,26,40.9855042,26,42.5003052
								c0,0.7612,0.1629028,1.3118896,0.4082947,1.7221069c0.2449036,0.4094849,0.6091003,0.7409973,1.1100159,1.0062866
								C28.5593872,45.7800903,30.1025085,46.0003052,32,46.0003052s3.4406128-0.2202148,4.4816895-0.7716064
								c0.5009155-0.2652893,0.8651123-0.5968018,1.1100159-1.0062866C37.8370972,43.8121948,38,43.2615051,38,42.5003052
								c0-1.514801-0.8225098-3.4649963-2.091095-5.0686951c-0.6236877-0.7884216-1.3226013-1.4500122-2.0207214-1.9073181
								C33.183197,35.0625916,32.5375977,34.846405,32,34.846405s-1.183197,0.2161865-1.8881836,0.677887
								C29.4136963,35.9815979,28.7147827,36.6431885,28.091095,37.4316101z M29.0159912,33.8512878
								C29.921814,33.2579956,30.9467163,32.846405,32,32.846405s2.078186,0.4115906,2.9840088,1.0048828
								c0.9126892,0.5978088,1.7648926,1.4186096,2.4934998,2.3395081C38.9133911,38.006012,40,40.3826904,40,42.5003052
								c0,1.0549011-0.2288818,1.9747925-0.6918945,2.7489014c-0.463501,0.7746887-1.1243896,1.3411865-1.8903198,1.7468872
								C35.925415,47.7865906,33.9685059,48.0003052,32,48.0003052s-3.925415-0.2137146-5.4177856-1.0042114
								c-0.7659302-0.4057007-1.4268188-0.9721985-1.8903198-1.7468872C24.2288818,44.4750977,24,43.5552063,24,42.5003052
								c0-2.1176147,1.0866089-4.4942932,2.5224915-6.3095093C27.2510986,35.2698975,28.103302,34.4490967,29.0159912,33.8512878z"
								/>
							<path id="XMLID_52_" class="st2" d="M26.8890991,28h10.3251953l-3.6766968,6.5h-3.4313965l-0.0278015-0.0560913
								l-4.4009094-1.4971924l0.644104-1.8934021l2.4995117,0.8502808L26.8890991,28z M31.3479004,32.5h1.0231934l1.4141235-2.5
								h-3.6747131L31.3479004,32.5z"/>
							<path id="XMLID_51_" class="st3" d="M28.091095,37.4334106C26.8225098,39.0369873,26,40.9872131,26,42.5020142
								c0,0.7611694,0.1629028,1.3118896,0.4082947,1.7221985c0.2449036,0.4094849,0.6091003,0.7408752,1.1100159,1.0061951
								C28.5593872,45.7817993,30.1025085,46.0020142,32,46.0020142s3.4406128-0.2202148,4.4816895-0.7716064
								c0.5009155-0.2653198,0.8651123-0.5967102,1.1100159-1.0061951C31.6651001,44.4023132,29.3945007,39.0994873,29,36.4258118
								C28.6859131,36.729187,28.3804016,37.0675964,28.091095,37.4334106z"/>
							<path id="XMLID_50_" class="st3" d="M31.3477173,32.5h1.0231934l1.4141846-2.5h-3.6746826L31.3477173,32.5z"/>
							<path id="XMLID_45_" class="st2" d="M2.8600769,6.1384583c-0.2702637,0.895752-0.2991333,2.3521423,0.0389404,3.6821594
								c0.3608398,1.4195862,0.9269714,1.9580688,1.2380676,2.0632935c0.3110657,0.1052856,1.0671997,0.0141907,2.1384277-0.9208984
								c1.0036316-0.8760071,1.7774963-2.0803223,2.04776-2.9760742C8.8052979,6.3893433,7.973053,4.6803894,6.4644165,4.1699524
								C4.9558105,3.6595154,3.3420715,4.5408325,2.8600769,6.1384583z M1.0390015,5.5223083
								c-0.8033447,2.6626892,0.0018616,7.4393921,2.5162354,8.2901001
								c2.5143738,0.8507996,5.7857666-2.5466003,6.5890503-5.2093201c0.8034058-2.6626892-0.5836487-5.5108643-3.0980225-6.3616333
								C4.5318909,1.3907166,1.8423462,2.8595886,1.0390015,5.5223083z M5.3044739,15.1012878h0.099823
								c0.8648682-0.0001831,1.5625305-0.0002747,2.1018982,0.1062012c0.6679382,0.131897,1.150116,0.4322205,1.5722656,0.9754028
								c0.2941284,0.378418,0.5768738,0.9064941,0.9033508,1.5162964H9.981842
								c0.0553589,0.1034241,0.1120605,0.2093201,0.1702576,0.3171082c0.4248962,0.7875977,1.0040894,1.8318176,1.9030151,3.227417
								l0.0115967,0.0179749l4.5934753,7.8330078v0.2887878c0,0.2740173-0.0817871,0.5117188-0.1477966,0.6673279
								c-0.0731812,0.1723938-0.1687012,0.339386-0.2720032,0.4933777
								c-0.2068787,0.3084106-0.4866943,0.6266174-0.8110962,0.9060059
								c-0.6107788,0.526001-1.6004944,1.0952148-2.6914978,0.8348999c-0.9286804-0.2214966-1.5471802-1.0466919-2.0874023-1.85849
								c-0.234375-0.3522949-0.4911804-0.7651978-0.7739868-1.2199097l-0.0012512-0.0019836
								c-0.0686035-0.110321-0.1387329-0.2230225-0.2104187-0.3379211
								c-0.3131104-0.5018921-0.6661987-1.0615845-1.0774536-1.6818848
								c-0.0673828,1.1002808-0.1044922,2.7610779-0.1044922,5.209198v11.3104858C8.4827881,45.9379883,7.0025024,48,4.863739,48
								H3.6427002c-2.1387939,0-3.6190491-2.0620117-3.6190491-4.2954102V32.394104
								c0-1.5603027,0.0001831-1.9030151,0.0003357-2.0610046l0.0000916-0.0653076V30.267395
								c0.0001526-0.1040955,0.0002747-0.1954956,0.0002747-0.8839111V21.814209
								c0-0.3829041-0.0062256-0.7582092-0.0124817-1.1303101l-0.0001831-0.0111084
								c-0.0061035-0.3649902-0.0122375-0.7294922-0.0114746-1.0788879
								c0.0014954-0.6947021,0.0291443-1.4006958,0.1610718-2.0293884c0.1333618-0.6353149,0.393219-1.2897034,0.930603-1.7737122
								c0.5447389-0.4906921,1.2438658-0.6895142,2.0306091-0.6895142H5.3044739z M14.6217957,29.4562988l-4.1575928-7.0896912
								c-0.9303894-1.4457092-1.5337219-2.5335999-1.9720154-3.3459167
								c-0.0648499-0.1201782-0.1248474-0.231781-0.1806641-0.3356018l-0.0000305-0.0000916
								c-0.3435974-0.6390991-0.528717-0.9833984-0.7091675-1.2156067c-0.1316223-0.1694031-0.2124939-0.2254028-0.4465942-0.271698
								c-0.3421021-0.0675049-0.8525696-0.0718994-1.8512573-0.0718994H3.1224976
								c-0.4891968,0-0.6958313,0.1205139-0.7919922,0.2070923c-0.1035461,0.0933228-0.2197571,0.2742004-0.303009,0.6708069
								c-0.0846252,0.4033203-0.1140747,0.9258118-0.1155396,1.5948181c-0.0007019,0.3289795,0.005127,0.6763,0.0113831,1.0494995
								c0.0061951,0.3697815,0.0127563,0.7624817,0.0127563,1.1661987v7.5692749
								c0,0.690918-0.0001221,0.7816162-0.0002441,0.8867188l-0.0000916,0.0653076
								c-0.0001831,0.1564941-0.0003357,0.4978027-0.0003357,2.0585938v11.3104858
								c0,1.414917,0.8866272,2.2709045,1.7072754,2.2709045H4.863739c0.8206177,0,1.7072754-0.8559875,1.7072754-2.2709045
								V32.394104c0-2.5565186,0.0400085-4.3096008,0.1174927-5.4812927c0.0386353-0.5839233,0.0881348-1.0492249,0.15271-1.4087219
								c0.0562439-0.3128967,0.148468-0.7070007,0.3647156-1.0083923c0.1260681-0.1758118,0.3437805-0.3883057,0.6734619-0.4623108
								c0.328186-0.0735779,0.602478,0.0270996,0.7718201,0.1234131c0.2857666,0.1625977,0.4867554,0.4367981,0.5775146,0.5615845
								c0.074646,0.1027222,0.1634521,0.2357178,0.2385559,0.3483276l0.0004272,0.0005798
								c0.0329285,0.049408,0.0632324,0.0948181,0.0885315,0.131897c0.1038513,0.1524048,0.181488,0.2552185,0.243866,0.3213196
								l0.0559387,0.0592041l0.04599,0.0681763c0.5362549,0.7950134,0.980072,1.4974976,1.3577576,2.1028137
								c0.0771179,0.1236877,0.151001,0.2424011,0.2218933,0.3565063l0.0001221,0.0000916
								c0.2807007,0.4512024,0.5159912,0.8294067,0.7313843,1.1531982c0.5827942,0.8759155,0.8233948,1.0205994,0.9447021,1.0495911
								c0.2424927,0.0578003,0.631012-0.0567017,1.065094-0.430481
								C14.385498,29.7395935,14.5219116,29.589386,14.6217957,29.4562988z"/>
							<path id="XMLID_42_" class="st3" d="M2.8985901,9.8187866C2.5605164,8.4887695,2.589386,7.0323792,2.8596497,6.1366272
								C3.002594,5.6628418,3.2450562,5.2520447,3.5548096,4.921875c0.131012,1.6897278,1.0125732,5.1062317,3.4910278,5.2547302
								c-0.2357178,0.2774963-0.4945374,0.5434875-0.770752,0.7846069c-1.071228,0.9349976-1.8273315,1.0261841-2.1384277,0.9208984
								C3.825592,11.776886,3.2594299,11.2383118,2.8985901,9.8187866z M6.571167,43.7029114
								c0,1.414978-0.8866577,2.2709045-1.7072754,2.2709045H3.6428223c-0.8206177,0-1.7072754-0.8559265-1.7072754-2.2709045
								V32.3925171c0-1.5608215,0.0001831-1.9021301,0.0003357-2.0586243l0.0000916-0.0652771
								C2.1212158,35.057312,3.3076172,44.4484863,6.571167,43.7029114z"/>
							<path id="XMLID_39_" class="st4" d="M47.5596313,8c-2.7614136,0-5,2.2581787-5,5.0438232
								c0,2.7857056,2.2385864,7.0614014,5,7.0614014c2.7613525,0,5-4.2756958,5-7.0614014
								C52.5596313,10.2581787,50.3209839,8,47.5596313,8z M49.4136963,16.5266724
								c-0.786377,1.2316284-1.5123901,1.5610352-1.8540649,1.5610352c-0.3416138,0-1.067749-0.3294067-1.854126-1.5610352
								c-0.7368164-1.1539917-1.145874-2.5456543-1.145874-3.4828491c0-1.6713257,1.3432007-3.0263062,3-3.0263062
								c1.6568604,0,3,1.3549805,3,3.0263062C50.5596313,13.9810181,50.1505127,15.3726807,49.4136963,16.5266724z"/>
							<path id="XMLID_36_" class="st4" d="M48.883728,21.2194214h-2.8312378c-3.3112183,0-6,2.7122803-6,6.0525513v3.8245239
								L40,33.178894v2.1298218c0,1.7438965,1.4400024,3.1964722,3.1688232,3.1964722v12.0089111
								C43.1688232,52.4508667,44.7044067,54,46.6243896,54h1.5844116c1.9199829,0,3.4556274-1.5491333,3.4556274-3.4859009
								V38.505188c1.7287598,0,3.1687622-1.4525757,3.1687622-3.1964722V33.178894l0.0505371-2.0823975v-3.8245239
								C54.883728,23.9317017,52.1950073,21.2194214,48.883728,21.2194214z M52.8173828,35.3087158
								c0,0.6297607-0.5286865,1.1140747-1.1043091,1.1140747h-1.0556641c-0.5756226,0-1.008728,0.4841919-1.008728,1.0175781
								v13.024231c0,0.7755127-0.6243896,1.4033813-1.3912964,1.4033813h-1.5842896
								c-0.7687988,0-1.3912964-0.6298218-1.3912964-1.4033813V37.4873047c0-0.5806274-0.4799805-1.0175781-1.008667-1.0175781
								h-1.0557251c-0.6243286,0-1.1043091-0.5334473-1.1043091-1.1140137v-8.0389404
								c0-2.2280884,1.7755737-4.0192871,3.984314-4.0192871l2.7357178,0.0037842
								c2.2086792,0,3.9842529,1.7912598,3.9842529,4.0193481V35.3087158z"/>
							<path id="XMLID_35_" class="st1" d="M45.7034912,16.52771c-0.7367859-1.1539001-1.145874-2.5457153-1.145874-3.4828186
								c0-0.5505981,0.1456909-1.066803,0.4003906-1.5115051c0.3024902,1.816925,1.6166992,5.3595276,4.4536743,4.9943237
								c-0.786377,1.2315979-1.5123901,1.5609741-1.8540649,1.5609741
								C47.2160034,18.0886841,46.4898987,17.7593079,45.7034912,16.52771z"/>
							<path id="XMLID_34_" class="st1" d="M46.6705933,51.8691101h1.5844116c0.1637878,0,0.3209839-0.028717,0.4671021-0.0812988
								c0.2305908-0.0830078,0.4332886-0.225708,0.5896912-0.4098206
								c-2.3537903-1.0086975-4.0323792-11.7216797-4.0323792-13.8895874v12.9772034
								C45.2794189,51.2391968,45.9019165,51.8691101,46.6705933,51.8691101z"/>
							<path id="XMLID_33_" class="st1" d="M43.2149963,36.4707947h1.055603c-1.5920105,0-2.0840149-4.1954041-2.1600037-7.367981
								v-1.7849121c-0.0136108,0.5210876-0.0155945,1.1312866,0,1.7849121v6.2538757
								C42.1105957,35.9373169,42.5906067,36.4707947,43.2149963,36.4707947z"/>
							<path id="XMLID_32_" class="st4" d="M46,0l17,6.7999878V48h-2V8.1540833L48,2.954071v4.5229492h-2V0z"/>
							<path id="XMLID_31_" class="st4" d="M38,46h24v2H38V46z"/>
						</g>
					</g>
				</g>
			</g>
		</g>
	</g>
	<path class="st5" d="M32,0.5990324C19.0963993,0.5990324,8.5985994,11.0968323,8.5985994,24S19.0963993,47.4009666,32,47.4009666
		S55.4014015,36.9031677,55.4014015,24S44.9035988,0.5990324,32,0.5990324z M52.7438622,24
		c0,4.7629929-1.6176567,9.1528091-4.3268852,12.6582413L19.3414345,7.5834541
		C22.8469734,4.8741717,27.2369537,3.256572,32,3.256572C43.4381485,3.256572,52.7438622,12.5618534,52.7438622,24z M11.2561398,24
		c0-4.7629929,1.6176538-9.1528101,4.3268814-12.6582403l29.0755444,29.0747871
		C41.1530266,43.1258278,36.7630463,44.7434273,32,44.7434273C20.5618534,44.7434273,11.2561398,35.4381485,11.2561398,24z"/>
</g>
</svg>
