<?xml version="1.0" encoding="utf-8"?>
<!-- Generator: Adobe Illustrator 19.0.0, SVG Export Plug-In . SVG Version: 6.00 Build 0)  -->
<svg version="1.1" id="Layer_1" xmlns="http://www.w3.org/2000/svg" xmlns:xlink="http://www.w3.org/1999/xlink" x="0px" y="0px"
	 width="300px" height="300px" viewBox="-155 247 300 300" style="enable-background:new -155 247 300 300;" xml:space="preserve">
<style type="text/css">
	.st0{fill:none;stroke:#016ecf;stroke-width:8;stroke-linecap:round;stroke-linejoin:round;stroke-miterlimit:10;}
	.st1{fill:none;stroke:#016ecf;stroke-width:8;stroke-miterlimit:10;}
	.st2{fill:none;stroke:#016ecf;stroke-width:8;stroke-miterlimit:10;stroke-dasharray:9.8130989,9.8130989;}
</style>
<g>
	<path class="st0" d="M-129.5639496,391.9281006c-2.2832489-13.7402954-4.5664825-27.4805603-6.8497314-41.2208557
		l26.9819107-57.6672058"/>
	<path class="st0" d="M1.1411619,265c0,88,0,176,0,264h-98.1481705c-5.6426392,0-10.4575958-4.0808716-11.3825531-9.6472168
		c-5.9307861-35.6907349-11.8615875-71.3814697-17.7923813-107.0722351"/>
	<rect x="-109.4317703" y="265" class="st0" width="110.5729294" height="28.0400257"/>
	<path class="st0" d="M102.5427704,413.2001648l-86.1302338-63.4087524l22.5716801-30.6598816
		c2.1842384-2.9669189,6.3600769-3.6014099,9.3269958-1.4171753l75.3860626,55.4989319
		c2.9669189,2.1842346,3.6014099,6.3600769,1.4171753,9.3269958L102.5427704,413.2001648z"/>
	<path class="st0" d="M65.3319702,463.744812L23.237175,520.9234619
		c-5.1886616,7.0479736-14.2731752,9.5151978-22.0960121,6.6452637"/>
	<path class="st0" d="M23.4850807,354.9981689L1.1411619,385.3486023L23.4850807,354.9981689
		c0,0-7.0725422-5.2067566-7.0726109-5.2066345l18.1571941-24.6634827c4.6222763-6.278656,13.4593124-7.62146,19.7379875-2.999054
		l63.3932076,46.6697693c6.2786789,4.6222839,7.6213379,13.4593201,2.9990692,19.7380066L76.912674,448.0143738"/>
	<line class="st0" x1="16.4125385" y1="349.7914124" x2="16.4125385" y2="364.6050415"/>
	<path class="st0" d="M-70.1492538,404.1419983h-0.0000534c-14.5364456,0-26.3205643-11.7841187-26.3205643-26.3205566v-45.6311951
		h52.6411819v45.6311951C-43.8286896,392.3578796-55.6128082,404.1419983-70.1492538,404.1419983z"/>
	<line class="st0" x1="-96.4698715" y1="353.3525391" x2="-43.8286896" y2="353.3525391"/>
	<path class="st0" d="M-93.6356354,265v28.0400391V265z"/>
	<path class="st0" d="M-77.8395004,265v28.0400391V265z"/>
	<path class="st0" d="M-62.0433693,265v28.0400391V265z"/>
	<path class="st0" d="M-46.2472382,265v28.0400391V265z"/>
	<path class="st0" d="M-30.4511032,265v28.0400391V265z"/>
	<path class="st0" d="M-14.6549711,265v28.0400391V265z"/>
	<g>
		<g>
			<line class="st1" x1="-18.4339447" y1="293.0400391" x2="-18.4339447" y2="298.0400391"/>
			<line class="st2" x1="-18.4339447" y1="307.8531189" x2="-18.4339447" y2="518.8347168"/>
			<line class="st1" x1="-18.4339447" y1="523.741272" x2="-18.4339447" y2="528.741272"/>
		</g>
	</g>
</g>
</svg>
