<?xml version="1.0" encoding="utf-8"?>
<!-- Generator: Adobe Illustrator 19.0.0, SVG Export Plug-In . SVG Version: 6.00 Build 0)  -->
<svg version="1.1" id="Layer_1" xmlns="http://www.w3.org/2000/svg" xmlns:xlink="http://www.w3.org/1999/xlink" x="0px" y="0px"
	 width="300px" height="300px" viewBox="-155 247 300 300" style="enable-background:new -155 247 300 300;" xml:space="preserve">
<style type="text/css">
	.st0{fill:none;stroke:#016ecf;stroke-width:8;stroke-linecap:round;stroke-linejoin:round;stroke-miterlimit:10;}
</style>
<g>
	<g>
		<path class="st0" d="M14.7948542,502.8893738l-41.7950325-45.217041l-10.1984024,9.4266052
			c-13.9981155,12.9387512-14.8568993,34.7753906-1.918148,48.7734985l2.6239662,2.8388062
			c12.9387493,13.9981079,34.7753944,14.8569336,48.7735062,1.9181519l1.8849564-1.7423096
			C18.7570915,514.6431885,19.0387726,507.4807434,14.7948542,502.8893738z"/>
		<line class="st0" x1="7.8804274" y1="377.8696899" x2="7.8821082" y2="425.4299316"/>
		<path class="st0" d="M7.8804274,361.853241v-46.7051086c0-4.1195374,3.3395548-7.4591064,7.4591045-7.4591064h62.885994
			c4.119545,0,7.4590988,3.3395691,7.4590988,7.4591064v137.6325378l-71.5390091,66.1249695
			c-12.9216137,11.9437256-32.5313377,12.9505005-46.6081657,2.3928833l-0.0000572-0.000061
			c-18.2078362-13.6558838-19.5847015-40.4745178-2.8710899-55.9232483l43.2158089-39.945282"/>
		<line class="st0" x1="85.6846237" y1="347.6239319" x2="7.8804274" y2="347.6239319"/>
		<path class="st0" d="M85.6846237,416.3742371c-12.0741119,2.0645142-27.4985237,7.3538208-35.1151657,20.7589417
			c-4.8733521,8.5770874-4.8472137,17.4794312-4.8197289,26.8527832c0.0249634,8.4946289,1.1275215,16.2514648,2.7580795,23.157959"
			/>
	</g>
	<g>
		<path class="st0" d="M-31.7111397,462.0300903l-43.4863319-47.0467834l-8.7790298,8.1146545
			c-14.7820129,13.6633301-15.6888885,36.7228394-2.0255585,51.5048523l0.0000458,0.0000305
			c10.3461075,11.1932068,26.0797806,14.4306946,39.5276031,9.4107056"/>
		<line class="st0" x1="-40.316864" y1="335.1806641" x2="-40.3151817" y2="382.7409058"/>
		<path class="st0" d="M-46.4744377,484.0135803c-13.4478149,5.0199585-29.1814613,1.7824707-39.5275688-9.4107361
			l-0.0000839-0.000061c-13.6633224-14.7819824-12.7564316-37.8414917,2.0255966-51.5048218l43.6613121-40.3570557"/>
		<path class="st0" d="M-40.316864,319.1642151v-46.7051086c0-4.1195374,3.3395538-7.4591064,7.4591026-7.4591064h62.885994
			c4.1195507,0,7.4591045,3.3395691,7.4591045,7.4591064v35.2301941"/>
		<line class="st0" x1="37.4873352" y1="304.934906" x2="-40.316864" y2="304.934906"/>
	</g>
</g>
</svg>
