<?xml version="1.0" encoding="utf-8"?>
<!-- Generator: Adobe Illustrator 19.0.0, SVG Export Plug-In . SVG Version: 6.00 Build 0)  -->
<svg version="1.1" id="Layer_1" xmlns="http://www.w3.org/2000/svg" xmlns:xlink="http://www.w3.org/1999/xlink" x="0px" y="0px"
	 width="300px" height="300px" viewBox="-155 247 300 300" style="enable-background:new -155 247 300 300;" xml:space="preserve">
<style type="text/css">
	.st0{fill:none;stroke:#016ecf;stroke-width:8;stroke-linecap:round;stroke-linejoin:round;stroke-miterlimit:10;}
</style>
<g>
	<path class="st0" d="M-5,497.5452271h-19.2307682H-5z"/>
	<path class="st0" d="M-5,466.9682922h-19.2307682H-5z"/>
	<path class="st0" d="M-5,436.3913574h-19.2307682H-5z"/>
	<path class="st0" d="M-5,405.8144531h-19.2307682H-5z"/>
	<path class="st0" d="M-5,375.2375183h-19.2307682H-5z"/>
	<path class="st0" d="M-5,344.660614h-19.2307682H-5z"/>
	<path class="st0" d="M91.2017593,318.7392883c23.1688843,25.8677673,27.6874466,54.8831482,28.7982407,64.62323
		c-6.1846313,2.5500793-13.4240036,5.0941162-21.634613,7.2115479c-8.857048,2.2840881-16.98246,3.5917053-24.0384674,4.3269348
		v-39.1827087v161.2980652c0,6.5053101-5.2735672,11.7788696-11.7788467,11.7788696H6.7788453
		C0.2735687,528.7952271-5,523.5216675-5,517.0163574V302.3529053c0,0,35.0961533-25.9615173,35.0961533-25.9615173
		l3.8461552,7.6923218c-5.8493404,12.259613-11.6987228,24.5192261-17.5480633,36.7788391
		C9.2628145,314.692688,2.1314294,308.5227661-5,302.3529053"/>
	<path class="st0" d="M33.9423065,284.0837097c9.6283035,2.4855957,29.6401863,8.9430847,48.5728683,25.9551697"/>
	<path class="st0" d="M74.3269196,374.7086792c6.4328384-0.6702881,13.8406372-1.8623962,21.915451-3.9447937
		c7.485466-1.9304199,14.0854797-4.2497559,19.7238998-6.5746155"/>
	<path class="st0" d="M-84.3269196,471.9682007v45.0481567c0,6.5053101,5.2735672,11.7788696,11.7788467,11.7788696h55.7692261
		C-10.2735691,528.7952271-5,523.5216675-5,517.0163574V302.3529053c0,0-35.0961533-25.9615173-35.0961533-25.9615173
		l-3.8461533,7.6923218c5.8493385,12.259613,11.6987228,24.5192261,17.5480633,36.7788391
		C-19.2628155,314.692688-12.1314297,308.5227661-5,302.3529053"/>
	<path class="st0" d="M-43.9423065,284.0837097c-10.5286064,2.7180176-33.4734344,10.1854553-53.8461456,31.009613
		C-123.9357071,341.8199768-128.8366852,373.1618652-130,383.3625183c6.1846313,2.5500793,13.4240036,5.0941162,21.634613,7.2115479
		c8.857048,2.2840881,16.98246,3.5917053,24.0384674,4.3269348v-39.1827087v99.5192566"/>
	<path class="st0" d="M-84.3269196,374.7086792c-6.4328384-0.6702881-13.8406372-1.8623962-21.915451-3.9447937
		c-7.485466-1.9304199-14.0854797-4.2497559-19.7238998-6.5746155"/>
	<path class="st0" d="M30.0961514,276.3913879c0-4.7755432-15.7130823-11.186615-35.0961533-11.186615
		s-35.0961533,6.4110718-35.0961533,11.186615"/>
	<path class="st0" d="M40.7452011,410.1654053H28.5817165c-7.5939083,0-13.7499866-6.1560669-13.7499866-13.7499695V364.18927
		h39.6634598v32.2261658C54.4951897,404.0093384,48.3391113,410.1654053,40.7452011,410.1654053z"/>
</g>
</svg>
