<?xml version="1.0" encoding="utf-8"?>
<!-- Generator: Adobe Illustrator 19.0.0, SVG Export Plug-In . SVG Version: 6.00 Build 0)  -->
<svg version="1.1" id="Layer_1" xmlns="http://www.w3.org/2000/svg" xmlns:xlink="http://www.w3.org/1999/xlink" x="0px" y="0px"
	 width="64px" height="48px" viewBox="-273 373 64 48" style="enable-background:new -273 373 64 48;" xml:space="preserve">
<style type="text/css">
	.st0{clip-path:url(#SVGID_2_);}
	.st1{fill:#DCE1E5;}
	.st2{fill:#1FB6FF;}
	.st3{fill:#A5E1FF;}
	.st4{fill:#EEEEEE;}
</style>
<g>
	<defs>
		<rect id="SVGID_1_" x="-273" y="373" width="64" height="48"/>
	</defs>
	<clipPath id="SVGID_2_">
		<use xlink:href="#SVGID_1_"  style="overflow:visible;"/>
	</clipPath>
	<g class="st0">
		<path class="st1" d="M-266.2765503,419.0671997c0.0618896-0.0438843,0.1099854-0.1044922,0.1387329-0.1746826l0.6725159-1.6440125
			C-265.4038086,417.0982056-265.2575073,417-265.0950928,417h7.9761963c0.7825012,0,1.5410919,0.2698975,2.1476898,0.7641907
			l3.0997009,2.5257263c0.2918091,0.2376709,0.123703,0.710083-0.252594,0.710083h-15.621109
			c-0.3897705,0-0.5493469-0.5006104-0.2315063-0.7261963L-266.2765503,419.0671997z"/>
		<ellipse class="st1" cx="-237" cy="420" rx="4" ry="1"/>
		<path class="st2" d="M-244.908905,410.4316101C-246.1775055,412.0353088-247,413.9855042-247,415.5003052
			c0,0.7612,0.1629028,1.3118896,0.4082947,1.7221069c0.2449036,0.4094849,0.6091003,0.7409973,1.1100006,1.0062866
			c1.0411072,0.5513916,2.5842133,0.7716064,4.4817047,0.7716064s3.4405975-0.2202148,4.4817047-0.7716064
			c0.5009003-0.2652893,0.865097-0.5968018,1.1100006-1.0062866C-235.1629028,416.8121948-235,416.2615051-235,415.5003052
			c0-1.514801-0.8224945-3.4649963-2.091095-5.0686951c-0.623703-0.7884216-1.3226013-1.4500122-2.0207062-1.9073181
			c-0.7050018-0.4617004-1.3506012-0.677887-1.8881989-0.677887s-1.183197,0.2161865-1.8881989,0.677887
			C-243.5863037,408.9815979-244.285202,409.6431885-244.908905,410.4316101z M-243.9839935,406.8512878
			c0.9057922-0.5932922,1.9306946-1.0048828,2.9839935-1.0048828s2.0782013,0.4115906,2.9840088,1.0048828
			c0.9126892,0.5978088,1.7648926,1.4186096,2.4934998,2.3395081C-234.0866089,411.006012-233,413.3826904-233,415.5003052
			c0,1.0549011-0.2288971,1.9747925-0.6918945,2.7489014c-0.463501,0.7746887-1.1244049,1.3411865-1.8903046,1.7468872
			c-1.4924011,0.7904968-3.449295,1.0042114-5.4178009,1.0042114s-3.9253998-0.2137146-5.4178009-1.0042114
			c-0.7658997-0.4057007-1.4268036-0.9721985-1.8903046-1.7468872C-248.7711029,417.4750977-249,416.5552063-249,415.5003052
			c0-2.1176147,1.0865936-4.4942932,2.5224915-6.3095093C-245.7489014,408.2698975-244.896698,407.4490967-243.9839935,406.8512878z
			"/>
		<path class="st2" d="M-246.1109009,401h10.3251953l-3.6766968,6.5h-3.4313965l-0.0278015-0.0560913l-4.4008942-1.4971924
			l0.6440887-1.8934021l2.4995117,0.8502808L-246.1109009,401z M-241.6520996,405.5h1.0231934l1.4141083-2.5h-3.6746979
			L-241.6520996,405.5z"/>
		<path class="st3" d="M-244.908905,410.4334106C-246.1775055,412.0369873-247,413.9872131-247,415.5020142
			c0,0.7611694,0.1629028,1.3118896,0.4082947,1.7221985c0.2449036,0.4094849,0.6091003,0.7408752,1.1100006,1.0061951
			c1.0411072,0.5513916,2.5842133,0.7716064,4.4817047,0.7716064s3.4405975-0.2202148,4.4817047-0.7716064
			c0.5009003-0.2653198,0.865097-0.5967102,1.1100006-1.0061951c-5.9266052,0.1781006-8.1972046-5.1247253-8.5917053-7.7984009
			C-244.3141022,409.729187-244.6195984,410.0675964-244.908905,410.4334106z"/>
		<path class="st3" d="M-241.652298,405.5h1.0231934l1.4141998-2.5h-3.6746979L-241.652298,405.5z"/>
		<path class="st2" d="M-270.1399231,379.1384583c-0.2702637,0.895752-0.2991333,2.3521423,0.0389404,3.6821594
			c0.3608398,1.4195862,0.9269714,1.9580688,1.2380676,2.0632935c0.3110657,0.1052856,1.0671997,0.0141907,2.1384277-0.9208984
			c1.0036316-0.8760071,1.7774963-2.0803223,2.04776-2.9760742c0.4820251-1.5975952-0.3502197-3.3065491-1.8588562-3.8169861
			C-268.0441895,376.6595154-269.6579285,377.5408325-270.1399231,379.1384583z M-271.9609985,378.5223083
			c-0.8033447,2.6626892,0.0018616,7.4393921,2.5162354,8.2901001c2.5143738,0.8507996,5.7857666-2.5466003,6.5890503-5.2093201
			c0.8034058-2.6626892-0.5836487-5.5108643-3.0980225-6.3616333
			C-268.4681091,374.3907166-271.1576538,375.8595886-271.9609985,378.5223083z M-267.6955261,388.1012878h0.099823
			c0.8648682-0.0001831,1.5625305-0.0002747,2.1018982,0.1062012c0.6679382,0.131897,1.150116,0.4322205,1.5722656,0.9754028
			c0.2941284,0.378418,0.5768738,0.9064941,0.9033508,1.5162964h0.0000305
			c0.0553589,0.1034241,0.1120605,0.2093201,0.1702576,0.3171082c0.4248962,0.7875977,1.0040894,1.8318176,1.9030151,3.227417
			l0.0115967,0.0179749l4.5934753,7.8330078v0.2887878c0,0.2740173-0.0817871,0.5117188-0.1477966,0.6673279
			c-0.0731812,0.1723938-0.1687012,0.339386-0.2720032,0.4933777c-0.2068787,0.3084106-0.4866943,0.6266174-0.8110962,0.9060059
			c-0.6107788,0.526001-1.6004944,1.0952148-2.6914978,0.8348999c-0.9286804-0.2214966-1.5471802-1.0466919-2.0874023-1.85849
			c-0.234375-0.3522949-0.4911804-0.7651978-0.7739868-1.2199097l-0.0012512-0.0019836
			c-0.0686035-0.110321-0.1387329-0.2230225-0.2104187-0.3379211c-0.3131104-0.5018921-0.6661987-1.0615845-1.0774536-1.6818848
			c-0.0673828,1.1002808-0.1044922,2.7610779-0.1044922,5.209198v11.3104858c0,2.2333984-1.4802856,4.2954102-3.6190491,4.2954102
			h-1.2210388c-2.1387939,0-3.6190491-2.0620117-3.6190491-4.2954102V405.394104
			c0-1.5603027,0.0001831-1.9030151,0.0003357-2.0610046l0.0000916-0.0653076v-0.0003967
			c0.0001526-0.1040955,0.0002747-0.1954956,0.0002747-0.8839111v-7.5692749c0-0.3829041-0.0062256-0.7582092-0.0124817-1.1303101
			l-0.0001831-0.0111084c-0.0061035-0.3649902-0.0122375-0.7294922-0.0114746-1.0788879
			c0.0014954-0.6947021,0.0291443-1.4006958,0.1610718-2.0293884c0.1333618-0.6353149,0.393219-1.2897034,0.930603-1.7737122
			c0.5447388-0.4906921,1.243866-0.6895142,2.0306091-0.6895142H-267.6955261z M-258.3782043,402.4562988l-4.1575928-7.0896912
			c-0.9303894-1.4457092-1.5337219-2.5335999-1.9720154-3.3459167c-0.0648499-0.1201782-0.1248474-0.231781-0.1806641-0.3356018
			l-0.0000305-0.0000916c-0.3435974-0.6390991-0.528717-0.9833984-0.7091675-1.2156067
			c-0.1316223-0.1694031-0.2124939-0.2254028-0.4465942-0.271698c-0.3421021-0.0675049-0.8525696-0.0718994-1.8512573-0.0718994
			h-2.1819763c-0.4891968,0-0.6958313,0.1205139-0.7919922,0.2070923c-0.1035461,0.0933228-0.2197571,0.2742004-0.303009,0.6708069
			c-0.0846252,0.4033203-0.1140747,0.9258118-0.1155396,1.5948181c-0.0007019,0.3289795,0.005127,0.6763,0.0113831,1.0494995
			c0.0061951,0.3697815,0.0127563,0.7624817,0.0127563,1.1661987v7.5692749c0,0.690918-0.0001221,0.7816162-0.0002441,0.8867188
			l-0.0000916,0.0653076c-0.0001831,0.1564941-0.0003357,0.4978027-0.0003357,2.0585938v11.3104858
			c0,1.414917,0.8866272,2.2709045,1.7072754,2.2709045h1.2210388c0.8206177,0,1.7072754-0.8559875,1.7072754-2.2709045V405.394104
			c0-2.5565186,0.0400085-4.3096008,0.1174927-5.4812927c0.0386353-0.5839233,0.0881348-1.0492249,0.15271-1.4087219
			c0.0562439-0.3128967,0.148468-0.7070007,0.3647156-1.0083923c0.1260681-0.1758118,0.3437805-0.3883057,0.6734619-0.4623108
			c0.328186-0.0735779,0.602478,0.0270996,0.7718201,0.1234131c0.2857666,0.1625977,0.4867554,0.4367981,0.5775146,0.5615845
			c0.074646,0.1027222,0.1634521,0.2357178,0.2385559,0.3483276l0.0004272,0.0005798
			c0.0329285,0.049408,0.0632324,0.0948181,0.0885315,0.131897c0.1038513,0.1524048,0.181488,0.2552185,0.243866,0.3213196
			l0.0559387,0.0592041l0.04599,0.0681763c0.5362549,0.7950134,0.980072,1.4974976,1.3577576,2.1028137
			c0.0771179,0.1236877,0.151001,0.2424011,0.2218933,0.3565063l0.0001221,0.0000916
			c0.2807007,0.4512024,0.5159912,0.8294067,0.7313843,1.1531982c0.5827942,0.8759155,0.8233948,1.0205994,0.9447021,1.0495911
			c0.2424927,0.0578003,0.631012-0.0567017,1.065094-0.430481
			C-258.614502,402.7395935-258.4780884,402.589386-258.3782043,402.4562988z"/>
		<path class="st3" d="M-270.1014099,382.8187866c-0.3380737-1.3300171-0.3092041-2.7864075-0.0389404-3.6821594
			c0.1429443-0.4737854,0.3854065-0.8845825,0.6951599-1.2147522c0.131012,1.6897278,1.0125732,5.1062317,3.4910278,5.2547302
			c-0.2357178,0.2774963-0.4945374,0.5434875-0.770752,0.7846069c-1.071228,0.9349976-1.8273315,1.0261841-2.1384277,0.9208984
			C-269.174408,384.776886-269.7405701,384.2383118-270.1014099,382.8187866z M-266.428833,416.7029114
			c0,1.414978-0.8866577,2.2709045-1.7072754,2.2709045h-1.2210693c-0.8206177,0-1.7072754-0.8559265-1.7072754-2.2709045
			v-11.3103943c0-1.5608215,0.0001831-1.9021301,0.0003357-2.0586243l0.0000916-0.0652771
			C-270.8787842,408.057312-269.6923828,417.4484863-266.428833,416.7029114z"/>
		<path class="st4" d="M-225.4403687,381c-2.7614136,0-5,2.2581787-5,5.0438232c0,2.7857056,2.2385864,7.0614014,5,7.0614014
			c2.7613525,0,5-4.2756958,5-7.0614014C-220.4403687,383.2581787-222.6790161,381-225.4403687,381z M-223.5863037,389.5266724
			c-0.786377,1.2316284-1.5123901,1.5610352-1.8540649,1.5610352c-0.3416138,0-1.067749-0.3294067-1.854126-1.5610352
			c-0.7368164-1.1539917-1.145874-2.5456543-1.145874-3.4828491c0-1.6713257,1.3432007-3.0263062,3-3.0263062
			c1.6568604,0,3,1.3549805,3,3.0263062C-222.4403687,386.9810181-222.8494873,388.3726807-223.5863037,389.5266724z"/>
		<path class="st4" d="M-224.116272,394.2194214h-2.8312378c-3.3112183,0-6,2.7122803-6,6.0525513v3.8245239L-233,406.178894
			v2.1298218c0,1.7438965,1.4400024,3.1964722,3.1688232,3.1964722v12.0089111c0,1.9367676,1.5355835,3.4859009,3.4555664,3.4859009
			h1.5844116c1.9199829,0,3.4556274-1.5491333,3.4556274-3.4859009V411.505188c1.7287598,0,3.1687622-1.4525757,3.1687622-3.1964722
			v-2.1298218l0.0505371-2.0823975v-3.8245239C-218.116272,396.9317017-220.8049927,394.2194214-224.116272,394.2194214z
			 M-220.1826172,408.3087158c0,0.6297607-0.5286865,1.1140747-1.1043091,1.1140747h-1.0556641
			c-0.5756226,0-1.008728,0.4841919-1.008728,1.0175781v13.024231c0,0.7755127-0.6243896,1.4033813-1.3912964,1.4033813h-1.5842896
			c-0.7687988,0-1.3912964-0.6298218-1.3912964-1.4033813v-12.9772949c0-0.5806274-0.4799805-1.0175781-1.008667-1.0175781
			h-1.0557251c-0.6243286,0-1.1043091-0.5334473-1.1043091-1.1140137v-8.0389404
			c0-2.2280884,1.7755737-4.0192871,3.984314-4.0192871l2.7357178,0.0037842c2.2086792,0,3.9842529,1.7912598,3.9842529,4.0193481
			V408.3087158z"/>
		<path class="st1" d="M-227.2965088,389.52771c-0.7367859-1.1539001-1.1458893-2.5457153-1.1458893-3.4828186
			c0-0.5505981,0.1457062-1.066803,0.4004059-1.5115051c0.3024902,1.816925,1.6166992,5.3595276,4.4536896,4.9943237
			c-0.7863922,1.2315979-1.5124054,1.5609741-1.8540955,1.5609741
			C-225.7839966,391.0886841-226.5101013,390.7593079-227.2965088,389.52771z"/>
		<path class="st1" d="M-226.3294067,424.8691101h1.5844116c0.1637878,0,0.3209991-0.028717,0.4671021-0.0812988
			c0.2305908-0.0830078,0.4332886-0.225708,0.5896912-0.4098206c-2.3537903-1.0086975-4.0323944-11.7216797-4.0323944-13.8895874
			v12.9772034C-227.7205963,424.2391968-227.0980988,424.8691101-226.3294067,424.8691101z"/>
		<path class="st1" d="M-229.7850037,409.4707947h1.055603c-1.5919952,0-2.0839996-4.1954041-2.1600037-7.367981v-1.7849121
			c-0.0135956,0.5210876-0.0155945,1.1312866,0,1.7849121v6.2538757
			C-230.8894043,408.9373169-230.4093933,409.4707947-229.7850037,409.4707947z"/>
		<path class="st4" d="M-227,373l17,6.7999878V421h-2v-39.8459167l-13-5.2000122v4.5229492h-2V373z"/>
		<path class="st4" d="M-235,419h24v2h-24V419z"/>
	</g>
</g>
</svg>
