<?xml version="1.0" encoding="utf-8"?>
<!-- Generator: Adobe Illustrator 19.0.0, SVG Export Plug-In . SVG Version: 6.00 Build 0)  -->
<svg version="1.1" id="Layer_1" xmlns="http://www.w3.org/2000/svg" xmlns:xlink="http://www.w3.org/1999/xlink" x="0px" y="0px"
	 width="300px" height="300px" viewBox="-155 247 300 300" style="enable-background:new -155 247 300 300;" xml:space="preserve">
<style type="text/css">
	.st0{fill:none;stroke:#016ECF;stroke-width:8;stroke-linecap:round;stroke-linejoin:round;stroke-miterlimit:10;}
</style>
<g>
	<path class="st0" d="M32.6073418,265c14.0386314,0,23.0772438,0,37.1158791,0
		c0.3508987,34.3429871,0.7018204,68.6860352,1.0527267,103.0290527
		c6.5582275,4.3010559,25.4958878,17.9628601,31.6569748,42.5930481
		c2.8911514,11.5579529,1.8265228,20.9646301,1.1511612,26.4767151
		c-3.4773026,28.3807678-20.4696579,48.1095886-29.3546524,56.9825745"/>
	<path class="st0" d="M-80.0349426,295.5081482c-0.2470016,24.1736145-0.4940033,48.3472595-0.7410049,72.5209045
		c-6.5582275,4.3010559-25.4958878,17.9628601-31.6569748,42.5930481
		c-2.8911514,11.5579529-1.8265228,20.9646301-1.1511612,26.4767151
		c3.4773026,28.3807678,20.4696579,48.1095886,29.3546524,56.9825745"/>
	<path class="st0" d="M-42.6073418,265c-14.0386314,0-23.0772438,0-37.1158791,0
		c-0.0346375,3.3901978-0.0692749,6.780426-0.10392,10.1706238"/>
	<path class="st0" d="M-42.6073418,265v54.4111023c0,20.769928,16.8373642,37.6072998,37.6073036,37.6072998h0.0000753
		c20.7699394,0,37.6073036-16.8373718,37.6073036-37.6072998V265l-0.0000381,0.000061
		c-18.3035107,26.0526123-56.9110947,26.0526123-75.2146072,0L-42.6073418,265z"/>
	<polyline class="st0" points="-71.7151413,529 -84.2294388,529 -84.2294388,494.0813904 74.2294312,494.0813904 74.2294312,529 
		-48.2620621,529 	"/>
	<path class="st0" d="M32.6073418,310.7816162c-4.4358845,4.0718079-9.0944958,9.2618713-13.2383728,15.805603
		c-6.1839857,9.7654724-9.3123045,19.5250549-10.8581953,27.8885498"/>
	<path class="st0" d="M-18.5106354,354.475769c-1.5458927-8.3636169-4.6742096-18.1230774-10.8581963-27.8885498
		c-4.1438789-6.5438843-8.8026314-11.7337952-13.2385139-15.805603"/>
	<path class="st0" d="M-32.9967079,344.4583435"/>
	<path class="st0" d="M-41.6838303,327.6105042"/>
</g>
</svg>
