<?xml version="1.0" encoding="utf-8"?>
<!-- Generator: Adobe Illustrator 19.0.0, SVG Export Plug-In . SVG Version: 6.00 Build 0)  -->
<svg version="1.1" id="Layer_1" xmlns="http://www.w3.org/2000/svg" xmlns:xlink="http://www.w3.org/1999/xlink" x="0px" y="0px"
	 width="140px" height="80px" viewBox="0 0 140 80" style="enable-background:new 0 0 140 80;" xml:space="preserve">
<style type="text/css">
	.st0{fill:none;stroke:#8C939C;stroke-width:3;stroke-linecap:round;stroke-linejoin:round;stroke-miterlimit:10;}
	.st1{fill:none;stroke:#2E6EB6;stroke-width:3;stroke-linecap:round;stroke-linejoin:round;stroke-miterlimit:10;}
</style>
<g id="XMLID_33_">
	<g id="XMLID_28_">
		<path id="XMLID_30_" class="st0" d="M133.9166718,68.2949829V18.2011223c0-1.0683632-0.6299286-2.0362625-1.606781-2.4688702
			l-17.9330597-7.9417825c-1.7852097-0.7905908-3.7934952,0.5164371-3.7934952,2.4688697V60.353199
			c0,1.0683632,0.629921,2.0362625,1.606781,2.4688683l17.9330521,7.9417801
			C131.908371,71.5544434,133.9166718,70.2474136,133.9166718,68.2949829z"/>
		<path id="XMLID_29_" class="st0" d="M116.9166641,37.0271606v4.5V37.0271606z"/>
	</g>
	<g id="XMLID_17_">
		<g id="XMLID_24_">
			<path id="XMLID_27_" class="st1" d="M23.25,33.2563286H6.0833335H23.25z"/>
			<line id="XMLID_26_" class="st1" x1="23.250021" y1="38.7563286" x2="11.583333" y2="38.7563286"/>
			<line id="XMLID_25_" class="st1" x1="17.083395" y1="44.2563286" x2="23.250021" y2="44.2563286"/>
		</g>
		<path id="XMLID_23_" class="st0" d="M77.0833359,43.4229927H57.6562614C54.5323944,43.4229927,52,40.8905983,52,37.7667351
			V24.7563267"/>
		<circle id="XMLID_22_" class="st0" cx="38.4270821" cy="64.7667465" r="7.6770835"/>
		<circle id="XMLID_21_" class="st0" cx="68.4270859" cy="64.7667465" r="7.6770835"/>
		<path id="XMLID_20_" class="st0" d="M76.1036148,64.7563248h0.0000153c5.5116501,0,9.9797211-4.4680748,9.9797211-9.9797249
			v-0.3338013c0-3.5249443-1.8595352-6.7884293-4.8920135-8.5854645l-4.1079865-2.4343796l-9.4433975-12.4430218
			c-2.9756012-3.9207821-7.6142044-6.2236061-12.536274-6.2236061H20.583353"/>
		<path id="XMLID_19_" class="st0" d="M46.1036186,64.7563248h14.6469727"/>
		<path id="XMLID_18_" class="st0" d="M17.916666,53.9229546v0.0000076c0,5.9831009,4.8502617,10.8333626,10.8333645,10.8333626
			h2.0005589"/>
	</g>
</g>
</svg>
