<?xml version="1.0" encoding="utf-8"?>
<!-- Generator: Adobe Illustrator 19.0.0, SVG Export Plug-In . SVG Version: 6.00 Build 0)  -->
<svg version="1.1" id="Layer_1" xmlns="http://www.w3.org/2000/svg" xmlns:xlink="http://www.w3.org/1999/xlink" x="0px" y="0px"
	 width="300px" height="300px" viewBox="-155 247 300 300" style="enable-background:new -155 247 300 300;" xml:space="preserve">
<style type="text/css">
	.st0{fill:none;stroke:#016ECF;stroke-width:8;stroke-linecap:round;stroke-linejoin:round;stroke-miterlimit:10;}
</style>
<g>
	<path class="st0" d="M95.0610657,512.8778687h-200.1221313c-17.639389,0-31.9389343-14.2995605-31.9389343-31.9389343V345.3053589
		c0-17.6393738,14.2995453-31.9389343,31.9389343-31.9389343H95.0610657c17.639389,0,31.9389343,14.2995605,31.9389343,31.9389343
		v135.6335754C127,498.5783081,112.7004547,512.8778687,95.0610657,512.8778687z"/>
	<path class="st0" d="M127,343.5954285l-0.0000458,0.000061c-30.8568115,32.9460449-73.980629,51.6411438-119.1202545,51.6411438
		h-25.7593918c-45.1396294,0-88.263443-18.6950989-119.1202545-51.6411438L-137,343.5954285"/>
	<path class="st0" d="M-57.9007645,313.366394v-0.0000305c0-17.8079834,14.4362335-32.2442322,32.2442322-32.2442322h41.3130684
		c17.8079967,0,32.2442322,14.4362488,32.2442322,32.2442322v0.0000305"/>
	<path class="st0" d="M13,395.2366333c0,9.9411316-8.0588741,18-18,18s-18-8.0588684-18-18"/>
</g>
</svg>
