<?xml version="1.0" encoding="utf-8"?>
<!-- Generator: Adobe Illustrator 19.0.0, SVG Export Plug-In . SVG Version: 6.00 Build 0)  -->
<svg version="1.1" id="Layer_1" xmlns="http://www.w3.org/2000/svg" xmlns:xlink="http://www.w3.org/1999/xlink" x="0px" y="0px"
	 width="140px" height="80px" viewBox="0 0 140 80" style="enable-background:new 0 0 140 80;" xml:space="preserve">
<style type="text/css">
	.st0{fill:none;stroke:#8C939C;stroke-width:3;stroke-linecap:round;stroke-linejoin:round;stroke-miterlimit:10;}
	.st1{fill:none;stroke:#2E6EB6;stroke-width:3;stroke-linecap:round;stroke-linejoin:round;stroke-miterlimit:10;}
</style>
<g id="XMLID_33_">
	<g id="XMLID_28_">
		<path id="XMLID_30_" class="st0" d="M133.9166718,68.2949829V18.2011223c0-1.0683632-0.6299286-2.0362625-1.606781-2.4688702
			l-17.9330597-7.9417825c-1.7852097-0.7905908-3.7934952,0.5164371-3.7934952,2.4688697V60.353199
			c0,1.0683632,0.629921,2.0362625,1.606781,2.4688683l17.9330521,7.9417801
			C131.908371,71.5544434,133.9166718,70.2474136,133.9166718,68.2949829z"/>
		<path id="XMLID_29_" class="st0" d="M116.9166641,37.0271606v4.5V37.0271606z"/>
	</g>
	<g id="XMLID_17_">
		<g id="XMLID_24_">
			<path id="XMLID_27_" class="st1" d="M68.916687,33.2563286h17.1666641H68.916687z"/>
			<line id="XMLID_26_" class="st1" x1="68.9166641" y1="38.7563286" x2="80.5833511" y2="38.7563286"/>
			<line id="XMLID_25_" class="st1" x1="75.0832901" y1="44.2563286" x2="68.9166641" y2="44.2563286"/>
		</g>
		<path id="XMLID_23_" class="st0" d="M15.083354,43.4229927h19.4270706c3.123867,0,5.6562614-2.5323944,5.6562614-5.6562576
			V24.7563267"/>
		<circle id="XMLID_22_" class="st0" cx="53.7396049" cy="64.7667465" r="7.6770835"/>
		<circle id="XMLID_21_" class="st0" cx="23.739603" cy="64.7667465" r="7.6770835"/>
		<path id="XMLID_20_" class="st0" d="M16.0630703,64.7563248h-0.0000095c-5.511652,0-9.9797268-4.4680748-9.9797268-9.9797249
			v-0.3338013c0-3.5249443,1.8595395-6.7884293,4.892014-8.5854645l4.1079855-2.4343796l9.4433985-12.4430218
			c2.975605-3.9207821,7.6142063-6.2236061,12.5362759-6.2236061h34.5203285"/>
		<path id="XMLID_19_" class="st0" d="M46.0630684,64.7563248H31.4160976"/>
		<path id="XMLID_18_" class="st0" d="M74.2500229,53.9229546v0.0000076c0,5.9831009-4.8502655,10.8333626-10.8333664,10.8333626
			h-2.0005608"/>
	</g>
	<g id="XMLID_16_">
		<path id="XMLID_31_" class="st1" d="M88.4419327,44.6368675c1.7085571,2.7083435,3.417099,5.4166565,5.1256561,8.125
			c-1.4679108,0.5830078-4.3692474,1.9718933-6.625,5c-0.5356445,0.7190552-4.8890991,6.7168236-2.375,10.8749962
			c1.6997375,2.8112793,5.720459,3.4285278,7,3.625c1.5804443,0.2426147,4.518631,0.2426147,6.0990753,0
			c1.279541-0.1964722,5.3002625-0.8137207,7-3.625c2.5140991-4.1581726-1.8393555-10.155941-2.375-10.8749962
			c-2.2557526-3.0281067-5.1570892-4.4169922-6.625-5c1.7085571-2.7083435,3.417099-5.4166565,5.1256561-8.125H88.4419327z"/>
		<path id="XMLID_32_" class="st1" d="M95.6666641,52.7618675c-0.6996918,0-1.3993835,0-2.0990753,0
			c-0.7546692-0.5333557-1.9174347-1.2245483-3.4634247-1.6875c-1.3098755-0.3922424-2.4663544-0.4923401-3.3125-0.5"/>
	</g>
</g>
</svg>
