<?xml version="1.0" encoding="utf-8"?>
<!-- Generator: Adobe Illustrator 19.0.0, SVG Export Plug-In . SVG Version: 6.00 Build 0)  -->
<svg version="1.1" id="Layer_1" xmlns="http://www.w3.org/2000/svg" xmlns:xlink="http://www.w3.org/1999/xlink" x="0px" y="0px"
	 width="300px" height="300px" viewBox="-155 247 300 300" style="enable-background:new -155 247 300 300;" xml:space="preserve">
<style type="text/css">
	.st0{fill:none;stroke:#016ecf;stroke-width:8;stroke-linecap:round;stroke-linejoin:round;stroke-miterlimit:10;}
</style>
<g>
	<polyline class="st0" points="111.8639297,348.3684082 -5,265 -121.8639297,348.3684082 	"/>
	<path class="st0" d="M-72.4150162,281.3467407v29.8035278V281.3467407z"/>
	<path class="st0" d="M-121.8639297,390.6532593V529V390.6532593z"/>
	<path class="st0" d="M111.8639297,417.4334412V529V417.4334412z"/>
	<line class="st0" x1="-121.8639297" y1="494.671814" x2="111.8639297" y2="494.671814"/>
	<line class="st0" x1="-40.1301842" y1="443.5882263" x2="-121.8639297" y2="443.5882263"/>
	<line class="st0" x1="111.8639297" y1="443.5882263" x2="76.7490768" y2="443.5882263"/>
	<path class="st0" d="M-40.1301842,494.671814v-67.4303284H59.9952812c9.2528648,0,16.7537956,7.5009155,16.7537956,16.7537842
		v50.6765442"/>
	<path class="st0" d="M-61.5852699,400.678009h-0.000042c-11.8493195,0-21.4550858,9.6057739-21.4550858,21.4551086v0.0000305
		c0,11.8493042,9.6057663,21.4550781,21.4550858,21.4550781h21.4551277v-21.4551086
		C-40.1301842,410.283783-49.7359543,400.678009-61.5852699,400.678009z"/>
</g>
</svg>
