<?xml version="1.0" encoding="utf-8"?>
<!-- Generator: Adobe Illustrator 19.0.0, SVG Export Plug-In . SVG Version: 6.00 Build 0)  -->
<svg version="1.1" id="Layer_1" xmlns="http://www.w3.org/2000/svg" xmlns:xlink="http://www.w3.org/1999/xlink" x="0px" y="0px"
	 width="300px" height="300px" viewBox="-155 247 300 300" style="enable-background:new -155 247 300 300;" xml:space="preserve">
<style type="text/css">
	.st0{fill:none;stroke:#016ECF;stroke-width:8;stroke-linecap:round;stroke-linejoin:round;stroke-miterlimit:10;}
	.st1{fill:#016ECF;stroke:#016ECF;stroke-width:8;stroke-linecap:round;stroke-linejoin:round;stroke-miterlimit:10;}
</style>
<g>
	<path id="XMLID_21_" class="st0" d="M127,386.8549805c-20.6723633,3.4915161-54.5831757,7.9356384-97.4746246,7.9356384
		c-42.8916512,0-76.8024597-4.4441223-97.4746323-7.9356384c6.5064545,17.4259338,11.4010353,38.2188416,11.4010353,61.7339783
		c0,23.5151672-4.8945808,44.3082581-11.4010353,61.7341919c20.6721687-3.491333,54.5829811-7.9356079,97.4744263-7.9356079
		c42.8916512,0,76.8026581,4.4442749,97.474823,7.9356079c-6.5064545-17.4261169-11.4012299-38.2188416-11.4012299-61.7339783
		C115.5987701,425.0740051,120.4935455,404.2810974,127,386.8549805z"/>
	<path class="st0" d="M29.5253906,394.7906189c19.9055176,0,37.8727417-0.9578857,53.4841919-2.3328247
		c-10.0834351-12.8475952-19.5592041-28.3793945-26.4516602-46.9393311
		c-8.1862793-22.0442505-10.8363037-43.2404785-10.8034058-61.8416138
		c-18.1637573,10.4697876-48.406189,26.4412231-88.614624,41.3729858
		C-83.0687256,339.9816589-116.4054565,347.6208801-137,351.544342
		c12.1658936,14.0708008,23.9929199,31.8590698,32.1792603,53.9033203
		c8.1862793,22.0441895,10.8366089,43.2405396,10.8035889,61.8414917
		c9.3670044-5.3991089,21.9542847-12.2630615,37.4561157-19.6915283
		c-0.1359253-23.1060791-4.973877-43.5633545-11.3882446-60.7426147
		C-47.2770996,390.3465271-13.366272,394.7906189,29.5253906,394.7906189z"/>
	<path id="XMLID_19_" class="st1" d="M115.5987701,448.5891724c0-23.5151672,4.8947754-44.308075,11.4012299-61.7341919
		c-15.0328217,2.5389404-37.094101,5.573822-64.4908905,7.0450134c-5.2350883,15.8963318-8.9336166,34.2618713-8.9336166,54.6891785
		s3.6985283,38.7926331,8.9336166,54.6889648c27.3967896,1.4712219,49.4582748,4.506073,64.4908905,7.0450134
		C120.4935455,492.8970337,115.5987701,472.1043091,115.5987701,448.5891724z"/>
</g>
</svg>
