<?xml version="1.0" encoding="utf-8"?>
<!-- Generator: Adobe Illustrator 19.0.0, SVG Export Plug-In . SVG Version: 6.00 Build 0)  -->
<svg version="1.1" id="Layer_1" xmlns="http://www.w3.org/2000/svg" xmlns:xlink="http://www.w3.org/1999/xlink" x="0px" y="0px"
	 width="300px" height="300px" viewBox="-155 247 300 300" style="enable-background:new -155 247 300 300;" xml:space="preserve">
<style type="text/css">
	.st0{fill:none;stroke:#016ECF;stroke-width:8;stroke-linecap:round;stroke-linejoin:round;stroke-miterlimit:10;}
	.st1{fill:#016ECF;stroke:#016ECF;stroke-width:8;stroke-linecap:round;stroke-linejoin:round;stroke-miterlimit:10;}
</style>
<g id="XMLID_2_">
	<path id="XMLID_8_" class="st0" d="M127,397c0-11.2819824-5.6657104-21.8944092-15.6115189-31.1863098
		c3.9673309-13.019928,3.5677719-25.0432739-2.0730286-34.8136902
		c-5.6410675-9.7704163-15.8539352-16.1282959-29.1130447-19.2024231C77.1281738,298.5383606,70.7704239,288.3256226,61,282.6846924
		c-9.7705536-5.6409607-21.794014-6.0406189-34.8138046-2.0733032C16.8942909,270.6657104,6.2819929,265-5,265
		s-21.8944187,5.6657104-31.1863251,15.6113892c-13.0197868-3.9673157-25.0432472-3.5676575-34.8138046,2.0733032
		c-9.7702942,5.6409302-16.1283035,15.8536682-19.2022781,29.1128845
		C-103.461647,314.871582-113.6745148,321.2295837-119.3154526,331c-5.6409302,9.7704163-6.0404892,21.7937622-2.0731506,34.8136902
		C-131.3342896,375.1055908-137,385.7180176-137,397s5.6657104,21.8942871,15.6113968,31.1861877
		c-3.9673386,13.0198059-3.5677795,25.043396,2.0731506,34.8138123
		c5.6409378,9.7704163,15.8538055,16.1282959,29.1130447,19.2024231
		c3.0739746,13.2590942,9.4319839,23.4719543,19.2022781,29.1128845c9.7705574,5.6409302,21.7940178,6.0406494,34.8138046,2.0733032
		C-26.8944187,523.3342896-16.2819939,529-5,529s21.8942909-5.6657104,31.1861973-15.6113892
		C39.205986,517.355957,51.2294464,516.9562378,61,511.3153076c9.7704239-5.6409302,16.1281738-15.8537903,19.2024078-29.1128845
		C93.4615173,479.1282959,103.6743851,472.7704163,109.3154526,463c5.6408005-9.7704163,6.0403595-21.7940063,2.0730286-34.8138123
		C121.3342896,418.8942871,127,408.2819824,127,397z"/>
	<g id="XMLID_4_">
		<path id="XMLID_7_" class="st0" d="M39.8749847,352.1249695l-89.750061,89.750061L39.8749847,352.1249695z"/>
		<circle id="XMLID_6_" class="st0" cx="-34.7749481" cy="368.0758057" r="18.2902832"/>
		<circle id="XMLID_5_" class="st0" cx="24.7748547" cy="425.9241943" r="18.2902832"/>
	</g>
	<path id="XMLID_3_" class="st1" d="M-122.558136,338.677124c-2.3239059,8.1272583-1.812645,17.3497009,1.1696548,27.1365662
		C-131.3342896,375.1054382-137,385.717865-137,397c0,11.2818604,5.6657104,21.8942871,15.6115189,31.1860657
		c-3.9673309,13.0197754-3.5677719,25.0435181,2.0730286,34.8139343
		c5.6410675,9.7704163,15.8539352,16.1281738,29.1130447,19.2024231C-87.1284332,495.4615173-80.7704239,505.6743774-71,511.3151855
		c9.7704277,5.6410522,21.7938881,6.0406494,34.8136749,2.0733032C-26.8942909,523.3342896-16.2818642,529-5,529
		c11.2821217,0,21.8942909-5.6657104,31.1863251-15.6115112C39.2061119,517.355835,51.2295723,516.9562378,61,511.3151855
		c6.2575989-3.6127014,11.0982666-9.1189575,14.5900269-16.0816956c-6.6065674,0.7744751-13.3104668,1.2069092-20.1119385,1.2069092
		C-33.5221786,496.4403992-107.4573593,428.3478394-122.558136,338.677124z"/>
</g>
</svg>
