<?xml version="1.0" encoding="utf-8"?>
<!-- Generator: Adobe Illustrator 19.0.0, SVG Export Plug-In . SVG Version: 6.00 Build 0)  -->
<svg version="1.1" id="Layer_1" xmlns="http://www.w3.org/2000/svg" xmlns:xlink="http://www.w3.org/1999/xlink" x="0px" y="0px"
	 width="300px" height="300px" viewBox="-155 247 300 300" style="enable-background:new -155 247 300 300;" xml:space="preserve">
<style type="text/css">
	.st0{fill:none;stroke:#016ECF;stroke-width:8;stroke-linecap:round;stroke-linejoin:round;stroke-miterlimit:10;}
	.st1{fill:#016ECF;stroke:#016ECF;stroke-width:8;stroke-linecap:round;stroke-linejoin:round;stroke-miterlimit:10;}
</style>
<g id="XMLID_36_">
	<g id="XMLID_35_">
		<path id="XMLID_33_" class="st0" d="M127,459.6345825c0-28.3960266-23.0195236-51.4154663-51.41539-51.4154663H17.4302521
			c-6.3185291,0-11.9608431,4.6195679-12.5605612,10.9095764c-0.6880293,7.2155457,4.9674273,13.2858887,12.0408831,13.2858887
			H72.156868c14.6990738,0,26.6150284,11.9159546,26.6150284,26.6150208v18.1466064
			c-7.142128-2.5332642-18.2768631-5.8973389-32.2605896-7.6618652c-18.2594376-2.3040771-41.291069-5.2102966-62.9082451,6.8554077
			c-12.9396477,7.2223816-21.3461895,17.5618896-29.0345745,27.0182495
			c-7.138876,8.7803955-12.0716,16.9414673-15.3239002,22.9857178H127V459.6345825z"/>
		<path id="XMLID_32_" class="st1" d="M-25.4316597,503.388092c-7.1388779,8.780426-12.0714531,16.9413757-15.3237534,22.9855652
			H127V503.388092H-25.4316597z"/>
		<path id="XMLID_31_" class="st1" d="M66.5113068,469.5142517c0.2065964,0.0261536,0.3984299,0.0598145,0.6037064,0.0865479
			c-1.6824951-6.5664673-6.1680489-12.3827515-12.7014465-16.0007019
			c-8.3284187-4.6121216-19.3978806-5.3465271-28.6314163-0.7171326
			c-8.0730839,4.0475464-13.2649813,11.4656982-14.0810471,19.660614
			C30.8607788,465.018219,50.5167999,467.4959717,66.5113068,469.5142517z"/>
	</g>
	<path id="XMLID_30_" class="st0" d="M-13.3666677,292.0372314v171.6094971V292.0372314z"/>
	<polyline id="XMLID_29_" class="st0" points="61.9082413,380.8482056 61.9082413,349.8240356 100.230011,362.5979614 
		110.2666626,309.6773987 37.2728157,289.6040955 2.0684903,330.3590088 -13.3666677,304.2028809 	"/>
	<polyline id="XMLID_28_" class="st0" points="-13.3666677,304.2028809 -28.8018246,330.3590088 -64.0061493,289.6040955 
		-137,309.6773987 -126.9633484,362.5979614 -88.641571,349.8240356 -88.641571,526.3736572 -67.3094788,526.3736572 	"/>
	<polyline id="XMLID_27_" class="st0" points="-13.3666677,292.0372314 21.0773048,267.6262817 37.2728157,289.6040955 	"/>
	<polyline id="XMLID_26_" class="st0" points="-64.0061493,289.6040955 -47.8106384,267.6262817 -13.3666677,292.0372314 	"/>
	<path id="XMLID_25_" class="st0" d="M6.717999,273.5465698"/>
	<path id="XMLID_24_" class="st0" d="M-33.4513321,273.5465698"/>
	<path id="XMLID_23_" class="st0" d="M-47.5494614,389.3623657H-49.90802c-7.7861824,0-14.0981293-6.3119507-14.0981293-14.0981445
		V352.865448h30.5548172v22.3987732C-33.4513321,383.050415-39.7632828,389.3623657-47.5494614,389.3623657z"/>
	<line id="XMLID_22_" class="st0" x1="-47.8106384" y1="267.6262817" x2="21.0773048" y2="267.6262817"/>
</g>
</svg>
