<?xml version="1.0" encoding="utf-8"?>
<!-- Generator: Adobe Illustrator 19.0.0, SVG Export Plug-In . SVG Version: 6.00 Build 0)  -->
<svg version="1.1" id="Layer_1" xmlns="http://www.w3.org/2000/svg" xmlns:xlink="http://www.w3.org/1999/xlink" x="0px" y="0px"
	 width="300px" height="300px" viewBox="-155 247 300 300" style="enable-background:new -155 247 300 300;" xml:space="preserve">
<style type="text/css">
	.st0{fill:none;stroke:#016ECF;stroke-width:8;stroke-linecap:round;stroke-linejoin:round;stroke-miterlimit:10;}
	.st1{fill:#016ECF;stroke:#016ECF;stroke-width:8;stroke-linecap:round;stroke-linejoin:round;stroke-miterlimit:10;}
</style>
<g>
	<path class="st0" d="M-5,474.0019836"/>
	<path class="st0" d="M-5,290.7791138"/>
	<line class="st0" x1="-5" y1="501.2365723" x2="-5" y2="529.2838135"/>
	<line class="st0" x1="-5" y1="357.7509766" x2="-5" y2="404.7932129"/>
	<polyline class="st0" points="75.3690033,529.2838135 -85.3690033,529.2838135 -85.3690033,352.476532 -126.2841339,366.1148987 
		-137,309.6130676 -59.0664215,288.1813354 -21.4797039,331.6942444 -5,303.7680359 	"/>
	<polyline class="st0" points="-5,303.7680359 11.4797049,331.6942444 49.0664215,288.1813354 127,309.6130676 
		116.2841339,366.1148987 75.3690033,352.476532 75.3690033,375.2064819 	"/>
	<polyline class="st0" points="-5,290.7791138 31.7749081,264.716217 49.0664215,288.1813354 	"/>
	<polyline class="st0" points="-59.0664215,288.1813354 -41.7749062,264.716217 -5,290.7791138 	"/>
	<path class="st0" d="M16.443861,271.0371399"/>
	<path class="st0" d="M-26.443861,271.0371399"/>
	<path class="st1" d="M-42.7551231,394.6905518h-0.0000343c-9.008461,0-16.311264-7.3027954-16.311264-16.3112488v-22.6555481
		h32.6225586v22.6555481C-26.443861,387.3877563-33.7466621,394.6905518-42.7551231,394.6905518z"/>
	<line class="st0" x1="-41.7749062" y1="264.716217" x2="31.7749081" y2="264.716217"/>
	<path class="st0" d="M57.3468628,415.7528076c0-7.6667786,6.2151489-13.8819275,13.8819199-13.8819275
		s13.8819199,6.2151489,13.8819199,13.8819275s-6.2151489,13.8819275-13.8819199,13.8819275h-102.044281"/>
	<path class="st0" d="M79.7578812,470.4255371c0,9.6156616,7.7950516,17.4107056,17.4107285,17.4107056
		s17.4107285-7.7950439,17.4107285-17.4107056c0-9.6156921-7.7950516-17.4107361-17.4107285-17.4107361h-127.984108"/>
	<path class="st0" d="M28.9124775,485.7995605c0,5.1940613,4.210619,9.4046631,9.4046803,9.4046631
		s9.4046822-4.2106018,9.4046822-9.4046631s-4.2106171-9.4046936-9.4046822-9.4046936h-69.1326599"/>
	<circle class="st1" cx="71.2287827" cy="415.7528076" r="13.8819189"/>
	<circle class="st1" cx="97.1686096" cy="470.4255371" r="17.4107265"/>
	<circle class="st1" cx="38.3171577" cy="485.7995605" r="9.4046812"/>
</g>
</svg>
